<svg width="77" height="76" viewBox="0 0 77 76" fill="none" xmlns="http://www.w3.org/2000/svg">
<g clip-path="url(#clip0_7_24)">
<path d="M65.4395 25.0488C63.7031 25.316 61.9957 24.4189 61.2306 22.8376L54.0922 8.08451C53.5772 7.02003 52.6175 6.238 51.471 5.94846L45.0392 4.32423C43.8578 4.0259 42.6233 4.55756 42.0283 5.62087C41.3497 6.83363 39.86 7.33128 38.5888 6.76991L33.9312 4.7132C33.0128 4.30768 32.3553 3.47327 32.1757 2.48558C31.914 1.04623 30.6604 0 29.1974 0H20.6952C19.5818 0 18.5187 0.464111 17.7617 1.28069L8.27818 11.5112C7.59259 12.2508 7.21167 13.222 7.21167 14.2305V27.1278C7.21167 28.1887 7.6331 29.2061 8.38324 29.9563L13.3822 34.9552C14.4025 35.9755 15.8931 36.3672 17.2831 35.9803L24.4938 33.9735C25.5692 33.6742 26.7207 33.8379 27.6701 34.425L29.5666 35.5978C30.4008 36.1136 31.0163 36.918 31.2963 37.8579L34.8808 49.8918C35.0723 50.5349 35.099 51.2158 34.9584 51.8718L33.5698 58.3522C33.41 59.0981 33.4668 59.874 33.7334 60.5887L38.5132 73.3984C39.0969 74.9628 40.591 76 42.2608 76H44.7458C45.8668 76 46.9363 75.5296 47.694 74.7034L53.7434 68.1062C54.1374 67.6766 54.4326 67.1661 54.6086 66.6104L56.3872 60.9939C56.5808 60.3825 56.9186 59.8266 57.3721 59.3731L61.3867 55.3585C62.1581 54.5871 62.5809 53.5341 62.5573 52.4435L62.3665 43.6336C62.3487 42.813 62.5838 42.0068 63.0399 41.3243L67.8468 34.1319C68.0704 33.7973 68.2423 33.4309 68.3565 33.0451L70.4786 25.8791C70.509 25.7766 70.5244 25.6702 70.5244 25.5633C70.5244 24.8814 69.9167 24.3601 69.2428 24.4637L65.4395 25.0488Z" fill="#97BC59"/>
</g>
<defs>
<clipPath id="clip0_7_24">
<rect width="76" height="76" fill="white" transform="translate(0.868042)"/>
</clipPath>
</defs>
</svg>
