<?xml version="1.0" encoding="utf-8"?>
<!-- Generator: Adobe Illustrator 19.2.1, SVG Export Plug-In . SVG Version: 6.00 Build 0)  -->
<svg version="1.1" id="layer" xmlns="http://www.w3.org/2000/svg" xmlns:xlink="http://www.w3.org/1999/xlink" x="0px" y="0px"
	 viewBox="0 0 652 652" style="enable-background:new 0 0 652 652;" xml:space="preserve">
<style type="text/css">
	.st0{opacity:0.5;fill:#808F99;enable-background:new    ;}
	.st1{fill:#E6E7E8;}
	.st2{clip-path:url(#SVGID_2_);fill:url(#SVGID_3_);}
	.st3{clip-path:url(#SVGID_5_);fill:url(#SVGID_6_);}
	.st4{fill:#1C75AA;}
	.st5{fill:#808F99;}
</style>
<g id="Layer_2">
	<g>
		<g>
			<g>
				<path d="M50,330.1c12,0,17.4,4.8,17.4,13.2c0,4.2-1,7.6-6.2,10.3c4.4,1.5,7.7,5.6,7.7,11.9c0,7.4-3.9,15.4-19,15.4H26.8v-50.8
					H50z M37.1,350h12.5c5,0,7.2-1.8,7.2-5.6c0-3.5-2-5.3-8.7-5.3h-11V350z M37.1,371.8h12.4c5.7,0,8.5-1.9,8.5-7.1
					c0-3.9-2.5-6.1-8.1-6.1H37.3v13.1H37.1z"/>
				<path d="M91.4,342.3c11.4,0,18.4,6.8,17.9,22.6H83.8c0.1,5.2,2.8,9.1,8.3,9.1c2.6,0,5.4-0.9,6.7-3.9h10.5
					c-0.6,6.6-6.7,12.1-17.3,12.1c-8.7,0-18.4-5.2-18.4-19.8C73.6,349.9,81.2,342.3,91.4,342.3z M98.8,358.3
					c-0.3-4.7-2.8-7.6-7.3-7.6c-4.3,0-6.8,2.9-7.4,7.6H98.8z"/>
				<path d="M116.6,343.7v-10.6h10.1v10.6h6.2v7.2h-6.2v19.4c0,3.2,0.8,3.5,4.3,3.5c0.5,0,1.5,0,1.9-0.1v7.6
					c-1.5,0.1-3.2,0.1-4.7,0.1c-8.3,0-11.6-1.8-11.6-7.6v-23h-5.2v-7.2C111.5,343.7,116.6,343.7,116.6,343.7z"/>
				<path d="M141,343.7v-10.6h10.1v10.6h6.2v7.2h-6.2v19.4c0,3.2,0.8,3.5,4.3,3.5c0.5,0,1.5,0,1.9-0.1v7.6c-1.5,0.1-3.2,0.1-4.7,0.1
					c-8.3,0-11.6-1.8-11.6-7.6v-23h-5.2v-7.2C135.8,343.7,141,343.7,141,343.7z"/>
				<path d="M177.2,342.3c11.4,0,18.4,6.8,17.9,22.6h-25.6c0.1,5.2,2.8,9.1,8.3,9.1c2.6,0,5.4-0.9,6.7-3.9H195
					c-0.6,6.6-6.7,12.1-17.3,12.1c-8.7,0-18.4-5.2-18.4-19.8C159.4,349.9,166.8,342.3,177.2,342.3z M184.6,358.3
					c-0.3-4.7-2.8-7.6-7.3-7.6c-4.3,0-6.8,2.9-7.4,7.6H184.6z"/>
				<path d="M210.6,343.3v6.6c3.3-5.8,6.6-7.4,11.2-7.4c0.5,0,0.9,0,1.3,0.1V353c-1.1-0.1-2-0.3-2.9-0.3c-6.6,0-9.1,3.2-9.1,10.7
					V381h-10.2v-37.7H210.6z"/>
				<path d="M236.1,330.1l6.7,28.8l1.4,8.1l1.4-7.8l5.4-29h11.6l5.7,28.6l1.5,8.2l1.5-7.8l6.7-29h11.1l-14.4,51h-10.5l-5.8-29.1
					l-1.6-10.2l-1.9,10.2l-5.8,29.1H239l-14.5-50.8h11.6V330.1z"/>
				<path d="M308.5,342.2c12.5,0,19.4,7.8,19.4,20.2c0,11.5-6.6,19.9-19.3,19.9c-12.2,0-19.6-8.2-19.6-20.2
					C289.1,350.6,295.9,342.2,308.5,342.2z M308.5,373.7c5.4,0,8.7-4.2,8.7-11.5c0-7.8-3.5-11.6-8.7-11.6c-4,0-8.7,2-8.7,11.5
					C299.7,369.9,303,373.7,308.5,373.7z"/>
				<path d="M343.5,343.3v6.6c3.3-5.8,6.6-7.4,11.2-7.4c0.5,0,0.9,0,1.3,0.1V353c-1.1-0.1-2-0.3-2.9-0.3c-6.6,0-9.1,3.2-9.1,10.7
					V381h-10.3v-37.7H343.5z"/>
				<path d="M373.5,373.8c0.5,0,1.5,0,1.9-0.1v7.6c-1.5,0.1-3.2,0.1-4.7,0.1c-7.7,0-10.2-4.5-10.2-9.7v-41.6h10.2v40.2
					C370.7,372.7,371.8,373.8,373.5,373.8z"/>
				<path d="M394,342.4c4.3,0,8.1,2,10.3,5.7v-17.9h10.3V381h-10v-5.2c-2.3,3.8-5.6,6.4-11.5,6.4c-8.1,0-15.6-7.1-15.6-19
					C377.8,349.9,384.5,342.4,394,342.4z M396.3,373.6c4.5,0,8.3-3.2,8.3-10.8c0-7.3-3.2-11.5-8.3-11.5c-4.9,0-8.1,3.7-8.1,11
					C388.2,370.4,391.8,373.6,396.3,373.6z"/>
				<path class="st0" d="M446.5,330.3c10.3,0,16,4.5,16,12.6c0,4.7-1.6,8.2-6.7,10.8c6.3,2.3,9.1,6.2,9.1,12.5
					c0,8.6-6.6,14.9-17.8,14.9h-21.7v-50.8H446.5z M432.6,351.5h12.5c7.2,0,10.1-2.5,10.1-7.7c0-5-2.6-7.3-10.2-7.3h-12.5v15H432.6z
					 M432.6,374.7h14.5c6.6,0,10.5-3.2,10.5-9c0-5.2-3.3-8.2-11.5-8.2h-13.5L432.6,374.7L432.6,374.7z"/>
				<path class="st0" d="M485.9,342.8c9.1,0,17.3,5.8,17.3,19c0,10.8-4.8,20.4-17.9,20.4c-8.8,0-17-5.6-17-19.2
					C468.2,351.8,474.4,342.8,485.9,342.8z M485.8,376.5c7.7,0,10.5-6.2,10.5-14.5c0-9.7-4.3-13.2-10.5-13.2
					c-6.1,0-10.6,4-10.6,14.4C475.2,373.2,480.1,376.5,485.8,376.5z"/>
				<path class="st0" d="M524.1,342.8c9.1,0,17.3,5.8,17.3,19c0,10.8-4.8,20.4-17.9,20.4c-8.8,0-17-5.6-17-19.2
					C506.4,351.8,512.5,342.8,524.1,342.8z M523.9,376.5c7.7,0,10.5-6.2,10.5-14.5c0-9.7-4.3-13.2-10.5-13.2
					c-6.1,0-10.6,4-10.6,14.4C513.3,373.2,518.2,376.5,523.9,376.5z"/>
				<path class="st0" d="M552.9,330.3v29.1l15.5-15.5h8.6l-14,13.9l14.6,23.2h-8.5l-11.2-18.4l-5,4.8V381h-6.4v-50.7H552.9z"/>
				<path class="st0" d="M592.9,342.9c9.2,0,14.4,4.7,14.5,11.6h-6.4c-0.1-3.7-2.8-6.1-8.6-6.1c-4.3,0-6.9,1.6-6.9,4.7
					c0,2.3,1.4,4,6.3,5l4.4,1c9.7,2.3,12.5,4.9,12.5,10.8c0,6.8-5.2,12.1-15.4,12.1c-8.5,0-15.1-3-15.6-13.1h6.6
					c0.4,4.8,3,7.4,9.5,7.4c5,0,8.3-2.1,8.3-5.8c0-2.5-1.1-3.7-7.2-5.2l-5-1.3c-7.4-2-11.1-4.4-11.1-9.8
					C578.6,347.1,584.9,342.9,592.9,342.9z"/>
			</g>
			<g>
				<path class="st1" d="M180,302.7c0,0.3,11.5-14.6,23.8-16.7c6.4-1,14.3,0.8,18.4,11.4c12.2,31-24.3,4.3-24.3,4.3
					S180,302.4,180,302.7"/>
				<path class="st1" d="M258.8,274.5c0,0-45.2-6.9-37.7,26.4c7.6,33.3,25-10.7,25-10.7L258.8,274.5z"/>
				<g>
					<g>
						<g>
							<defs>
								<path id="SVGID_1_" d="M221.5,299.9l2.9,16.3c2.3-0.5,4.8-0.9,7.3-0.9c3.7,0,7.2,0.6,10.5,1.8c2.8-15.9,10.5-30.3,19.8-43.7
									C243.9,274.3,227.8,282.9,221.5,299.9"/>
							</defs>
							<clipPath id="SVGID_2_">
								<use xlink:href="#SVGID_1_"  style="overflow:visible;"/>
							</clipPath>
							
								<linearGradient id="SVGID_3_" gradientUnits="userSpaceOnUse" x1="308.5542" y1="1071.8051" x2="370.9586" y2="1071.8051" gradientTransform="matrix(0.8489 1.830000e-002 -5.900000e-003 0.8884 -39.0052 -663.1707)">
								<stop  offset="0" style="stop-color:#B3D891"/>
								<stop  offset="0.75" style="stop-color:#9DCF76"/>
							</linearGradient>
							<polygon class="st2" points="269.4,315.9 223.7,322.6 216.8,274.5 262.5,267.9 							"/>
						</g>
					</g>
				</g>
				<g>
					<g>
						<g>
							<defs>
								<path id="SVGID_4_" d="M208.6,325.4c-6.8-10.2-15.6-16-30.9-21.8c0,0,8.8-11.2,26-10.8c11.5,0.3,16.1,4.4,18,7.1
									c0,0.1,0,0.1-0.1,0.3l2.9,16.1C218.4,317.6,212.9,320.8,208.6,325.4"/>
							</defs>
							<clipPath id="SVGID_5_">
								<use xlink:href="#SVGID_4_"  style="overflow:visible;"/>
							</clipPath>
							
								<linearGradient id="SVGID_6_" gradientUnits="userSpaceOnUse" x1="29.5838" y1="1202.473" x2="91.8624" y2="1202.473" gradientTransform="matrix(0.8238 -0.1711 0.1769 0.8517 -61.4599 -705.2599)">
								<stop  offset="0" style="stop-color:#0666B0"/>
								<stop  offset="0.279" style="stop-color:#0C68B1"/>
								<stop  offset="0.4932" style="stop-color:#186DB4"/>
								<stop  offset="0.6858" style="stop-color:#2776BA"/>
								<stop  offset="0.8647" style="stop-color:#3883C2"/>
								<stop  offset="1" style="stop-color:#4692CC"/>
							</linearGradient>
							<polygon class="st3" points="231.2,323.6 180,334.3 171.4,293.3 222.7,282.6 							"/>
						</g>
					</g>
				</g>
				<path class="st4" d="M219.2,297l3.9-0.9l2.9,19.7c-0.8,0.1-1.5,0.3-2.3,0.5L219.2,297z"/>
			</g>
		</g>
		<g>
			<path class="st5" d="M619.6,335.5c3.2,0,7.2,2.3,7.2,7.2c0,4.5-3.7,7.3-7.2,7.3c-3.2,0-7.2-2.1-7.2-7.3
				C612.4,338.5,615.8,335.5,619.6,335.5z M619.6,349c2.6,0,6.2-2,6.2-6.2c0-2.6-2-6.2-6.2-6.2c-3.4,0-6.2,2.6-6.2,6.2
				C613.4,345.7,615.6,349,619.6,349z M619.5,338.8c2,0,3.4,0.5,3.4,2.3c0,1.1-0.6,1.8-1.9,2c0.9,0.1,1.8,0.6,1.8,2v0.6
				c0,0.8,0,0.9,0.1,1h-1.4c0-0.1-0.1-0.3-0.1-0.5v-0.6c0-1.3-0.3-2-2.1-2h-1v3h-1.5v-7.9h2.8V338.8z M618.1,342.5h1.3
				c1.3,0,2-0.3,2-1.4c0-1-0.5-1.4-2.1-1.4h-1.1V342.5z"/>
		</g>
	</g>
</g>
</svg>
