<svg width="34" height="30" viewBox="0 0 34 30" fill="none" xmlns="http://www.w3.org/2000/svg">
<path d="M9.95587 29.4314C11.6451 29.4314 13.0144 28.0536 13.0144 26.3539C13.0144 24.6542 11.6451 23.2763 9.95587 23.2763C8.26669 23.2763 6.89734 24.6542 6.89734 26.3539C6.89734 28.0536 8.26669 29.4314 9.95587 29.4314Z" fill="black"/>
<path d="M18.8819 23.2764C17.1927 23.2764 15.8234 24.6543 15.8234 26.354C15.8234 28.0536 17.1927 29.4315 18.8819 29.4315C20.5711 29.4315 21.9404 28.0536 21.9404 26.354C21.9404 24.6543 20.5711 23.2764 18.8819 23.2764Z" fill="black"/>
<path d="M24.094 20.136H8.14576L7.83366 18.3146H20.9418C21.3274 18.3157 21.6743 18.0788 21.8157 17.7179L24.9366 9.80417C25.1263 9.32011 24.89 8.773 24.4089 8.58225C24.2987 8.53852 24.1812 8.51625 24.0628 8.51662H6.21075L5.46172 4.18292C5.38479 3.72468 4.98723 3.39133 4.52542 3.39783H0.936295C0.419199 3.39783 0 3.81963 0 4.33994C0 4.86024 0.419199 5.28205 0.936295 5.28205H3.74518L6.42922 21.2351C6.50615 21.6933 6.90371 22.0267 7.36552 22.0202H24.094C24.6111 22.0202 25.0303 21.5984 25.0303 21.0781C25.0303 20.5578 24.6111 20.136 24.094 20.136Z" fill="black"/>
<path d="M33.0151 8.56849C33.0151 12.9823 29.4289 16.5685 25.0151 16.5685C20.6013 16.5685 17.0151 12.9823 17.0151 8.56849C17.0151 4.1547 20.6013 0.568481 25.0151 0.568481C29.4289 0.706413 33.0151 4.1547 33.0151 8.56849Z" fill="#ECB942"/>
<path d="M22.0424 8.45448C22.0424 10.7975 22.7464 12.5465 25.0124 12.5465C27.2784 12.5465 27.9824 10.7975 27.9824 8.45448C27.9824 6.13348 27.2784 4.39548 25.0124 4.39548C22.7464 4.39548 22.0424 6.13348 22.0424 8.45448ZM26.4644 8.45448C26.4644 9.88448 26.3104 11.1165 25.0124 11.1165C23.7144 11.1165 23.5604 9.88448 23.5604 8.45448C23.5604 7.07948 23.7144 5.82548 25.0124 5.82548C26.3104 5.82548 26.4644 7.07948 26.4644 8.45448Z" fill="black"/>
</svg>
