<svg width="408" height="251" viewBox="0 0 408 251" fill="none" xmlns="http://www.w3.org/2000/svg">
<g clip-path="url(#clip0_7_30)">
<path d="M382.629 173.021C381.648 172.709 380.67 172.72 379.702 173.698C379.38 174.024 379.387 174.669 379.071 175.64C382.178 176.574 389.503 175.528 390.679 178.74C390.544 181.322 389.888 181.006 386.961 181.683C386.968 182.328 386.638 182.009 388.768 182.953C389.271 184.238 388.945 184.242 384.869 184.285C382.913 184.306 382.4 182.054 380.285 182.399C379.147 182.734 378.152 181.132 377.017 181.789C369.825 179.931 368.364 180.592 368.33 177.367C368.143 175.112 373.702 176.665 374.503 175.366C374.167 174.402 374.15 172.79 372.526 173.452C368.628 174.784 369.745 172.514 366.655 173.193C363.728 173.869 363.901 174.835 361.615 174.537C354.1 173.005 353.129 173.66 351.495 173.355C349.532 172.731 347.417 173.076 345.471 174.064C346.966 176.629 346.466 175.666 346.983 178.241C346.171 178.572 345.36 178.903 344.545 178.912C344.548 179.235 344.389 179.559 344.881 179.876C358.948 184.24 352.542 179.794 357.755 179.416C359.548 179.396 360.991 177.123 361.352 180.345C361.716 183.888 363.013 183.229 365.621 183.201C371.004 183.466 366.127 184.809 379.334 184.99C381.29 184.969 379.82 184.662 385.709 186.534C386.371 187.494 386.551 189.105 386.728 190.393C386.582 192.007 386.1 192.657 385.615 192.985C380.409 194.008 379.746 193.048 383.024 194.625C383.201 195.914 383.041 196.238 382.715 196.241C380.107 196.269 377.496 195.975 375.037 194.711C372.612 196.672 374.887 196.003 362.995 196.775C363.335 198.061 363.82 197.734 364.15 198.053C368.409 199.942 368.249 200.266 368.416 200.587C359.669 205.841 360.574 199.059 352.94 201.72C352.774 201.4 352.77 201.077 352.604 200.756C352.438 200.436 352.278 200.76 352.122 201.407C352.125 201.729 352.94 201.72 352.94 201.72C353.107 202.041 353.117 203.009 353.28 203.007C368.353 209.941 367.184 207.373 367.715 211.237C363.487 212.25 362.498 211.293 360.39 212.283C356.627 211.034 353.398 213.971 349.458 211.433C349.295 211.435 349.125 210.792 349.118 210.147C351.047 207.546 350.238 208.2 352.025 207.535C347.554 201.133 345.698 210.506 340.649 210.882C337.389 210.917 334.309 212.563 331.042 211.953C328.756 211.655 324.202 212.671 323.713 212.676C322.246 212.692 320.765 211.418 319.475 212.722C317.699 214.353 316.225 213.724 315.105 215.671C314.62 215.999 314.62 215.999 315.102 215.349C317.065 215.973 316.426 217.27 315.823 221.791L315.826 222.114C315.819 221.469 315.493 221.472 318.275 222.41C318.958 225.305 318.785 224.34 318.968 226.273C316.697 227.265 314.571 226.642 312.299 227.634C312.476 228.922 312.465 227.955 316.221 228.56C316.384 228.558 316.554 229.201 316.721 229.522C316.398 229.848 316.076 230.174 315.75 230.177C309.552 229.921 309.878 229.918 307.093 228.657C299.234 225.517 302.699 229.35 291.084 225.604C290.266 225.29 289.607 224.652 289.097 222.723C291.362 221.086 293.984 222.348 300.653 220.986C300.653 220.986 300.962 219.37 300.473 219.376C298.843 219.393 298.697 221.007 296.89 219.736C294.591 218.149 293.98 222.025 291.67 219.47C291.504 219.149 291.181 219.475 291.018 219.477C289.073 220.465 287.765 220.157 282.715 220.533C282.247 222.473 282.906 223.111 283.242 224.075C283.256 225.365 282.604 225.372 282.618 226.662C283.274 226.978 283.932 227.616 285.243 228.247C274.655 229.005 274.173 229.655 270.729 227.757C265.152 224.592 262.572 227.199 259.454 225.298C255.677 222.758 235.138 222.978 234.486 222.985C233.841 223.637 233.359 224.287 232.707 224.294C228.625 223.693 227.984 224.667 223.735 223.745C216.705 221.886 205.957 222.968 204.66 223.627C204.833 224.593 205.007 225.558 205.183 226.847C198.833 227.56 200.141 227.868 198.649 225.627C194.397 224.382 195.549 225.337 188.54 225.412C188.057 226.063 187.419 227.359 186.767 227.366C185.467 227.703 184.537 232.228 182.692 227.41C181.874 227.096 181.059 227.105 180.24 226.791C180.091 228.083 180.25 227.759 181.079 229.04C180.438 230.014 179.775 229.054 179.29 229.382C178.638 229.389 177.986 229.396 177.33 229.08C176.005 227.159 176.331 227.156 175.378 229.424C172.933 229.45 173.591 230.088 172.912 227.515C172.43 228.165 171.788 229.139 171.146 230.114C170.165 229.802 169.013 228.847 167.886 230.149C159.094 231.211 159.896 229.912 155.831 230.923C155.019 231.254 154.045 231.587 153.219 230.628C152.397 229.992 151.763 231.612 150.944 231.298C150.122 230.662 149.48 231.636 148.665 231.645C148.332 231.003 147.84 230.686 147.507 230.045C146.529 230.055 145.735 231.999 144.431 232.013C143.446 231.378 142.128 230.102 140.668 230.763L140.664 230.44L140.831 230.761C140.834 231.084 140.675 231.408 140.675 231.408C135.32 233.723 131.529 229.893 132.843 230.847C132.372 232.464 131.886 232.792 130.093 232.811C123.573 232.881 123.41 232.883 122.751 232.245C121.107 230.973 121.301 233.873 118.839 232.287C115.558 230.387 115.426 233.291 113.952 232.662C112.971 232.35 110.997 230.758 110.033 232.059C108.264 234.335 106.617 232.74 104.491 232.118C102.07 234.402 97.6515 232.836 94.8908 233.833C94.4052 234.161 93.7463 233.523 93.4099 232.559C93.3823 229.979 94.187 229.003 94.8217 227.384C94.4923 227.065 94.3189 226.099 93.9929 226.103C91.3744 225.163 91.3951 227.098 90.7293 225.815C90.0669 224.855 89.8866 223.244 89.8694 221.632C89.859 220.664 90.0185 220.34 90.6602 219.366C91.1596 220.328 91.659 221.29 92.1618 222.575C93.1467 223.209 93.9514 222.233 94.4162 219.971C93.9376 220.943 95.2036 217.382 97.1735 218.651C97.666 218.968 97.9989 219.61 98.481 218.96C98.6406 218.635 98.8001 218.311 98.6268 217.345C95.6788 216.087 96.6638 216.721 94.6801 214.163C95.8107 213.183 99.8928 213.784 100.056 213.782C100.382 213.779 100.552 214.422 100.885 215.064C100.569 216.035 100.416 217.004 100.264 217.973C101.422 219.573 102.57 220.206 103.517 217.293C102.511 214.724 102.844 215.365 102.671 214.399C102.813 212.463 103.638 213.422 104.117 212.449C104.103 211.159 104.249 209.545 104.232 207.933C103.902 207.614 103.569 206.972 103.406 206.974C99.4908 206.693 100.635 207.004 99.515 208.951C99.0363 209.923 98.2213 209.932 98.0445 208.644C97.3682 206.394 96.3833 205.759 95.4053 205.77C96.5359 204.79 96.7024 205.111 97.0111 203.495C97.3199 201.879 95.8356 200.282 95.3465 200.287C90.6125 199.693 91.1084 200.333 89.9777 201.313C85.7188 199.423 84.0681 197.506 80.1732 199.16C79.0529 201.107 79.7049 201.1 77.3986 198.867C76.7466 198.874 76.0981 199.204 75.446 199.211C74.4438 196.964 76.3999 196.943 77.2115 196.612C77.3745 196.61 77.5306 195.963 77.6901 195.639C75.8867 194.691 75.8867 194.691 72.7999 195.691C73.2993 196.654 73.9583 197.292 73.8091 198.583C73.6599 199.875 72.8449 199.884 72.3558 199.889C68.4368 199.286 69.0923 199.601 71.0311 197.968C71.1768 196.354 70.1988 196.364 70.3445 194.75L70.3479 195.073C70.6705 194.747 71.1595 194.741 71.1492 193.774C70.9654 191.841 71.614 191.511 71.9331 190.863C71.9124 188.928 72.0892 190.216 71.7183 186.028C70.2305 184.109 54.1033 185.249 50.368 186.579C46.6327 187.909 40.5842 186.361 38.0003 188.646C35.7147 188.348 33.2835 189.665 30.9876 188.399C29.3472 187.449 20.7251 189.154 15.6616 188.241C14.6801 187.929 14.2118 189.869 13.0535 188.269C12.887 187.948 12.8801 187.303 12.8767 186.981C11.2259 185.063 11.7253 186.025 42.36 184.73C48.0444 182.734 57.8351 183.596 59.1288 182.615C61.0711 181.304 64.0294 183.53 66.7659 180.275C65.9301 178.349 66.9151 178.984 63.3151 177.732C63.3048 176.765 63.2944 175.798 63.2841 174.83C62.2957 173.873 60.35 174.862 60.218 177.766C60.0896 180.992 55.1752 178.787 53.8608 177.834C54.0307 178.477 53.6909 177.19 53.3649 177.194C46.8205 175.007 42.1244 177.959 35.6042 178.029C35.6042 178.029 11.1533 178.291 10.0088 177.981C10.1684 177.657 10.1615 177.012 10.3245 177.01C10.3245 177.01 28.5777 176.492 32.1638 176.454C36.2389 176.41 33.78 175.146 37.0401 175.111C46.654 174.686 45.8424 175.017 49.0991 174.66C51.3777 174.313 49.7304 172.718 55.7651 172.976C56.2541 172.97 56.5766 172.644 57.2287 172.637C57.0587 171.994 56.8923 171.673 56.7293 171.675C55.4183 171.044 52.9629 170.103 51.6657 170.762C49.231 171.756 48.4022 170.474 47.268 171.132C43.2171 173.433 39.2635 169.605 37.0021 171.564C34.068 171.596 30.9882 173.241 28.0403 171.983C26.7328 171.674 25.4322 172.011 23.9651 172.026C13.7027 172.781 17.764 171.448 16.6299 172.105C14.8506 173.414 12.8808 172.145 10.9351 173.133C7.96641 169.94 8.6357 171.545 7.7654 166.395C10.3459 163.787 35.4764 166.098 40.6684 163.785C44.0742 162.135 42.6244 163.764 48.6487 163.054C48.9747 163.051 49.1343 162.726 50.0916 160.781C49.4361 160.465 48.7806 160.15 47.9587 159.514C46.6097 155.336 46.4364 154.37 45.7809 154.054C38.7371 150.905 38.5776 151.229 39.195 147.997C40.18 148.632 41.1615 148.944 42.1464 149.578C42.4724 149.575 43.1072 147.955 42.2852 147.319C41.9558 147 41.2934 146.04 39.6599 145.735C37.8633 145.431 38.1583 142.526 34.8947 142.238C7.98148 140.914 10.1317 143.794 8.95261 140.259C10.3955 137.985 18.0844 140.483 27.518 138.447C27.6464 135.221 25.2186 136.859 23.7136 133.328C23.2107 132.043 22.5553 131.728 22.0559 130.765C21.8894 130.445 21.8825 129.8 21.716 129.479C22.9959 127.208 24.331 130.096 25.6385 130.404C27.7369 128.447 26.5993 128.782 30.3553 129.386C31.3437 130.343 30.7194 132.93 31.3817 133.891C31.8811 134.853 31.4094 136.47 31.7492 137.757C33.5596 139.35 33.5595 139.35 36.1504 137.71C35.1032 131.271 36.265 133.193 39.6778 132.189C40.0038 132.186 40.3229 131.537 40.4824 131.213C40.4444 127.666 40.7877 129.275 38.7833 124.781C37.7983 124.146 37.663 126.728 36.6884 127.061C36.0398 127.39 35.3567 124.495 34.2191 124.83C33.737 125.48 33.2618 126.775 32.4468 126.784C26.4156 126.848 21.553 129.481 21.9764 123.348C22.4032 117.539 27.8446 123.286 32.2009 119.046C34.1673 119.993 36.2967 120.937 38.4123 120.592C39.3869 120.259 39.1997 118.004 38.853 116.072C37.6878 113.827 36.3699 112.551 34.7468 113.214C34.5768 112.571 34.4069 111.927 34.2336 110.962C31.7781 110.02 29.333 110.047 26.8949 110.718C26.5688 110.721 26.4127 111.368 26.2601 112.337C26.4197 112.013 26.5827 112.011 24.304 112.358L24.3075 112.681C22.7886 107.859 12.0959 114.101 7.636 108.667C7.9482 107.373 7.94474 107.051 8.2673 106.725C17.8708 105.332 19.2025 107.898 22.2754 105.607C22.2651 104.64 22.2581 103.995 22.0848 103.029C23.212 101.727 24.5264 102.68 25.6709 102.991C26.9749 102.977 28.1298 104.254 29.1286 106.179C29.9436 106.17 30.7586 106.161 31.5771 106.475C36.3112 107.069 36.2524 101.587 38.0697 103.825C38.2362 104.146 38.7114 102.851 38.7079 102.528C38.701 101.884 38.3646 100.92 38.0351 100.601C37.8721 100.602 38.0351 100.601 37.2201 100.609C36.8872 99.9679 36.211 97.7176 34.7439 97.7333C30.8353 98.0977 26.9024 96.2048 23.0041 97.5366C21.3775 97.8765 21.0273 95.6227 18.1243 98.5564C14.5036 95.3701 10.5984 96.0569 6.36368 96.4248C5.87466 96.43 5.71166 96.4318 4.54644 94.1867C5.83321 92.5603 7.48054 94.1553 8.61121 93.1756C9.56161 90.5853 8.05655 87.0539 10.1687 86.3862C10.8173 86.0567 10.0057 86.388 14.4 85.6958C15.1908 83.4298 14.8199 79.2411 13.5124 78.9326C10.0789 78.0019 13.6823 79.5758 1.75178 76.8011C0.933302 76.4873 0.579652 73.911 1.22822 73.5816C2.68491 72.5984 3.17738 72.9157 6.27449 72.8825C6.09766 71.5943 5.44909 71.9238 5.11617 71.2823C4.78325 70.6409 4.77634 69.9959 5.09199 69.025C12.573 67.3323 10.121 66.7136 15.3372 66.6577C17.7822 66.6315 20.2101 64.9929 22.6448 63.9993C27.5108 61.6896 26.5673 64.9248 28.5095 63.614C30.4518 62.3031 31.3083 66.1641 33.3928 62.9166L33.5592 63.2373C33.0668 62.9201 32.8934 61.9544 32.5639 61.6355C31.7455 61.3217 29.4772 62.6361 26.5224 60.7327C23.8935 58.8258 22.1212 60.7798 21.2889 59.1762C22.0901 57.8775 23.0785 58.8345 23.8901 58.5033C24.7017 58.1721 25.3502 57.8426 26.1653 57.8339C26.599 52.6691 23.5157 53.9921 22.8568 53.3542C20.2245 51.1248 18.7713 52.4304 14.8626 52.7948C13.6974 50.5497 14.5193 51.1859 10.7667 50.9036C9.46268 50.9176 10.0836 48.0083 10.5692 47.6806C13.8051 45.3884 12.5356 48.6271 13.9577 44.4192C15.7163 41.1753 32.2316 45.836 35.6098 41.6072C36.4145 40.631 36.9104 41.2707 44.9046 41.8301C48.1682 42.1176 48.1855 43.73 50.9531 43.3778C58.115 42.3336 56.9843 43.3132 57.7683 40.4022C61.9649 36.4871 64.1186 39.6892 69.7892 36.4033C70.4378 36.0739 71.0898 36.0669 71.7384 35.7374C71.7246 34.4475 71.3985 34.451 71.2355 34.4528C64.698 32.9102 51.6852 35.6297 49.2194 33.7211C49.3755 33.0744 49.3686 32.4295 49.5316 32.4277C50.6657 31.7705 51.9594 30.7891 53.1039 31.0994C56.2114 32.0336 56.2045 31.3887 69.564 30.6005C73.8022 30.5551 72.1445 27.9928 76.23 28.9166C82.601 30.1384 103.927 27.3298 109.337 30.1744C110.156 30.4882 111.137 30.8002 111.949 30.469C112.924 30.136 113.908 30.7705 115.216 31.079C118.129 29.1127 119.26 28.1331 120.578 29.409C121.237 30.0469 121.872 28.4276 123.509 29.0551C130.209 30.5958 132.144 28.64 133.126 28.952C135.259 30.2192 137.201 28.9084 137.53 29.2274C139.348 31.4655 144.356 27.2192 150.262 30.7035C165.984 22.1498 133.258 26.048 60.2416 27.7978C57.9595 27.8223 51.6161 29.1803 48.5156 28.891C45.415 28.6017 33.8416 28.7257 29.7837 30.3817C29.4646 31.0301 29.1421 31.3561 28.9825 31.6803C25.8612 29.4562 21.1583 31.7642 17.8843 30.5092C18.0439 30.185 18.2 29.5383 18.2 29.5383C20.9745 29.8311 23.7249 27.8665 26.496 27.8368C28.126 27.8194 27.9388 25.5638 31.6914 25.8461C35.6105 26.4492 35.5932 24.8368 43.0949 25.0789C47.4995 25.3542 46.5249 25.6872 49.7367 21.1376C51.6928 21.1167 51.1968 20.477 52.3724 23.6895C58.8996 24.2646 150.811 21.0223 150.811 21.0223C153.256 20.9961 152.42 19.07 156.332 19.0281C164.319 18.9425 179.805 18.7766 192.193 18.6439C193.334 18.6317 194.465 17.652 195.446 17.964C196.591 18.2743 197.729 17.9396 198.703 17.6066C201.141 16.9355 201.159 18.5479 203.767 18.5199C223.979 18.3034 223.334 18.9553 223.466 16.0513C222.478 15.0943 221.507 15.7498 220.529 15.7602C216.936 15.1537 219.734 17.7038 214.494 15.5024C214.331 15.5041 214.161 14.8609 213.835 14.8644C213.995 14.5402 213.991 14.2177 214.154 14.216C223.758 12.8231 224.434 15.0734 230.302 15.0105C236.985 14.9389 236.982 14.6164 237.825 17.1875C241.092 17.7975 239.624 17.8132 241.265 18.7632C244.875 20.9821 244.376 20.0199 248.943 20.2935C252.204 20.2586 251.725 21.2312 253.851 21.8535C254.832 22.1655 255.807 21.8325 256.788 22.1445C261.38 24.6754 262.65 21.4367 270.661 23.6084C271.788 22.3063 273.082 21.3249 274.407 23.2458C274.237 22.6026 274.577 23.889 274.584 24.5339C274.965 29.69 282.887 23.4775 285.859 26.9932C287.676 29.2313 289.608 26.9531 292.691 25.63C294.155 25.2918 297.096 25.9053 296.478 29.137C295.028 30.7651 294.196 29.1615 285.075 29.9042C285.581 31.5114 284.915 30.2284 296.825 31.0684C309.713 31.8978 309.862 30.6062 313.299 31.8594C314.117 32.1732 311.506 31.8786 324.057 31.7442C339.383 31.9025 343.354 37.3426 358.486 34.6004C360.071 30.3908 360.241 31.034 362.849 31.0061C364.51 33.8909 364.51 33.8909 366.144 34.1959C368.107 34.8199 374.131 34.1103 374.131 34.1103C377.058 33.4339 375.772 35.0603 387.179 34.6155C396.14 34.197 394.514 34.5369 395.825 35.1679C395.835 36.1353 395.845 37.1028 395.519 37.1063C393.407 37.7739 382.815 38.2099 380.214 38.8828C379.888 38.8863 379.736 39.8554 379.576 40.1797C379.77 43.0802 380.911 43.068 382.229 44.3439C361.86 45.2071 368.047 44.4958 367.593 47.7258C365.98 49.3556 363.847 48.0884 364.399 53.8877C364.891 54.205 365.387 54.8447 365.879 55.1619C366.393 57.414 364.596 57.1107 364.128 59.0508C365.276 59.6835 366.264 60.6405 367.1 62.5666C367.769 64.172 369.073 64.158 369.274 67.7034C369.586 66.4101 369.902 65.4391 370.055 64.47C370.745 68.0102 370.072 66.0823 372.881 69.5999C373.377 70.2396 373.713 71.2035 373.731 72.8159C373.89 72.4916 374.379 72.4864 370.481 73.8182C369.999 74.4684 369.354 75.1203 369.378 77.3777C371.032 79.6175 370.217 79.6262 375.43 79.2479C375.756 79.2444 375.915 78.9202 376.398 78.27C376.217 76.6594 376.04 75.3712 375.867 74.4055C375.867 74.4055 383.532 74.6459 384.517 75.2804C384.843 75.2769 385.179 76.2408 385.023 76.8875C384.714 78.5034 384.711 78.1809 380.972 79.1885C379.508 79.5267 379.668 79.2025 379.709 83.0722C378.912 84.6933 377.909 82.4464 376.945 83.7468C377.115 84.39 377.285 85.0332 377.452 85.3539C379.269 87.592 378.759 85.6624 379.279 88.5594C376.04 90.5292 373.553 86.6857 373.432 90.5572C373.463 93.4594 373.463 93.4594 372.336 94.7615C369.516 90.2766 370.501 90.9111 368.226 91.5805C367.612 95.1347 367.626 96.4246 365.992 96.1195C353.573 93.35 357.79 91.3698 352.109 93.6882C351.797 94.9816 351.967 95.6248 352.463 96.2645L352.459 95.942C351.228 102.728 352.64 97.5526 356.607 102.67C357.932 104.591 358.906 104.258 365.61 106.121C366.266 106.437 367.58 107.39 370.681 107.68C381.932 107.882 381.762 107.238 382.75 108.195C382.774 110.453 373.462 108.617 368.912 109.956C368.277 111.576 368.783 113.183 368.475 114.799C368.162 116.092 367.854 117.708 367.541 119.001C368.693 119.956 368.381 121.25 368.436 126.409C368.776 127.696 369.112 128.66 369.452 129.946C368.026 133.832 368.512 133.504 371.28 133.152C372.095 133.143 372.906 132.812 373.558 132.805C377.97 133.725 382.201 133.035 386.609 133.632C388.08 133.939 387.917 133.941 387.781 136.522C390.909 139.392 398.227 137.701 402.649 139.588C401.023 139.928 400.055 140.906 399.237 140.592C397.926 139.961 396.795 140.941 396.004 143.207C393.396 143.235 392.404 141.956 389.966 142.627C389.64 142.63 389.314 142.634 388.984 142.315C386.512 139.761 381.639 141.426 379.998 140.476C377.865 139.209 375.757 140.199 373.634 139.899C372.164 139.592 370.544 140.577 369.091 141.883C368.768 142.209 368.612 142.856 368.297 143.826C371.418 146.051 371.577 145.726 369.489 148.651C370.214 155.416 370.36 153.802 381.451 154.328C381.94 154.323 382.263 153.997 382.602 155.284C382.606 155.606 382.446 155.93 382.283 155.932C373.665 157.959 375.42 154.393 369.434 158.65C368.781 158.657 367.949 157.053 367.145 158.029C366.499 158.681 365.844 158.366 365.195 158.695C365.199 159.018 365.209 159.985 365.372 159.983C370.137 163.48 369.791 161.549 372.277 165.392C371.632 166.044 370.983 166.373 370.338 167.025C371.334 168.627 372.156 169.263 373.297 169.251C380.299 168.531 379.997 170.792 382.269 169.8C382.595 169.797 382.928 170.438 382.935 171.083C383.58 170.431 382.314 173.992 382.629 173.021ZM106.642 37.2985C106.809 37.6193 106.975 37.94 107.138 37.9382C108.116 37.9278 107.939 36.6396 108.262 36.3137C107.946 37.2846 107.284 36.3241 106.642 37.2985ZM78.2928 130.163C77.953 128.876 78.6257 130.804 78.9518 130.801C79.2778 130.797 79.4373 130.473 79.2674 129.83C79.0975 129.187 78.4524 129.839 78.2928 130.163ZM336.383 132.235C337.364 132.547 338.339 132.215 339.147 131.561C335.55 130.632 337.843 131.575 335.741 133.21C336.067 133.206 335.907 133.531 336.383 132.235ZM225.599 17.3185L225.592 16.6735C226.431 18.9221 228.377 17.9337 229.189 17.6025C227.881 17.294 226.737 16.9838 225.599 17.3185ZM25.2142 75.5822C24.7218 75.2649 24.3819 73.9785 23.7437 75.2754C24.4027 75.9134 24.8882 75.5857 25.2142 75.5822C25.0961 79.7761 29.6568 79.4047 29.681 81.662C29.6983 83.2744 30.0381 84.5608 30.6902 84.5538C32.9791 85.1743 35.1051 85.7965 37.3768 84.8047C37.5398 84.8029 37.6959 84.1562 37.8555 83.832C36.3573 80.9455 36.5307 81.9111 37.1689 80.6143C37.9701 79.3156 37.9667 78.9932 37.45 76.4186C29.7646 74.2434 27.8016 73.6194 25.2142 75.5822ZM348.901 98.5602L348.904 98.8827C348.235 97.2773 349.692 96.2942 349.511 94.6836C348.36 93.7284 347.368 92.449 346.38 91.492C344.746 91.187 342.318 92.8256 339.69 90.9187C339.197 90.6014 335.285 90.6433 332.351 90.6748C332.188 90.6765 332.028 91.0007 331.869 91.325C332.042 92.2906 332.052 93.2581 332.229 94.5462C329.153 96.5142 328.452 92.0066 321.932 92.0764C317.857 92.1201 313.626 92.8104 309.53 90.9193C306.596 90.9507 303.662 90.9821 300.898 91.6568C304.002 92.2685 306.44 91.5974 307.265 92.5561C308.913 94.151 310.05 93.8163 317.552 94.0584C320.812 94.0235 318.547 95.6603 323.597 95.2837C327.669 94.9176 327.214 98.1476 330.804 98.4316C331.456 98.4246 335.052 99.3536 335.354 97.0928C335.798 92.8954 337.106 93.2039 338.746 94.1539C338.122 96.7406 338.278 96.094 337.636 97.0684C337.477 97.3926 337.151 97.3961 337.161 98.3635C337.813 98.3565 338.468 98.672 339.283 98.6633C344.337 98.6091 346.341 103.103 348.901 98.5602ZM163.902 208.261C162.876 203.757 161.62 208.285 159.321 206.697C158.169 205.742 157.028 205.754 156.054 206.087C150.203 207.763 129.786 204.111 125.575 206.736C123.633 208.047 115.167 209.105 125.107 208.676C137.655 208.219 154.132 209.333 163.902 208.261ZM223.375 129.254C225.348 130.845 231.535 130.134 260.061 129.828C260.55 129.823 261.206 130.138 261.681 128.843C248.956 128.012 237.9 130.71 236.554 126.855C236.707 125.886 236.696 124.918 236.849 123.949C235.365 122.352 236.183 122.666 234.237 123.654C233.752 123.982 233.093 123.344 232.777 124.315C232.788 125.283 232.795 125.928 232.805 126.895C232.323 127.545 232.004 128.194 231.515 128.199C228.098 128.88 225.64 127.617 223.375 129.254ZM161.579 37.0325C161.731 36.0633 161.398 35.4219 161.072 35.4254C160.254 35.1116 159.272 34.7996 158.461 35.1308C157.001 35.7915 151.441 34.2385 147.702 35.2461C142.5 36.5919 141.019 35.3177 137.939 36.9632C143.669 39.1594 144.626 37.2141 147.255 39.121C149.388 40.3882 152.471 39.0651 156.876 39.3405C158.669 39.3212 160.129 38.6606 161.579 37.0325ZM323.588 48.8423C337.454 49.6612 322.607 48.5303 342.827 48.9587C347.72 49.2287 345.75 47.9598 348.677 47.2834C349.003 47.2799 349.003 47.2799 349.479 45.9848C348.99 45.99 348.497 45.6728 348.171 45.6763C329.429 46.1996 329.582 45.2304 323.588 48.8423ZM359.37 117.154C358.233 117.488 356.922 116.857 355.791 117.837C355.472 118.486 355.32 119.455 355 120.103C353.218 121.09 353.7 120.44 353.391 122.055C355.881 126.221 356.155 121.381 357.962 122.651C357.976 123.941 357.168 124.595 357.678 126.525C361.6 127.45 361.111 127.455 361.559 123.58C363.678 123.558 362.211 123.573 365.318 124.508C365.644 124.504 366.112 122.564 365.287 121.605C362.845 121.954 364.156 122.585 359.37 117.154ZM56.4783 117.819C59.2771 120.369 61.8713 119.051 64.6459 119.344C65.1245 118.371 65.7697 117.719 66.2483 116.746C68.3708 117.046 67.7119 116.408 69.2135 119.617C70.358 119.928 70.358 119.928 70.9997 118.953C70.9928 118.308 70.9893 117.986 70.8194 117.342C70.6253 114.442 72.935 116.997 74.2114 114.404C72.408 113.455 70.9444 113.794 64.7467 113.537C61.6496 113.571 61.039 117.447 57.6125 117.161C57.446 116.841 57.1269 117.489 56.4783 117.819ZM354.659 73.0202C355.838 76.5552 357.447 74.6029 358.935 76.522C360.111 79.7345 359.289 79.0983 362.722 80.029C363.52 78.4079 364.162 77.4335 364.963 76.1349C364.956 75.49 364.602 72.9137 363.784 72.5999C360.676 71.6657 357.746 72.0196 354.659 73.0202ZM353.765 50.454C353.276 50.4593 352.804 52.0769 352.981 53.365C353.165 55.2981 353.162 54.9756 361.315 55.2108C361.478 55.209 361.638 54.8848 361.96 54.5589C361.257 49.7287 362.241 50.3632 353.765 50.454ZM353.869 151.399C357.625 152.004 361.044 151.644 364.467 151.608C364.956 151.602 365.279 151.277 365.764 150.949C365.907 149.012 365.574 148.371 364.103 148.064C354.483 147.845 355.464 148.157 353.869 151.399ZM349.395 53.4034C349.059 52.4395 348.722 51.4756 348.233 51.4808C345.948 51.1828 343.829 51.2055 341.72 52.1956C341.234 52.5233 341.078 53.17 340.929 54.4617C340.783 56.0758 348.757 54.7003 348.757 54.7003C348.92 54.6986 349.239 54.0501 349.395 53.4034ZM82.0457 39.1746C78.4527 38.5681 75.0469 40.2171 71.6237 40.2538C58.4203 40.3953 65.471 44.1898 81.2411 40.1508C81.5671 40.1473 81.7232 39.5006 82.0457 39.1746ZM80.1245 118.533C80.128 118.855 80.1314 119.178 79.9719 119.502C80.4609 119.497 80.7904 119.816 81.2794 119.81C99.536 119.615 98.2354 119.951 98.5476 118.658C98.5476 118.658 80.7765 118.526 80.1245 118.533ZM370.594 190.888C373.212 191.828 373.365 190.859 374.513 191.491C376.479 192.438 378.266 191.774 380.052 191.11C380.215 191.108 380.211 190.785 380.371 190.461C377.257 188.882 374.142 187.303 370.882 187.338C370.265 190.569 370.417 189.6 370.594 190.888ZM125.062 37.1012C122.766 35.8358 122.454 37.1291 119.513 36.5156C115.268 35.9161 115.119 37.2077 112.823 35.9423C111.841 35.6303 110.863 35.6408 109.892 36.2962C109.892 36.2962 109.733 36.6204 109.736 36.9429C110.242 38.55 109.75 38.2328 123.928 37.7584C124.254 37.7549 124.576 37.4289 125.062 37.1012ZM123.019 211.601C125.308 212.222 139.174 213.041 139.645 211.423C136.541 210.811 127.576 210.908 123.019 211.601ZM355.122 192.344C351.859 192.057 353.166 192.365 350.537 190.458C349.715 189.822 348.755 191.445 344.978 188.905C344.156 188.269 343.011 187.959 342.21 189.257C342.391 190.868 342.883 191.185 343.372 191.18C345.658 191.478 348.592 191.447 349.903 192.078C352.199 193.343 352.199 193.343 355.122 192.344ZM330.963 113.265C337.011 114.813 338.475 114.475 339.761 112.849C339.429 112.207 339.259 111.564 338.933 111.567C336.64 110.624 334.362 110.971 331.923 111.643C331.434 111.648 331.112 111.974 330.963 113.265ZM268.035 219.723C269.672 220.351 278.512 223.803 280.281 221.527C274.874 219.005 277.489 219.622 268.035 219.723ZM71.4431 129.914C71.4397 129.591 71.4328 128.946 71.4328 128.946C70.7704 127.986 69.9519 127.672 69.2999 127.679C64.0872 128.057 64.715 125.793 61.486 128.73C61.486 128.73 61.3264 129.055 61.3333 129.7C64.7703 130.953 68.02 129.95 71.4431 129.914ZM59.1948 97.4714C58.0503 97.1611 56.9023 96.5284 56.2814 99.4376C55.9692 100.731 55.4698 99.7688 55.4975 102.349C55.5078 103.316 58.1159 103.288 59.4165 102.952C59.3716 98.7595 59.3889 100.372 59.1948 97.4714ZM164.735 118.594C162.935 117.968 153.959 117.097 152.506 118.402C153.005 119.365 160.67 119.605 164.735 118.594ZM66.726 54.8193C70.6451 55.4223 74.7237 55.7011 78.622 54.3693C74.5399 53.768 70.6278 53.8099 66.726 54.8193ZM317.107 113.414C306.99 112.555 306.99 112.555 306.023 113.533C308.641 114.472 310.597 114.451 317.107 113.414ZM332.579 188.071C332.749 188.714 332.756 189.359 332.759 189.681C335.385 191.266 337.962 188.335 339.28 189.611C339.443 189.61 339.599 188.963 339.762 188.961C339.595 188.64 339.422 187.675 339.422 187.675C336.654 188.027 336.318 187.063 332.579 188.071ZM260.148 214.002C261.456 214.311 262.763 214.619 264.064 214.283C265.527 213.945 266.849 215.543 268.312 215.205C269.45 214.87 269.453 215.193 269.12 214.551C266.006 212.972 263.228 212.357 260.148 214.002ZM56.5446 108.788C56.5515 109.433 56.392 109.757 56.3954 110.079L56.5653 110.722C59.4856 109.401 62.1041 110.341 63.8902 109.676C64.0532 109.675 64.199 108.061 63.7065 107.743C61.2476 106.48 64.5284 108.38 56.5446 108.788ZM199.618 209.491C205.652 209.749 203.37 209.773 208.58 209.072C205.476 208.46 202.545 208.814 199.618 209.491ZM35.9352 56.7617C33.9584 54.8478 32.7967 52.9252 31.0174 54.2343C30.5319 54.562 30.2162 55.5329 30.2266 56.5003C30.2404 57.7902 30.4034 57.7885 34.9641 57.4171C35.2901 57.4136 35.4497 57.0894 35.9352 56.7617ZM224.151 216.968C222.192 216.667 218.762 216.058 216.639 215.759C215.987 215.766 214.402 219.975 224.151 216.968ZM352.591 169.151C354.398 170.421 353.583 170.43 358.806 171.019C359.458 171.012 359.608 169.72 359.601 169.075C358.456 168.765 358.775 168.117 354.052 168.49C353.889 168.492 353.403 168.819 352.591 169.151ZM161.016 212.807C152.866 212.894 153.841 212.561 153.851 213.529C157.763 213.487 159.58 215.725 161.016 212.807ZM36.0769 69.9831C35.4179 69.3451 36.559 69.3329 29.8688 68.7596C27.2573 68.465 28.263 71.0344 28.263 71.0344C29.8965 71.3394 33.9682 70.9732 36.0769 69.9831ZM179.381 207.45C178.549 205.846 178.722 206.812 171.39 207.213C172.701 207.844 178.254 208.752 179.381 207.45ZM122.741 140.007C120.292 139.711 117.84 139.092 115.409 140.408C117.861 141.027 120.306 141.001 122.741 140.007ZM312.454 74.7624C312.829 79.2735 314.927 77.316 316.713 76.6518C317.039 76.6483 316.696 75.0395 316.53 74.7187C315.059 74.412 313.755 74.4259 312.454 74.7624ZM335.84 172.878C332.233 170.981 329.999 175.52 331.3 175.184C332.767 175.168 334.234 175.152 335.84 172.878ZM66.194 172.541C65.1987 170.939 64.2241 171.272 63.4021 170.636C61.4634 172.27 62.2749 171.938 60.1593 172.284C62.1188 172.585 64.0956 174.499 66.194 172.541ZM37.5687 57.0667C39.1953 56.7268 41.1583 57.3507 39.9689 52.8483C38.6649 52.8623 39.473 52.2086 37.5687 57.0667ZM105.175 37.3143C97.0215 37.0791 97.0319 38.0465 104.045 38.2939C104.208 38.2922 104.53 37.9662 105.175 37.3143ZM211.479 129.703C212.145 130.986 212.786 130.012 213.438 130.005C214.257 130.319 215.231 129.986 216.046 129.977C216.535 129.972 216.369 129.651 216.688 129.003C213.092 128.074 212.929 128.075 211.479 129.703ZM86.2738 114.274C88.5697 115.54 88.5697 115.54 91.001 114.224C90.8345 113.903 90.6681 113.582 90.3421 113.586C86.1039 113.631 86.7559 113.624 86.2738 114.274ZM56.8816 94.5935C58.6816 95.2193 58.6816 95.2193 59.6493 94.2414C58.98 92.636 58.1615 92.3223 57.1904 92.9777C57.0273 92.9794 57.0377 93.9468 56.8816 94.5935ZM151.888 212.905C150.251 212.277 148.944 211.969 147.327 213.276C148.964 213.903 150.272 214.212 151.888 212.905ZM317.883 48.9034C316.579 48.9173 315.428 47.9622 314.297 48.9418C315.438 48.9296 316.579 48.9173 317.883 48.9034ZM214.392 203.85C214.236 204.496 213.907 204.177 218.308 204.13C218.301 203.485 218.631 203.804 214.392 203.85ZM175.958 24.9455C176.125 25.2663 175.799 25.2698 178.896 25.2366C178.892 24.9141 179.381 24.9089 175.958 24.9455ZM262.06 27.2482C263.045 27.8827 264.182 27.548 265.16 27.5375C264.994 27.2168 265.32 27.2133 262.06 27.2482ZM50.987 61.7606C52.135 62.3933 53.1165 62.7053 54.2506 62.0481C54.4136 62.0464 54.4067 61.4015 54.5662 61.0772C54.7223 60.4305 53.0854 59.8031 51.4657 60.7879C51.3027 60.7897 51.1431 61.1139 50.987 61.7606ZM63.8909 94.5184C63.7071 92.5853 63.5407 92.2646 62.8852 91.9491C62.5592 91.9526 62.2332 91.9561 62.0805 92.9253C61.7683 94.2187 63.0896 95.8171 63.8909 94.5184ZM366.104 167.393C367.265 169.316 369.558 170.259 369.197 167.038C368.212 166.403 367.234 166.414 366.104 167.393ZM314.507 175.041C316.307 175.667 316.307 175.667 316.782 174.372C314.979 173.424 314.646 172.782 314.33 173.753C314.33 173.753 314.5 174.396 314.507 175.041ZM72.7032 186.662C72.7136 187.63 72.3876 187.633 73.865 188.585C74.5204 188.9 75.3355 188.891 75.4812 187.277C75.3113 186.634 75.8003 186.629 72.7032 186.662ZM172.756 213.004C173.897 212.991 174.875 212.981 176.016 212.969C175.035 212.657 174.057 212.667 173.079 212.678C172.916 212.679 172.916 212.679 172.756 213.004ZM278.093 215.1C280.725 217.33 280.399 217.333 280.881 216.683C280.045 214.757 280.045 214.757 278.093 215.1ZM229.302 119.515C230.28 119.504 231.102 120.14 232.07 119.163C231.085 118.528 230.27 118.537 229.302 119.515ZM371.559 83.1595C374.497 83.4505 374.011 83.7782 374.327 82.8073C373.342 82.1728 372.36 81.8609 371.559 83.1595ZM237.248 24.2889C238.067 24.6027 238.899 26.2063 239.531 24.2645C238.716 24.2732 237.901 24.2819 237.248 24.2889ZM181.392 212.589C180.574 212.275 179.096 211.323 178.462 212.942C179.453 214.222 180.261 213.568 181.392 212.589ZM145.531 212.973C145.524 212.328 145.853 212.647 143.571 212.671C143.741 213.314 143.412 212.995 145.531 212.973ZM275.957 30.9694C276.768 30.6382 277.431 31.5987 278.232 30.3C277.58 30.307 276.925 29.9915 275.957 30.9694ZM107.374 212.092C108.026 212.085 109.011 212.719 109.326 211.748C108.671 211.433 108.015 211.117 107.374 212.092ZM190.451 129.929C190.448 129.606 190.611 129.605 188.492 129.627C188.495 129.95 188.332 129.951 190.451 129.929ZM167.97 207.572C167.148 206.936 166.5 207.265 166.014 207.593C166.67 207.909 167.166 208.548 167.97 207.572ZM295.261 113.325C295.264 113.648 295.101 113.65 297.057 113.629C297.217 113.304 297.38 113.303 295.261 113.325ZM99.8033 114.129C98.6519 113.174 98.6519 113.174 97.6842 114.152C98.3466 115.112 99.1651 115.426 99.8033 114.129ZM183.474 26.4776C182.798 24.2272 182.333 26.4898 182.499 26.8105C183.155 27.126 183.151 26.8035 183.474 26.4776ZM332.365 76.8067C332.032 76.1652 331.54 75.848 331.061 76.8206C331.55 76.8154 332.039 76.8101 332.365 76.8067ZM329.547 133.276C330.532 133.911 330.532 133.911 331.01 132.938C330.518 132.621 330.022 131.981 329.547 133.276ZM69.917 48.3348C69.5807 47.3709 69.0882 47.0537 68.4465 48.0281C69.102 48.3436 69.591 48.3383 69.917 48.3348ZM21.5694 70.1385C21.5659 69.8161 21.3926 68.8504 20.7405 68.8574C19.922 68.5436 20.1023 70.1542 20.5913 70.149C20.9174 70.1455 21.2434 70.142 21.5694 70.1385ZM114.8 113.969C116.274 114.598 115.785 114.603 116.593 113.949C115.93 112.989 116.419 112.984 114.8 113.969ZM106.646 113.734C105.831 113.742 105.505 113.746 105.508 114.068C105.512 114.391 105.515 114.713 105.678 114.711C106.015 115.675 106.015 115.675 106.646 113.734ZM339.177 73.5086C339.669 73.8258 340.162 74.143 340.644 73.4929C340.148 72.8531 339.659 72.8584 339.177 73.5086ZM170.471 212.706C169.652 212.392 169.978 212.388 169.819 212.713C169.982 212.711 170.308 212.707 170.471 212.706ZM268.892 208.426C268.559 207.785 268.233 207.788 267.751 208.438C268.087 209.402 268.576 209.397 268.892 208.426ZM213.47 209.02C212.818 209.027 212.818 209.027 212.821 209.349C213.636 209.341 213.473 209.342 213.47 209.02ZM366.285 153.846C366.122 153.848 365.789 153.206 365.636 154.175C366.291 154.491 366.291 154.491 366.285 153.846ZM55.9466 144.27C56.6055 144.908 56.4425 144.91 56.9212 143.937C56.5952 143.941 56.7582 143.939 55.9466 144.27ZM127.798 140.275C128.456 140.913 128.293 140.915 128.613 140.267C128.446 139.946 128.606 139.622 127.798 140.275ZM198.654 119.521C198.98 119.517 198.817 119.519 198.654 119.521C198.817 119.519 198.98 119.517 198.654 119.521ZM195.231 119.557C195.557 119.554 195.394 119.555 195.231 119.557C195.394 119.555 195.557 119.554 195.231 119.557ZM115.181 119.125C114.848 118.483 114.522 118.487 114.203 119.135C114.692 119.13 114.855 119.128 115.181 119.125ZM76.164 114.06C76.1675 114.383 76.001 114.062 76.816 114.053C76.816 114.053 76.816 114.053 76.164 114.06ZM84.8203 39.4674C84.0018 39.1537 84.1648 39.1519 83.8388 39.1554C84.1717 39.7969 84.3382 40.1176 84.8203 39.4674ZM324.846 74.9521C324.52 74.9556 324.683 74.9539 324.846 74.9521C324.683 74.9539 324.52 74.9556 324.846 74.9521ZM48.8928 48.8826C48.8962 49.2051 48.7332 49.2068 48.7367 49.5293C48.6048 52.4333 49.4025 50.8122 48.8928 48.8826ZM309.12 98.3414C308.302 98.0277 308.628 98.0242 308.305 98.3501C308.631 98.3466 308.957 98.3431 309.12 98.3414ZM311.729 98.3135C311.403 98.317 311.566 98.3152 311.729 98.3135C311.566 98.3152 311.403 98.317 311.729 98.3135ZM174.006 25.289C173.68 25.2925 173.68 25.2925 174.006 25.289V25.289ZM74.6621 34.7386C74.3326 34.4196 74.4957 34.4178 74.4991 34.7403L74.6621 34.7386ZM92.6273 37.7712C92.4643 37.7729 92.4643 37.7729 92.6273 37.7712V37.7712ZM278.78 35.7769C279.106 35.7734 279.106 35.7734 278.78 35.7769V35.7769ZM45.2266 56.6621L45.2231 56.3397C44.8971 56.3432 44.9005 56.6656 45.067 56.9864C45.067 56.9864 45.0635 56.6639 45.2266 56.6621ZM23.196 69.7986C22.8734 70.1246 22.8734 70.1246 23.1994 70.1211L23.196 69.7986ZM67.5853 74.1607C67.2593 74.1642 67.2628 74.4867 67.4292 74.8074C67.4292 74.8074 67.5922 74.8056 67.7552 74.8039C67.7518 74.4814 67.7518 74.4814 67.5853 74.1607ZM70.0304 74.1345L70.0339 74.457C70.3633 74.7759 70.6824 74.1275 70.19 73.8103C70.1934 74.1327 70.1934 74.1327 70.0304 74.1345ZM351.239 73.3793C351.562 73.0534 351.565 73.3758 351.239 73.3793V73.3793ZM322.405 75.3008C322.405 75.3008 322.401 74.9783 322.238 74.9801C321.912 74.9836 321.916 75.3061 322.079 75.3043C322.242 75.3026 322.405 75.3008 322.405 75.3008ZM327.312 76.8608C326.983 76.5418 326.983 76.5418 326.986 76.8643L327.312 76.8608ZM352.411 76.2694C352.741 76.5884 352.741 76.5884 352.738 76.2659L352.411 76.2694ZM363.825 91.6276C363.821 91.3052 363.818 90.9827 363.492 90.9862L363.332 91.3104C363.495 91.3086 363.658 91.3069 363.825 91.6276ZM103.226 114.093C102.897 113.774 103.06 113.772 102.737 114.098C103.067 114.417 102.904 114.419 103.226 114.093ZM73.4482 119.249C73.7742 119.246 73.7708 118.923 73.4447 118.927C73.4447 118.927 73.2817 118.929 73.1187 118.93C73.2852 119.251 73.2852 119.251 73.4482 119.249ZM190.989 119.28C190.993 119.603 190.993 119.603 191.319 119.599L190.989 119.28ZM236.797 119.112C236.797 119.112 236.794 118.789 236.631 118.791C236.305 118.795 236.308 119.117 236.475 119.438C236.638 119.436 236.801 119.434 236.797 119.112ZM360.844 132.941C360.514 132.622 360.514 132.622 360.518 132.944L360.844 132.941ZM125.186 139.981C125.359 140.946 126.001 139.972 125.512 139.977C125.349 139.979 125.349 139.979 125.186 139.981ZM366.021 144.496C366.517 145.136 366.507 144.168 366.181 144.172L366.021 144.496ZM174.756 156.22C174.43 156.224 174.43 156.224 174.597 156.545C174.597 156.545 174.76 156.543 174.756 156.22ZM53.1887 160.748C52.8661 161.074 52.8627 160.751 53.1922 161.07L53.1887 160.748ZM326.403 159.433C326.573 160.076 326.41 160.078 326.733 159.752C326.726 159.107 326.892 159.428 326.403 159.433ZM337.616 171.246C337.612 170.924 337.612 170.924 337.286 170.927L337.616 171.246ZM342.194 172.487C341.868 172.491 341.871 172.813 342.038 173.134C342.038 173.134 342.201 173.132 342.364 173.13C342.36 172.808 342.194 172.487 342.194 172.487ZM78.6308 176.923C78.6342 177.246 78.6342 177.246 78.7972 177.244L78.6308 176.923ZM359.267 198.75C359.273 199.395 359.107 199.074 359.596 199.069L359.267 198.75ZM104.395 207.931C104.71 206.96 104.218 206.643 104.228 207.61C104.069 207.934 104.232 207.933 104.395 207.931ZM264.165 208.477C263.835 208.158 263.835 208.158 263.842 208.803C264.168 208.799 264.005 208.801 264.165 208.477ZM311.037 216.36C311.36 216.034 311.363 216.356 311.037 216.36V216.36ZM266.078 219.744C266.085 220.389 265.919 220.068 266.408 220.063L266.078 219.744ZM125.824 229.954C125.99 230.275 125.99 230.275 125.987 229.953L125.824 229.954ZM303.521 214.828C303.355 214.507 303.355 214.507 303.358 214.829L303.521 214.828ZM355.631 133.319C355.787 132.673 355.791 132.995 355.624 132.674L355.631 133.319ZM368.293 67.3914C368.137 68.0381 368.133 67.7157 368.459 67.7122L368.293 67.3914ZM50.2037 49.5136C50.0476 50.1603 50.0442 49.8378 50.2072 49.8361L50.2037 49.5136Z" fill="#ECB942"/>
<path d="M32.0895 215.156C32.5578 213.216 32.7208 213.214 43.6422 213.097C45.1092 213.081 49.0248 213.362 49.0248 213.362C53.2906 215.896 58.812 213.902 61.2744 215.488C61.1321 217.425 60.1403 216.145 59.8315 217.761C60.161 218.08 60.3275 218.401 60.6535 218.397C64.5622 218.033 65.6928 217.053 66.5286 218.979C65.8904 220.276 65.0719 219.962 64.2569 219.971C61.3159 219.358 58.2326 220.681 55.2916 220.067C51.8581 219.137 50.5851 222.053 45.695 222.105C41.9458 222.145 40.6418 222.159 38.8729 224.436C38.5573 225.407 38.4184 227.666 37.4369 227.354C33.348 226.108 29.3005 228.731 28.4751 227.772C28.1284 225.841 28.7631 224.222 29.0684 222.283C29.547 221.311 30.1852 220.014 30.8269 219.039C31.3056 218.067 31.6108 216.128 32.0895 215.156C32.2629 216.121 32.1102 217.091 32.6061 217.73C33.0952 217.725 33.5911 218.365 34.0732 217.715C33.4108 216.754 32.7484 215.794 32.0895 215.156ZM36.3553 217.69C38.9599 217.34 39.6327 219.268 42.7021 216.655C42.8651 216.653 42.8582 216.008 42.8513 215.363C35.8386 215.116 36.8201 215.427 36.3553 217.69Z" fill="#ECB942"/>
<path d="M348.993 228.854C352.565 227.525 352.423 229.462 353.886 229.124C355.835 228.458 359.283 230.678 360.094 230.347C361.065 229.692 362.061 231.294 363.032 230.638C364.003 229.983 365.817 231.898 367.287 232.205C368.265 232.195 369.254 233.152 370.239 233.786C370.405 234.107 370.575 234.75 370.748 235.716C367.859 239.939 364.381 234.816 359.504 236.159C352.027 238.174 328.679 234.876 325.402 233.299C325.395 232.654 325.388 232.009 325.544 231.362C327.327 230.376 333.354 229.989 338.262 231.549C343.499 233.428 344.962 233.089 346.731 230.813C346.561 230.17 346.908 232.101 347.563 232.416C350.338 232.709 348.861 231.758 349.852 233.037C349.852 233.037 350.015 233.035 350.012 232.713C349.35 231.752 349.683 232.394 348.993 228.854Z" fill="#ECB942"/>
<path d="M56.8953 19.7709C57.5369 18.7965 58.3554 19.1103 59.1704 19.1015C65.6976 19.6766 90.759 15.538 105.426 15.0584C106.078 15.0514 106.73 15.0444 107.392 16.0048C107.233 16.329 107.233 16.329 107.073 16.6533C95.5483 21.2919 94.6884 17.1085 91.7819 19.7197C55.7853 22.6854 57.7414 22.6645 56.8953 19.7709Z" fill="#ECB942"/>
<path d="M141.131 15.3208C140.979 16.29 140.826 17.2591 140.663 17.2609C140.177 17.5886 139.532 18.2405 139.04 17.9233C136.092 16.6648 133.172 17.9862 130.397 17.6934C127.622 17.4006 124.855 17.7527 122.084 17.7824C120.128 17.8034 118.643 16.2067 114.422 17.8645C114.096 17.868 112.626 17.5612 112.619 16.9163C112.567 12.0792 114.374 13.3499 131.982 13.4838C137.202 13.7503 138.658 12.7672 141.131 15.3208Z" fill="#ECB942"/>
<path d="M371.172 229.584C374.439 230.194 377.876 231.447 381.156 233.347C381.483 233.343 381.656 234.309 381.985 234.628C382.145 234.304 382.471 234.3 379.547 235.299C380.556 238.191 381.853 237.532 383.005 238.487C384.156 239.442 385.297 239.43 386.442 239.74C386.622 241.351 386.303 241.999 385.984 242.648C385.051 246.85 388.002 248.431 376.516 241.459C375.531 240.825 374.542 239.868 373.557 239.233C373.197 236.012 373.533 236.976 372.212 235.378C372.202 234.41 371.716 234.738 374.969 234.058C373.964 231.489 372.989 231.822 371.345 230.549C371.182 230.551 371.328 228.937 371.172 229.584Z" fill="#ECB942"/>
<path d="M372.058 23.1671C370.771 24.7935 364.261 25.8307 364.261 25.8307C363.782 26.8034 363.463 27.4518 363.144 28.1003C362.492 28.1073 362.149 26.4984 361.327 25.8622C355.455 25.6026 354.325 26.5822 350.704 23.3959C350.687 21.7835 350.846 21.4593 351.335 21.4541C351.987 21.4471 367.31 21.2829 367.31 21.2829C371.059 21.2428 371.728 22.8481 372.058 23.1671Z" fill="#ECB942"/>
<path d="M388.211 146.193C386.584 146.533 384.958 146.873 383.168 147.215C383.366 150.438 387.094 148.463 388.426 151.029C386.49 152.984 378.656 152.101 375.867 150.518C373.409 149.254 373.592 151.187 372.42 148.297C371.082 145.087 376.624 145.027 378.576 144.684C381.833 144.326 385.093 144.291 388.211 146.193ZM376.977 147.604C377.647 149.209 378.455 148.555 379.1 147.903C378.271 146.622 377.616 146.307 376.977 147.604Z" fill="#ECB942"/>
<path d="M378.653 60.5077C377.99 59.5473 377.324 58.2644 376.669 57.9489C375.687 57.6369 375.233 60.8669 374.248 60.2324C373.919 59.9134 373.919 59.9134 373.894 57.6561C372.587 57.3476 371.446 57.3598 370.489 59.3052C368.678 57.712 367.863 57.7207 368.491 55.4564C374.512 54.4244 382.017 54.989 383.651 55.294C383.82 55.9372 383.987 56.2579 383.994 56.9029C384.174 58.5135 381.885 57.893 383.394 61.747C383.061 61.1055 383.727 62.3884 382.114 64.0183C380.806 63.7098 379.332 63.0805 378.025 62.772C378.5 61.4769 378.961 58.8919 378.653 60.5077Z" fill="#ECB942"/>
<path d="M180.936 17.797C179.618 16.5211 179.618 16.5211 179.271 14.5897C180.898 14.2498 203.715 13.6828 207.148 14.6136C202.612 17.2423 205.047 16.2486 201.457 15.9646C191.018 15.4314 188.424 16.7492 184.015 16.1514C182.878 16.4861 181.903 16.8191 180.936 17.797Z" fill="#ECB942"/>
<path d="M33.3562 196.436C32.8326 193.217 31.0292 192.269 46.532 193.715C46.8683 194.679 46.5492 195.328 46.2232 195.331C43.7885 196.325 35.3226 197.383 33.3562 196.436Z" fill="#ECB942"/>
<path d="M333.278 222.894C336.677 220.6 337.201 223.82 338.005 222.844C339.941 220.888 343.381 222.463 347.47 223.71C347.633 223.708 347.64 224.353 347.81 224.996C347.331 225.969 336.566 225.439 333.615 223.858C333.452 223.86 333.445 223.215 333.278 222.894Z" fill="#ECB942"/>
<path d="M32.1868 209.027C32.9984 208.696 33.647 208.366 34.4585 208.035C34.4585 208.035 35.7039 202.539 36.5707 207.367C37.7187 208 38.8562 207.665 39.8308 207.332C42.4286 206.337 47.8043 205.957 49.2851 207.231C43.7671 209.548 37.9128 210.901 32.1868 209.027Z" fill="#ECB942"/>
<path d="M215.823 2.58771C220.741 5.11511 225.631 5.06272 200.691 5.32991C201.329 4.03303 201.825 4.67274 202.314 4.6675C214.047 4.21929 211.286 5.2164 215.823 2.58771Z" fill="#ECB942"/>
<path d="M390.761 216.796C390.632 220.022 389.973 219.384 385.225 217.5C380.644 215.937 380.311 215.295 379.808 214.011C380.276 212.07 380.294 213.683 387.313 214.575C388.454 214.563 389.602 215.196 390.761 216.796Z" fill="#ECB942"/>
<path d="M142.782 17.2382C143.587 16.262 144.409 16.8983 145.383 16.5653C146.028 15.9134 146.996 14.9355 147.638 13.9611C155.146 14.8482 155.143 14.5257 154.997 16.1398C155 16.4623 154.355 17.1142 154.192 17.116C149.784 16.5182 149.815 19.4204 146.708 18.4862C145.56 17.8535 144.256 17.8674 142.782 17.2382Z" fill="#ECB942"/>
<path d="M331.822 223.877C330.871 226.468 330.188 223.572 327.913 224.242C327.101 224.573 326.13 225.228 325.312 224.915C323.675 224.287 322.048 224.627 320.408 223.677C318.109 222.089 325.44 221.688 331.645 222.589C331.811 222.91 331.815 223.232 331.822 223.877Z" fill="#ECB942"/>
<path d="M400.086 158.966C404.469 157.307 405.125 157.622 406.935 159.215C406.942 159.86 406.952 160.828 406.796 161.475C406.495 163.735 405.017 162.784 404.851 162.463C403.682 159.895 402.215 159.911 400.086 158.966Z" fill="#ECB942"/>
<path d="M188.955 5.45566C189.721 0.932299 190.571 4.1483 198.239 4.71117C194.826 5.71527 191.081 6.07791 188.955 5.45566Z" fill="#ECB942"/>
<path d="M284.85 24.1015C283.892 26.0468 282.88 22.8325 281.59 24.1364C280.944 24.7883 280.119 23.8296 279.311 24.4833C279.311 24.4833 278.808 23.1986 279.294 22.8709C280.591 22.212 284.815 20.8767 284.85 24.1015Z" fill="#ECB942"/>
<path d="M69.4489 217.658C70.3993 215.068 74.0199 218.254 77.0859 215.319C77.4085 214.993 77.5957 217.248 76.6246 217.904C75.3274 218.563 74.0096 217.287 70.9263 218.61C70.6003 218.613 69.9482 218.62 69.4489 217.658Z" fill="#ECB942"/>
<path d="M291.689 23.3832C292.646 21.4378 295.095 21.7341 296.409 22.6876C296.572 22.6858 296.909 23.6497 297.079 24.2929C296.274 25.2691 295.452 24.6329 294.803 24.9623C294.155 25.2918 293.489 24.0089 292.997 23.6917C292.501 23.0519 292.012 23.0572 291.689 23.3832Z" fill="#ECB942"/>
<path d="M32.9871 146.774C32.0263 148.397 29.4044 147.135 27.9201 145.538C27.7571 145.54 27.4173 144.253 27.9028 143.926C29.037 143.268 30.3617 145.189 31.4924 144.21C31.9883 144.849 32.8034 144.841 32.9871 146.774Z" fill="#ECB942"/>
<path d="M232.477 4.98937C235.016 -1.48804 237.846 3.96432 236.875 4.61975C235.907 5.59765 236.719 5.26644 232.477 4.98937Z" fill="#ECB942"/>
<path d="M25.5375 227.481C24.5699 228.459 23.7445 227.5 22.7526 226.221C24.5318 224.912 24.8579 224.908 25.5375 227.481Z" fill="#ECB942"/>
<path d="M383.785 235.254C386.227 234.905 386.39 234.903 387.392 237.15C386.095 237.809 386.095 237.809 383.785 235.254Z" fill="#ECB942"/>
<path d="M90.8723 208.721C89.1069 211.32 89.2734 211.64 88.4342 209.392C88.4238 208.424 88.5765 207.455 88.5626 206.165C88.5523 205.198 89.0378 204.87 89.2043 205.191C89.8701 206.474 90.3695 207.436 90.8723 208.721Z" fill="#ECB942"/>
<path d="M383.268 171.724C384.398 170.745 383.902 170.105 386.229 174.273C385.095 174.93 384.117 174.94 383.132 174.306C382.969 174.308 382.799 173.665 382.633 173.344C382.633 173.344 382.314 173.992 383.268 171.724Z" fill="#ECB942"/>
<path d="M20.6336 226.244C20.4913 228.18 20.4913 228.18 20.0057 228.508C19.1907 228.517 18.5283 227.556 18.185 225.947C18.9966 225.616 19.8047 224.963 20.6336 226.244Z" fill="#ECB942"/>
<path d="M39.1132 201.212C35.0415 201.579 35.534 201.896 35.3571 200.608C35.1872 199.964 36.1687 200.276 39.1063 200.567C39.1063 200.567 39.1097 200.89 39.1132 201.212Z" fill="#ECB942"/>
<path d="M274.733 23.2423C276.183 21.6142 276.346 21.6124 277.348 23.8593C275.905 26.1323 274.397 22.2783 274.733 23.2423Z" fill="#ECB942"/>
<path d="M333.738 22.2876C334.702 20.9873 336.342 21.9372 335.697 22.5891C335.374 22.9151 335.059 23.886 334.57 23.8913C334.244 23.8948 333.751 23.5775 333.738 22.2876Z" fill="#ECB942"/>
<path d="M30.1793 112.94C30.8175 111.643 31.6394 112.279 32.2983 112.917C32.5028 116.785 31.511 115.506 30.1793 112.94Z" fill="#ECB942"/>
<path d="M343.659 217.945C340.236 217.982 340.888 217.975 340.558 217.656C340.877 217.008 340.225 217.015 343.655 217.623C343.818 217.621 343.818 217.621 343.659 217.945Z" fill="#ECB942"/>
<path d="M371.168 229.261C370.044 230.886 370.696 230.879 367.249 228.658C368.879 228.64 370.01 227.661 371.168 229.261Z" fill="#ECB942"/>
<path d="M68.8741 194.443C67.5873 196.07 67.2717 197.041 66.5851 193.823C68.3505 191.224 68.7215 195.413 68.8741 194.443Z" fill="#ECB942"/>
<path d="M87.9935 213.912C88.4687 212.617 89.1207 212.61 89.6132 212.927C89.7762 212.925 89.7831 213.57 89.9496 213.891C90.1195 214.534 88.8155 214.548 88.4894 214.551C88.3264 214.553 88.1565 213.91 87.9935 213.912Z" fill="#ECB942"/>
<path d="M46.282 33.4301C45.4669 33.4388 44.3328 34.096 44.6415 32.4801C44.9537 31.1867 45.9352 31.4987 46.282 33.4301Z" fill="#ECB942"/>
<path d="M52.8961 194.292C52.5874 195.908 51.2868 196.244 51.2764 195.277C51.273 194.954 51.2695 194.632 51.4325 194.63C51.9112 193.658 51.9112 193.658 52.8961 194.292Z" fill="#ECB942"/>
<path d="M386.351 170.401C386.656 168.463 387.475 168.777 387.482 169.422C387.485 169.744 387.492 170.389 387.332 170.713C387.173 171.038 386.687 171.365 386.351 170.401Z" fill="#ECB942"/>
<path d="M372.282 211.511C371.63 211.518 370.978 211.525 370.326 211.532C370.149 210.244 370.638 210.239 370.801 210.237C372.598 210.54 371.963 212.159 372.282 211.511Z" fill="#ECB942"/>
<path d="M334.66 17.1176C334.015 17.7695 333.526 17.7747 332.867 17.1368C333.512 16.4849 334.164 16.4779 334.66 17.1176Z" fill="#ECB942"/>
<path d="M90.6355 232.267C89.165 231.96 89.3315 232.28 89.3245 231.636C90.7916 231.62 90.4656 231.623 90.6355 232.267Z" fill="#ECB942"/>
<path d="M225.957 5.05923C224.649 4.75073 224.812 4.74898 224.812 4.74898C226.117 4.73501 225.954 4.73676 225.957 5.05923Z" fill="#ECB942"/>
<path d="M349.77 225.298C350.262 225.615 350.109 226.584 349.78 226.265C349.454 226.269 349.287 225.948 349.444 225.301C349.607 225.299 349.77 225.298 349.77 225.298Z" fill="#ECB942"/>
<path d="M190.041 228.621C190.027 227.332 189.864 227.333 190.516 227.326L190.523 227.971C190.364 228.295 190.204 228.62 190.041 228.621Z" fill="#ECB942"/>
<path d="M387.722 222.311C387.719 221.989 387.715 221.666 387.878 221.664C388.201 221.338 388.364 221.337 388.693 221.656C389.026 222.297 388.392 223.916 387.722 222.311Z" fill="#ECB942"/>
<path d="M390.568 183.579C390.89 183.253 390.727 183.255 391.386 183.893C391.071 184.864 390.901 184.221 390.568 183.579Z" fill="#ECB942"/>
<path d="M376.203 75.3695C376.36 74.7228 375.066 75.7042 374.227 73.4556C373.748 74.4282 375.527 73.1191 376.203 75.3695Z" fill="#ECB942"/>
<path d="M319.41 24.0537C319.084 24.0572 318.908 22.769 319.4 23.0863C319.563 23.0845 319.729 23.4052 319.896 23.726C319.896 23.726 319.573 24.0519 319.41 24.0537Z" fill="#ECB942"/>
<path d="M30.8489 23.2751C30.3668 23.9252 30.6963 24.2442 30.0339 23.2838C30.6824 22.9543 30.5194 22.9561 30.8489 23.2751Z" fill="#ECB942"/>
<path d="M336.786 17.7398C337.938 18.695 336.152 19.3592 336.464 18.0658C336.627 18.064 336.79 18.0623 336.786 17.7398Z" fill="#ECB942"/>
<path d="M169.491 14.6945C169.82 15.0135 170.15 15.3325 169.99 15.6567C169.518 17.2743 168.523 15.6724 168.842 15.024C169.005 15.0222 169.328 14.6962 169.491 14.6945Z" fill="#ECB942"/>
<path d="M324.247 232.021C324.257 232.989 323.935 233.315 323.591 231.706C323.591 231.706 323.751 231.382 323.747 231.059C323.914 231.38 324.08 231.701 324.247 232.021Z" fill="#ECB942"/>
<path d="M171.783 15.6374L171.617 15.3167C171.78 15.315 171.776 14.9925 171.939 14.9907C172.106 15.3115 172.109 15.6339 171.783 15.6374Z" fill="#ECB942"/>
<path d="M7.93357 45.1288C8.09657 45.127 8.09312 44.8045 8.25613 44.8028C8.7486 45.12 8.43295 46.0909 8.10003 45.4495C7.93702 45.4512 7.93702 45.4512 7.93357 45.1288Z" fill="#ECB942"/>
<path d="M380.547 130.795C380.873 130.791 380.869 130.469 380.876 131.114L380.547 130.795Z" fill="#ECB942"/>
<path d="M382.832 131.093C382.669 131.094 382.673 131.417 382.506 131.096C382.34 130.775 382.34 130.776 382.666 130.772C382.829 130.77 382.829 130.77 382.832 131.093Z" fill="#ECB942"/>
<path d="M391.03 150.678C391.034 151.001 391.034 151.001 390.708 151.004L391.03 150.678Z" fill="#ECB942"/>
<path d="M53.8678 178.479C52.9071 180.102 53.2296 179.776 52.7303 178.813C53.0528 178.487 52.7268 178.491 53.8678 178.479Z" fill="#ECB942"/>
<path d="M49.3065 194.008C49.3065 194.008 49.31 194.33 49.473 194.329C49.31 194.33 49.3134 194.653 49.1504 194.655C48.984 194.334 49.1435 194.01 49.3065 194.008Z" fill="#ECB942"/>
<path d="M91.9791 205.484C91.6526 205.487 91.8159 205.485 91.8124 205.163L91.9791 205.484Z" fill="#ECB942"/>
<path d="M79.1923 214.007C78.8614 213.687 78.8614 213.687 79.1923 214.007V214.007Z" fill="#ECB942"/>
<path d="M374.901 212.451C374.734 212.129 374.571 212.131 374.901 212.451V212.451Z" fill="#ECB942"/>
<path d="M322.77 215.912L322.774 216.234C322.451 216.56 322.447 216.238 322.281 215.917C322.604 215.591 322.441 215.593 322.77 215.912Z" fill="#ECB942"/>
<path d="M298.482 231.33C298.152 231.011 298.152 231.011 298.478 231.007L298.482 231.33Z" fill="#ECB942"/>
<path d="M306.975 232.851C307.131 232.205 306.968 232.206 307.298 232.525C307.305 233.17 307.468 233.169 306.975 232.851Z" fill="#ECB942"/>
<path d="M381.822 234.63C381.985 234.628 381.989 234.95 382.152 234.949C381.663 234.954 381.982 234.305 381.822 234.63Z" fill="#ECB942"/>
<path d="M346.887 230.166C347.044 229.519 347.044 229.519 346.887 230.166V230.166Z" fill="#ECB942"/>
<path d="M89.7756 228.083C89.9455 228.726 89.9455 228.726 89.6195 228.73L89.7756 228.083Z" fill="#ECB942"/>
<path d="M93.2689 219.339C93.1018 219.017 93.1018 219.017 93.2689 219.339V219.339Z" fill="#ECB942"/>
<path d="M372.119 211.513C372.45 211.833 372.45 211.833 372.119 211.513V211.513Z" fill="#ECB942"/>
<path d="M348.626 209.829C348.3 209.833 348.137 209.835 348.293 209.188L348.456 209.186C348.626 209.829 348.633 210.474 348.626 209.829Z" fill="#ECB942"/>
<path d="M26.9545 207.47C26.9614 208.115 27.1221 207.791 26.7938 207.795L26.9545 207.47Z" fill="#ECB942"/>
<path d="M26.2602 112.337C26.4274 112.658 26.4308 112.98 26.2602 112.337V112.337Z" fill="#ECB942"/>
<path d="M24.3012 112.036C24.1445 112.682 24.1445 112.682 24.3012 112.036V112.036Z" fill="#ECB942"/>
<path d="M352.799 97.2284C352.796 96.9059 352.955 96.5817 352.955 96.5817C353.118 96.5799 353.122 96.9024 352.799 97.2284Z" fill="#ECB942"/>
<path d="M383.397 62.0704C383.557 61.7449 383.557 61.7449 383.397 62.0704V62.0704Z" fill="#ECB942"/>
<path d="M291.522 23.0624C291.367 23.7091 291.685 23.0607 291.522 23.0624V23.0624Z" fill="#ECB942"/>
<path d="M287.784 24.07C287.777 23.425 287.614 23.4268 287.944 23.7458L287.784 24.07Z" fill="#ECB942"/>
<path d="M234.602 127.198C234.761 126.874 234.754 126.229 234.914 125.905C235.392 124.932 235.746 127.508 235.094 127.515C234.934 127.84 234.768 127.519 234.602 127.198Z" fill="#ECB942"/>
</g>
<defs>
<clipPath id="clip0_7_30">
<rect width="405.255" height="246.062" fill="white" transform="translate(0 4.57739) rotate(-0.613813)"/>
</clipPath>
</defs>
</svg>
