<svg width="82" height="81" viewBox="0 0 82 81" fill="none" xmlns="http://www.w3.org/2000/svg">
<g clip-path="url(#clip0_7_0)">
<path d="M12.6914 9.55884C12.6892 9.55884 12.6867 9.55884 12.6845 9.55884C11.9185 9.55884 11.1979 9.85748 10.6538 10.4002C10.1037 10.9489 9.80072 11.6796 9.80072 12.4574V55.9207C9.80072 57.5145 11.1025 58.8144 12.7028 58.8185C19.4496 58.8346 30.7531 60.2407 38.5509 68.401V22.9154C38.5509 22.3752 38.4129 21.8676 38.1525 21.4476C31.7523 11.1407 19.4534 9.57466 12.6914 9.55884Z" fill="#97BC59"/>
<path d="M71.8011 55.9207V12.4571C71.8011 11.6793 71.4981 10.9487 70.948 10.3999C70.4039 9.8572 69.6828 9.55856 68.9176 9.55856C68.9151 9.55856 68.9127 9.55856 68.9105 9.55856C62.1487 9.57465 49.8498 11.1407 43.4494 21.4476C43.1889 21.8676 43.0512 22.3752 43.0512 22.9154V68.4008C50.8491 60.2405 62.1525 58.8343 68.8993 58.8182C70.4994 58.8141 71.8011 57.5143 71.8011 55.9207Z" fill="#97BC59"/>
<path d="M78.4028 19.5822H76.3012V55.9207C76.3012 59.9901 72.9856 63.3084 68.91 63.3185C63.1873 63.3321 53.7514 64.4511 47.0688 70.776C58.6265 67.9461 70.8103 69.7857 77.754 71.3681C78.621 71.5655 79.5169 71.3615 80.2115 70.8079C80.9037 70.2556 81.3008 69.43 81.3008 68.544V22.4802C81.3011 20.8822 80.0007 19.5822 78.4028 19.5822Z" fill="#97BC59"/>
<path d="M5.30047 55.9207V19.5822H3.19882C1.60118 19.5822 0.300812 20.8822 0.300812 22.4802V68.5431C0.300812 69.4295 0.697904 70.2548 1.39009 70.8071C2.08418 71.3604 2.97928 71.5652 3.84764 71.3672C10.7913 69.7846 22.9754 67.9453 34.5326 70.7751C27.8502 64.4506 18.4143 63.3318 12.6917 63.3182C8.61629 63.3084 5.30047 59.9901 5.30047 55.9207Z" fill="#97BC59"/>
<path d="M24.5464 22.71V21.48C24.3731 21.48 24.1997 21.5133 24.0264 21.58C23.8531 21.6467 23.7164 21.7667 23.6164 21.94C23.5164 22.1133 23.4664 22.32 23.4664 22.56C23.4664 22.78 23.5197 22.9633 23.6264 23.11C23.7397 23.2567 23.8931 23.33 24.0864 23.33C24.2797 23.33 24.4431 23.2567 24.5764 23.11C24.5564 22.99 24.5464 22.8567 24.5464 22.71ZM26.7264 23.44H26.8964V23.62C26.7231 23.7733 26.5497 23.8867 26.3764 23.96C26.2031 24.0333 25.9764 24.07 25.6964 24.07C25.4831 24.07 25.2831 24.0167 25.0964 23.91C24.9164 23.8033 24.7764 23.64 24.6764 23.42C24.5097 23.6133 24.2964 23.77 24.0364 23.89C23.7831 24.01 23.4997 24.07 23.1864 24.07C22.7597 24.07 22.4231 23.9433 22.1764 23.69C21.9364 23.4367 21.8164 23.1233 21.8164 22.75C21.8164 22.4167 21.9064 22.13 22.0864 21.89C22.2731 21.65 22.5331 21.4633 22.8664 21.33C23.2064 21.19 23.5964 21.12 24.0364 21.12C24.2297 21.12 24.3997 21.13 24.5464 21.15V20.65C24.5464 20.33 24.5431 20.08 24.5364 19.9C24.5297 19.7133 24.5031 19.5667 24.4564 19.46C24.4097 19.3533 24.3464 19.27 24.2664 19.21C24.1864 19.15 24.0631 19.12 23.8964 19.12C23.7697 19.12 23.6431 19.15 23.5164 19.21C23.3964 19.2633 23.3064 19.3333 23.2464 19.42C23.3197 19.4867 23.3797 19.5733 23.4264 19.68C23.4731 19.7867 23.4964 19.89 23.4964 19.99C23.4964 20.2033 23.4264 20.3867 23.2864 20.54C23.1531 20.6867 22.9764 20.76 22.7564 20.76C22.5497 20.76 22.3731 20.69 22.2264 20.55C22.0864 20.4033 22.0164 20.2267 22.0164 20.02C22.0164 19.8867 22.0497 19.75 22.1164 19.61C22.1831 19.4633 22.3064 19.3233 22.4864 19.19C22.6731 19.0567 22.9031 18.96 23.1764 18.9C23.4497 18.84 23.7064 18.81 23.9464 18.81C24.4131 18.81 24.8131 18.8667 25.1464 18.98C25.4864 19.0867 25.7464 19.28 25.9264 19.56C26.1064 19.8333 26.1964 20.2767 26.1964 20.89V22.94C26.1964 23.2733 26.3731 23.44 26.7264 23.44ZM27.1309 36.21C27.1309 36.5767 27.0742 36.9367 26.9609 37.29C26.8542 37.6433 26.6742 37.9533 26.4209 38.22C26.1676 38.4867 25.8442 38.7 25.4509 38.86C25.0642 39.0133 24.6176 39.09 24.1109 39.09C23.8309 39.09 23.4909 39.06 23.0909 39C22.6909 38.94 22.3142 38.8367 21.9609 38.69V33.01C21.9609 32.81 21.9142 32.6367 21.8209 32.49C21.7342 32.3433 21.6342 32.2433 21.5209 32.19V32.04L23.6109 31.41V34.83C23.7242 34.6167 23.8709 34.4267 24.0509 34.26C24.2376 34.0933 24.4342 33.9767 24.6409 33.91C24.8476 33.8433 25.0376 33.81 25.2109 33.81C25.5842 33.81 25.9109 33.91 26.1909 34.11C26.4709 34.3033 26.6976 34.5833 26.8709 34.95C27.0442 35.31 27.1309 35.73 27.1309 36.21ZM23.6109 38.36C23.6776 38.4533 23.7809 38.5433 23.9209 38.63C24.0676 38.71 24.2242 38.75 24.3909 38.75C24.6242 38.75 24.8176 38.6733 24.9709 38.52C25.1309 38.36 25.2509 38.1433 25.3309 37.87C25.4176 37.5967 25.4609 37.2667 25.4609 36.88C25.4609 36.2267 25.3642 35.7267 25.1709 35.38C24.9776 35.0333 24.7109 34.86 24.3709 34.86C24.1976 34.86 23.9442 34.93 23.6109 35.07V38.36ZM26.7306 52.81C26.4773 53.1967 26.1539 53.51 25.7606 53.75C25.3739 53.9833 24.9406 54.1 24.4606 54.1C24.2073 54.1 23.9373 54.06 23.6506 53.98C23.3639 53.9 23.0739 53.7467 22.7806 53.52C22.4939 53.2933 22.2739 53 22.1206 52.64C21.9739 52.28 21.9006 51.91 21.9006 51.53C21.9006 51.13 21.9706 50.76 22.1106 50.42C22.2506 50.08 22.4439 49.79 22.6906 49.55C22.9373 49.31 23.2239 49.1267 23.5506 49C23.8773 48.8733 24.2206 48.81 24.5806 48.81C25.0139 48.81 25.3839 48.87 25.6906 48.99C26.0039 49.1033 26.2473 49.2667 26.4206 49.48C26.6006 49.6867 26.6906 49.93 26.6906 50.21C26.6906 50.4433 26.6073 50.6467 26.4406 50.82C26.2739 50.9867 26.0739 51.07 25.8406 51.07C25.6006 51.07 25.4006 50.9867 25.2406 50.82C25.0806 50.6467 25.0006 50.4467 25.0006 50.22C25.0006 49.9333 25.1006 49.7067 25.3006 49.54C25.2606 49.4333 25.1873 49.3433 25.0806 49.27C24.9806 49.19 24.8473 49.15 24.6806 49.15C24.5206 49.15 24.3573 49.1967 24.1906 49.29C24.0239 49.3767 23.8773 49.5667 23.7506 49.86C23.6306 50.1467 23.5706 50.4933 23.5706 50.9C23.5706 51.1667 23.6039 51.4367 23.6706 51.71C23.7373 51.9833 23.8439 52.23 23.9906 52.45C24.1373 52.6633 24.3206 52.84 24.5406 52.98C24.7673 53.1133 25.0173 53.18 25.2906 53.18C25.5039 53.18 25.7373 53.1333 25.9906 53.04C26.2439 52.94 26.4573 52.8233 26.6306 52.69L26.7306 52.81Z" fill="white"/>
</g>
<defs>
<clipPath id="clip0_7_0">
<rect width="81" height="81" fill="white" transform="translate(0.300812)"/>
</clipPath>
</defs>
</svg>
