<svg width="49" height="49" viewBox="0 0 49 49" fill="none" xmlns="http://www.w3.org/2000/svg">
<path d="M7.49555 5.78271C7.49423 5.78271 7.49275 5.78271 7.49143 5.78271C7.02799 5.78271 6.5921 5.96337 6.26296 6.29169C5.93018 6.62364 5.74689 7.06563 5.74689 7.53616V33.8288C5.74689 34.793 6.53435 35.5793 7.50248 35.5817C11.5838 35.5915 18.4218 36.4421 23.139 41.3786V13.8626C23.139 13.5358 23.0555 13.2288 22.8979 12.9747C19.0263 6.73962 11.5862 5.79228 7.49555 5.78271Z" fill="#97BC59"/>
<path d="M43.2533 33.8288V7.53604C43.2533 7.06551 43.07 6.62351 42.7372 6.29157C42.4081 5.96325 41.9718 5.78259 41.5089 5.78259C41.5074 5.78259 41.5059 5.78259 41.5046 5.78259C37.4142 5.79233 29.9741 6.73966 26.1022 12.9747C25.9447 13.2288 25.8614 13.5358 25.8614 13.8627V41.3785C30.5786 36.442 37.4165 35.5914 41.4978 35.5816C42.4658 35.5792 43.2533 34.7928 43.2533 33.8288Z" fill="#97BC59"/>
<path d="M47.2469 11.8462H45.9755V33.8288C45.9755 36.2905 43.9698 38.2979 41.5043 38.304C38.0425 38.3122 32.3343 38.9891 28.2917 42.8153C35.2834 41.1034 42.6539 42.2162 46.8544 43.1735C47.3789 43.2929 47.9209 43.1695 48.3411 42.8346C48.7598 42.5005 49 42.0011 49 41.4651V13.5993C49.0002 12.6327 48.2135 11.8462 47.2469 11.8462Z" fill="#97BC59"/>
<path d="M3.02448 33.8288V11.8462H1.75312C0.786643 11.8462 0 12.6327 0 13.5993V41.4646C0 42.0008 0.240216 42.5 0.658945 42.8341C1.07883 43.1688 1.62031 43.2927 2.14561 43.173C6.3461 42.2156 13.7167 41.1029 20.7081 42.8148C16.6657 38.9888 10.9576 38.3121 7.49571 38.3038C5.03035 38.2979 3.02448 36.2905 3.02448 33.8288Z" fill="#97BC59"/>
</svg>
