<svg width="231" height="40" viewBox="0 0 231 40" fill="none" xmlns="http://www.w3.org/2000/svg">
<g clip-path="url(#clip0_22_230)">
<path d="M19.7617 3.29973C10.6105 3.43174 5.836 8.84429 7.82539 15.973C8.8864 19.8014 11.6715 22.3096 15.5177 22.7057C19.7617 23.2337 24.1384 23.1017 28.3824 23.2337C29.8413 23.2337 31.4328 22.8377 32.6264 23.4978C33.9527 24.1578 35.5442 25.4779 35.9421 26.7981C36.34 28.5143 35.1463 30.2304 32.8917 30.3624C24.4036 30.3624 15.9156 30.4945 7.42751 30.3624C5.17287 30.3624 2.12247 26.402 1.72459 22.9697C0.928837 16.237 0.530959 9.37234 0.000454897 2.63967C-0.132171 0.395441 0.928837 -0.264625 3.05085 0.131414C8.35589 1.18752 13.7936 2.11161 19.7617 3.29973Z" fill="#88AA4E"/>
<path d="M30.9018 36.9637C40.053 37.4918 44.0318 29.1749 42.0424 23.6304C40.5835 19.4059 36.7374 16.8977 31.0345 16.7657C26.9231 16.6337 22.8117 16.6337 18.7003 16.7657C16.1804 16.7657 13.7931 16.2376 13.7931 13.2013C13.7931 10.165 16.0477 9.63696 18.7003 9.63696C25.5968 9.63696 32.3607 9.63696 39.2573 9.63696C44.4297 9.63696 47.6127 12.2772 48.1432 17.5578C48.8064 24.1584 49.2042 30.6271 49.7347 37.2277C49.8674 39.604 48.939 40.396 46.5517 40C41.5119 38.9439 36.2069 37.8878 30.9018 36.9637Z" fill="#88AA4E"/>
</g>
<path d="M69.3967 29.216C68.3087 29.216 67.3327 29.024 66.4687 28.64C65.6047 28.24 64.9167 27.704 64.4047 27.032C63.9087 26.36 63.6367 25.616 63.5887 24.8H66.9727C67.0367 25.312 67.2847 25.736 67.7167 26.072C68.1647 26.408 68.7167 26.576 69.3727 26.576C70.0127 26.576 70.5087 26.448 70.8607 26.192C71.2287 25.936 71.4127 25.608 71.4127 25.208C71.4127 24.776 71.1887 24.456 70.7407 24.248C70.3087 24.024 69.6127 23.784 68.6527 23.528C67.6607 23.288 66.8447 23.04 66.2047 22.784C65.5807 22.528 65.0367 22.136 64.5727 21.608C64.1247 21.08 63.9007 20.368 63.9007 19.472C63.9007 18.736 64.1087 18.064 64.5247 17.456C64.9567 16.848 65.5647 16.368 66.3487 16.016C67.1487 15.664 68.0847 15.488 69.1567 15.488C70.7407 15.488 72.0047 15.888 72.9487 16.688C73.8927 17.472 74.4127 18.536 74.5087 19.88H71.2927C71.2447 19.352 71.0207 18.936 70.6207 18.632C70.2367 18.312 69.7167 18.152 69.0607 18.152C68.4527 18.152 67.9807 18.264 67.6447 18.488C67.3247 18.712 67.1647 19.024 67.1647 19.424C67.1647 19.872 67.3887 20.216 67.8367 20.456C68.2847 20.68 68.9807 20.912 69.9247 21.152C70.8847 21.392 71.6767 21.64 72.3007 21.896C72.9247 22.152 73.4607 22.552 73.9087 23.096C74.3727 23.624 74.6127 24.328 74.6287 25.208C74.6287 25.976 74.4127 26.664 73.9807 27.272C73.5647 27.88 72.9567 28.36 72.1567 28.712C71.3727 29.048 70.4527 29.216 69.3967 29.216ZM90.7068 22.064C90.7068 22.544 90.6748 22.976 90.6108 23.36H80.8908C80.9708 24.32 81.3068 25.072 81.8988 25.616C82.4908 26.16 83.2188 26.432 84.0828 26.432C85.3308 26.432 86.2188 25.896 86.7468 24.824H90.3708C89.9868 26.104 89.2508 27.16 88.1628 27.992C87.0748 28.808 85.7388 29.216 84.1548 29.216C82.8748 29.216 81.7228 28.936 80.6988 28.376C79.6908 27.8 78.8988 26.992 78.3228 25.952C77.7628 24.912 77.4828 23.712 77.4828 22.352C77.4828 20.976 77.7628 19.768 78.3228 18.728C78.8828 17.688 79.6668 16.888 80.6748 16.328C81.6828 15.768 82.8428 15.488 84.1548 15.488C85.4188 15.488 86.5468 15.76 87.5388 16.304C88.5468 16.848 89.3228 17.624 89.8668 18.632C90.4268 19.624 90.7068 20.768 90.7068 22.064ZM87.2268 21.104C87.2108 20.24 86.8988 19.552 86.2908 19.04C85.6828 18.512 84.9388 18.248 84.0588 18.248C83.2268 18.248 82.5228 18.504 81.9468 19.016C81.3868 19.512 81.0428 20.208 80.9148 21.104H87.2268ZM93.2553 22.352C93.2553 20.976 93.5353 19.776 94.0953 18.752C94.6553 17.712 95.4313 16.912 96.4233 16.352C97.4153 15.776 98.5513 15.488 99.8313 15.488C101.479 15.488 102.839 15.904 103.911 16.736C104.999 17.552 105.727 18.704 106.095 20.192H102.471C102.279 19.616 101.951 19.168 101.487 18.848C101.039 18.512 100.479 18.344 99.8073 18.344C98.8473 18.344 98.0873 18.696 97.5273 19.4C96.9673 20.088 96.6873 21.072 96.6873 22.352C96.6873 23.616 96.9673 24.6 97.5273 25.304C98.0873 25.992 98.8473 26.336 99.8073 26.336C101.167 26.336 102.055 25.728 102.471 24.512H106.095C105.727 25.952 104.999 27.096 103.911 27.944C102.823 28.792 101.463 29.216 99.8313 29.216C98.5513 29.216 97.4153 28.936 96.4233 28.376C95.4313 27.8 94.6553 27 94.0953 25.976C93.5353 24.936 93.2553 23.728 93.2553 22.352ZM115.421 29.216C114.141 29.216 112.989 28.936 111.965 28.376C110.941 27.8 110.133 26.992 109.541 25.952C108.965 24.912 108.677 23.712 108.677 22.352C108.677 20.992 108.973 19.792 109.565 18.752C110.173 17.712 110.997 16.912 112.037 16.352C113.077 15.776 114.237 15.488 115.517 15.488C116.797 15.488 117.957 15.776 118.997 16.352C120.037 16.912 120.853 17.712 121.445 18.752C122.053 19.792 122.357 20.992 122.357 22.352C122.357 23.712 122.045 24.912 121.421 25.952C120.813 26.992 119.981 27.8 118.925 28.376C117.885 28.936 116.717 29.216 115.421 29.216ZM115.421 26.288C116.029 26.288 116.597 26.144 117.125 25.856C117.669 25.552 118.101 25.104 118.421 24.512C118.741 23.92 118.901 23.2 118.901 22.352C118.901 21.088 118.565 20.12 117.893 19.448C117.237 18.76 116.429 18.416 115.469 18.416C114.509 18.416 113.701 18.76 113.045 19.448C112.405 20.12 112.085 21.088 112.085 22.352C112.085 23.616 112.397 24.592 113.021 25.28C113.661 25.952 114.461 26.288 115.421 26.288ZM133.149 15.512C134.733 15.512 136.013 16.016 136.989 17.024C137.965 18.016 138.453 19.408 138.453 21.2V29H135.093V21.656C135.093 20.6 134.829 19.792 134.301 19.232C133.773 18.656 133.053 18.368 132.141 18.368C131.213 18.368 130.477 18.656 129.933 19.232C129.405 19.792 129.141 20.6 129.141 21.656V29H125.781V15.704H129.141V17.36C129.589 16.784 130.157 16.336 130.845 16.016C131.549 15.68 132.317 15.512 133.149 15.512ZM141.745 22.304C141.745 20.96 142.009 19.768 142.537 18.728C143.081 17.688 143.817 16.888 144.745 16.328C145.673 15.768 146.705 15.488 147.841 15.488C148.705 15.488 149.529 15.68 150.313 16.064C151.097 16.432 151.721 16.928 152.185 17.552V11.24H155.593V29H152.185V27.032C151.769 27.688 151.185 28.216 150.433 28.616C149.681 29.016 148.809 29.216 147.817 29.216C146.697 29.216 145.673 28.928 144.745 28.352C143.817 27.776 143.081 26.968 142.537 25.928C142.009 24.872 141.745 23.664 141.745 22.304ZM152.209 22.352C152.209 21.536 152.049 20.84 151.729 20.264C151.409 19.672 150.977 19.224 150.433 18.92C149.889 18.6 149.305 18.44 148.681 18.44C148.057 18.44 147.481 18.592 146.953 18.896C146.425 19.2 145.993 19.648 145.657 20.24C145.337 20.816 145.177 21.504 145.177 22.304C145.177 23.104 145.337 23.808 145.657 24.416C145.993 25.008 146.425 25.464 146.953 25.784C147.497 26.104 148.073 26.264 148.681 26.264C149.305 26.264 149.889 26.112 150.433 25.808C150.977 25.488 151.409 25.04 151.729 24.464C152.049 23.872 152.209 23.168 152.209 22.352ZM161.226 19.4C161.626 18.344 162.306 17.48 163.266 16.808C164.226 16.136 165.386 15.8 166.746 15.8C167.962 15.8 169.042 16.072 169.986 16.616C170.946 17.16 171.69 17.936 172.218 18.944C172.762 19.952 173.034 21.128 173.034 22.472C173.034 23.816 172.762 25 172.218 26.024C171.69 27.032 170.946 27.816 169.986 28.376C169.042 28.92 167.962 29.192 166.746 29.192C165.386 29.192 164.218 28.856 163.242 28.184C162.282 27.512 161.61 26.648 161.226 25.592V29H160.146V11.24H161.226V19.4ZM171.93 22.472C171.93 21.288 171.706 20.264 171.258 19.4C170.81 18.536 170.178 17.88 169.362 17.432C168.562 16.968 167.634 16.736 166.578 16.736C165.57 16.736 164.658 16.976 163.842 17.456C163.026 17.92 162.386 18.592 161.922 19.472C161.458 20.336 161.226 21.336 161.226 22.472C161.226 23.624 161.458 24.64 161.922 25.52C162.386 26.384 163.026 27.056 163.842 27.536C164.658 28 165.57 28.232 166.578 28.232C167.634 28.232 168.562 28 169.362 27.536C170.178 27.072 170.81 26.408 171.258 25.544C171.706 24.68 171.93 23.656 171.93 22.472ZM177.807 13.064C177.551 13.064 177.335 12.984 177.159 12.824C176.983 12.648 176.895 12.416 176.895 12.128C176.895 11.856 176.983 11.632 177.159 11.456C177.335 11.28 177.551 11.192 177.807 11.192C178.063 11.192 178.279 11.28 178.455 11.456C178.631 11.632 178.719 11.856 178.719 12.128C178.719 12.416 178.631 12.648 178.455 12.824C178.279 12.984 178.063 13.064 177.807 13.064ZM178.335 15.968V29H177.255V15.968H178.335ZM189.134 15.704C190.686 15.704 191.95 16.184 192.926 17.144C193.902 18.088 194.39 19.496 194.39 21.368V29H193.334V21.44C193.334 19.888 192.942 18.704 192.158 17.888C191.374 17.056 190.31 16.64 188.966 16.64C187.558 16.64 186.43 17.088 185.582 17.984C184.75 18.88 184.334 20.208 184.334 21.968V29H183.254V15.968H184.334V18.728C184.702 17.752 185.31 17.008 186.158 16.496C187.022 15.968 188.014 15.704 189.134 15.704ZM198.495 22.472C198.495 21.128 198.759 19.952 199.287 18.944C199.831 17.936 200.575 17.16 201.519 16.616C202.479 16.072 203.567 15.8 204.783 15.8C206.111 15.8 207.263 16.136 208.239 16.808C209.215 17.464 209.903 18.32 210.303 19.376V11.24H211.383V29H210.303V25.544C209.919 26.616 209.247 27.496 208.287 28.184C207.327 28.856 206.159 29.192 204.783 29.192C203.567 29.192 202.479 28.92 201.519 28.376C200.575 27.816 199.831 27.032 199.287 26.024C198.759 25 198.495 23.816 198.495 22.472ZM210.303 22.472C210.303 21.336 210.063 20.336 209.583 19.472C209.119 18.592 208.479 17.92 207.663 17.456C206.847 16.976 205.935 16.736 204.927 16.736C203.871 16.736 202.943 16.968 202.143 17.432C201.343 17.88 200.719 18.536 200.271 19.4C199.823 20.264 199.599 21.288 199.599 22.472C199.599 23.656 199.823 24.68 200.271 25.544C200.719 26.408 201.343 27.072 202.143 27.536C202.959 28 203.887 28.232 204.927 28.232C205.935 28.232 206.847 28 207.663 27.536C208.495 27.056 209.143 26.384 209.607 25.52C210.071 24.64 210.303 23.624 210.303 22.472Z" fill="black"/>
<defs>
<clipPath id="clip0_22_230">
<rect width="50" height="40" fill="white"/>
</clipPath>
</defs>
</svg>
