<svg width="117" height="40" viewBox="0 0 117 40" fill="none" xmlns="http://www.w3.org/2000/svg">
<path d="M87.6913 23.5623C89.7641 23.3402 89.6677 24.1174 90.3426 23.7843C90.439 23.7843 90.5354 24.0064 90.5354 24.2284C90.6318 23.8953 90.2944 25.0055 90.3426 24.7835C90.0533 24.6725 89.7641 24.6725 89.4749 25.0055C89.3785 25.1166 89.3785 25.3386 89.2821 25.6717C90.198 26.0047 92.3672 25.6717 92.7046 26.7819C92.6564 27.67 92.4636 27.559 91.5959 27.781C91.5959 28.0031 91.4995 27.8921 92.1262 28.2251C92.2708 28.6692 92.1744 28.6692 90.9692 28.6692C90.3908 28.6692 90.2462 27.8921 89.6195 28.0031C89.2821 28.1141 88.9928 27.559 88.6554 27.781L87.6913 23.5623ZM90.198 18.5664C90.3426 18.5664 90.439 18.4554 90.5354 18.8994C90.5354 19.0105 90.4872 19.1215 90.439 19.1215L90.198 18.5664ZM87.9323 11.2391C89.2338 11.5721 90.4872 11.3501 91.7887 11.5721C92.2226 11.6831 92.1744 11.6831 92.1262 12.5713C93.0421 13.5705 95.2113 13.0154 96.5128 13.6815C96.0308 13.7925 95.7415 14.1256 95.5005 14.0146C95.1149 13.7925 94.7774 14.1256 94.5364 14.9027C93.7651 14.9027 93.4759 14.4586 92.7528 14.6807C92.6564 14.6807 92.56 14.6807 92.4636 14.5697C91.7405 13.6815 90.2944 14.2366 89.8123 13.9035C89.1856 13.4595 88.559 13.7925 87.9323 13.6815V11.2391ZM10.9005 30.1125C10.9487 30.2235 11.0933 29.7794 11.0933 29.6684C11.0933 29.4463 10.9969 29.1133 10.9005 29.0023C10.8523 29.0023 10.9005 29.0023 10.6595 29.0023C10.5631 28.7802 10.3703 28.0031 9.93642 28.0031C8.7795 28.1141 7.62257 27.448 6.46565 27.8921C5.9836 28.0031 5.88719 27.2259 5.0195 28.2251C3.95899 27.1149 2.80206 27.337 1.54873 27.448C1.40411 27.448 1.35591 27.448 1.01847 26.6708C1.40411 26.1157 1.88616 26.6708 2.2236 26.3378C2.51283 25.4496 2.07899 24.2284 2.70565 24.0064C2.89847 23.8953 2.65745 24.0064 3.95899 23.7843C4.20001 23.0072 4.1036 21.5639 3.71796 21.4529C2.70565 21.1198 3.76616 21.6749 0.247191 20.6758C0.00616499 20.5647 -0.0902453 19.6766 0.102575 19.5656C0.536421 19.2325 0.681037 19.3435 1.59693 19.3435C1.54873 18.8994 1.35591 19.0105 1.2595 18.7884C1.16309 18.5664 1.16309 18.3443 1.2595 18.0113C3.47693 17.4562 2.75386 17.2341 4.29642 17.2341C5.0195 17.2341 5.74257 16.679 6.46565 16.346C7.91181 15.5688 7.62257 16.679 8.20104 16.235C8.7795 15.7909 9.02052 17.1231 9.64719 16.0129L9.69539 16.1239C9.55078 16.0129 9.50257 15.6799 9.40616 15.5688C9.16514 15.4578 8.49027 15.9019 7.62257 15.2358C6.85129 14.5697 6.32104 15.2358 6.08001 14.6807C6.32104 14.2366 6.61027 14.5697 6.85129 14.4586C7.09232 14.3476 7.28514 14.2366 7.52616 14.2366C7.67078 12.4603 6.75488 12.9044 6.56206 12.6823C5.79078 11.9052 5.35693 12.3493 4.20001 12.4603C3.86258 11.6831 4.1036 11.9052 2.99488 11.7942C2.60924 11.7942 2.80206 10.795 2.94668 10.684C3.91078 9.90682 3.52514 11.017 3.95899 9.57376C4.48924 8.46356 9.35796 10.1289 10.3703 8.6856C10.6113 8.35254 10.7559 8.57458 13.118 8.79662C14.0821 8.90764 14.0821 9.46274 14.9015 9.35172C17.0226 9.01866 16.6851 9.35172 16.9262 8.35254C18.1795 7.0203 18.8062 8.1305 20.4933 7.0203C20.6862 6.90928 20.879 6.90928 21.0718 6.79826C21.0718 6.35418 20.9754 6.35418 20.9272 6.35418C19.0954 6.02112 15.239 6.90928 14.5159 6.24316C14.5641 6.02112 14.5641 5.79908 14.6123 5.79908C14.9498 5.57704 15.3354 5.24398 15.6728 5.355C16.5887 5.68806 16.5887 5.46602 20.5415 5.24398C21.7949 5.24398 21.3128 4.35582 22.518 4.68888C24.398 5.13296 30.7128 4.2448 32.3036 5.24398C32.5446 5.355 32.8339 5.46602 33.0749 5.355C33.3641 5.24398 33.6533 5.46602 34.039 5.57704C34.9067 4.91092 35.2441 4.57786 35.6297 5.02194C35.8226 5.24398 36.0154 4.68888 36.4974 4.91092C38.4739 5.46602 39.0523 4.7999 39.3415 4.91092C39.9682 5.355 40.5467 4.91092 40.6431 5.02194C41.1733 5.79908 42.6677 4.35582 44.4031 5.57704C49.079 2.69052 39.3897 3.91174 17.7939 4.2448C17.119 4.2448 15.239 4.68888 14.3231 4.57786C13.4072 4.46684 9.98463 4.46684 8.7795 5.02194C8.68309 5.24398 8.58668 5.355 8.53847 5.46602C7.62257 4.68888 6.22463 5.46602 5.26052 5.02194C5.30873 4.91092 5.35693 4.68888 5.35693 4.68888C6.17642 4.7999 6.99591 4.13378 7.81539 4.13378C8.29745 4.13378 8.24924 3.35664 9.35796 3.46766C10.5149 3.6897 10.5149 3.1346 12.7323 3.24562C14.0339 3.35664 13.7446 3.46766 14.7087 1.91338C15.2872 1.91338 15.1426 1.69134 15.48 2.80154C17.4082 3.02358 44.5959 2.24644 44.5959 2.24644C45.319 2.24644 45.078 1.58032 46.2349 1.58032C48.5969 1.58032 53.1764 1.58032 56.84 1.58032C57.1774 1.58032 57.5149 1.24726 57.8041 1.35828C58.1415 1.4693 58.479 1.35828 58.7682 1.24726C59.4913 1.02522 59.4913 1.58032 60.2626 1.58032C66.24 1.58032 66.0472 1.80236 66.0954 0.803182C65.8062 0.470122 65.5169 0.692161 65.2277 0.692161C64.1672 0.470121 64.9867 1.35828 63.4441 0.581141C63.3959 0.581141 63.3477 0.359102 63.2513 0.359102C63.2995 0.248082 63.2995 0.137062 63.3477 0.137062C66.1918 -0.307018 66.3846 0.470122 68.12 0.470122C70.0964 0.470122 70.0964 0.359101 70.3374 1.24726C71.3015 1.4693 70.8677 1.4693 71.3497 1.80236C72.4103 2.5795 72.2656 2.24644 73.6154 2.35746C74.5795 2.35746 74.4349 2.69052 75.0615 2.91256C75.3508 3.02358 75.64 2.91256 75.9292 3.02358C77.279 3.91174 77.6646 2.80154 80.0267 3.57868C80.3641 3.1346 80.7497 2.80154 81.1354 3.46766C81.0872 3.24562 81.1836 3.6897 81.1836 3.91174C81.28 5.68806 83.6421 3.57868 84.5097 4.7999C85.04 5.57704 85.6185 4.7999 86.5344 4.35582C86.9682 4.2448 87.8359 4.46684 87.6431 5.57704C87.2092 6.13214 86.9682 5.57704 84.2687 5.79908C84.4133 6.35418 84.2205 5.9101 87.7395 6.24316C91.5477 6.57622 91.5959 6.13214 92.6082 6.57622C92.8492 6.68724 92.078 6.57622 95.7897 6.57622C100.321 6.68724 101.478 8.57458 105.961 7.68642C106.443 6.24316 106.491 6.4652 107.263 6.4652C107.745 7.46438 107.745 7.46438 108.227 7.5754C108.805 7.79744 110.589 7.5754 110.589 7.5754C111.456 7.35336 111.071 7.90846 114.445 7.79744C117.096 7.68642 116.614 7.79744 117 8.01948C117 8.35254 117 8.6856 116.904 8.6856C116.277 8.90764 113.144 9.01866 112.372 9.2407C112.276 9.2407 112.228 9.57376 112.179 9.68478C112.228 10.684 112.565 10.684 112.951 11.128C106.925 11.3501 108.757 11.128 108.612 12.2382C108.13 12.7933 107.504 12.3493 107.648 14.3476C107.793 14.4586 107.937 14.6807 108.082 14.7917C108.227 15.5688 107.696 15.4578 107.552 16.1239C107.889 16.346 108.178 16.679 108.419 17.3452C108.612 17.9003 108.998 17.9003 109.046 19.1215C109.143 18.6774 109.239 18.3443 109.287 18.0113C109.48 19.2325 109.287 18.5664 110.107 19.7876C110.251 20.0096 110.348 20.3427 110.348 20.8978C110.396 20.7868 110.541 20.7868 109.384 21.2309C109.239 21.4529 109.046 21.6749 109.046 22.4521C109.528 23.2292 109.287 23.2292 110.83 23.1182C110.926 23.1182 110.974 23.0072 111.119 22.7851C111.071 22.23 111.023 21.786 110.974 21.4529C110.974 21.4529 113.24 21.5639 113.529 21.786C113.626 21.786 113.722 22.119 113.674 22.3411C113.577 22.8962 113.577 22.7851 112.469 23.1182C112.035 23.2292 112.083 23.1182 112.083 24.4504C111.842 25.0055 111.553 24.2284 111.264 24.6725C111.312 24.8945 111.36 25.1166 111.408 25.2276C111.938 26.0047 111.794 25.3386 111.938 26.3378C110.974 27.0039 110.251 25.6717 110.203 27.0039C110.203 28.0031 110.203 28.0031 109.866 28.4472C109.046 26.8929 109.335 27.1149 108.661 27.337C108.468 28.5582 108.468 29.0023 107.986 28.8912C104.322 27.8921 105.575 27.2259 103.888 28.0031C103.792 28.4472 103.84 28.6692 103.985 28.8912V28.7802L10.9005 30.1125ZM7.47796 33.221C7.52616 33.11 7.57437 33.11 6.8995 33.221V33.332C6.46565 31.6667 3.28411 33.7761 1.98258 31.8888C2.07899 31.4447 2.07899 31.3337 2.1754 31.2227C5.0195 30.7786 5.40514 31.6667 6.32104 30.8896C6.32104 30.5565 6.32104 30.3345 6.27283 30.0014C6.61027 29.5574 6.99591 29.8904 7.33334 30.0014L7.47796 33.221ZM89.3303 28.8912C89.9087 28.8912 89.4749 28.7802 91.2103 29.4463C91.4031 29.7794 91.4513 30.3345 91.4995 30.7786C91.4513 31.3337 91.3067 31.5557 91.1621 31.6667C89.6195 31.9998 89.4267 31.6667 90.3908 32.2218C90.439 32.6659 90.3908 32.7769 90.2944 32.7769C89.5231 32.7769 88.7518 32.6659 88.0287 32.2218C87.3056 32.888 87.9805 32.6659 84.4615 32.888C84.558 33.332 84.7026 33.221 84.799 33.332C86.0523 33.9982 86.0041 34.1092 86.0523 34.2202L89.3303 28.8912ZM31.4841 7.68642C31.5323 7.79744 31.5805 7.90846 31.6287 7.90846C31.918 7.90846 31.8697 7.46438 31.9662 7.35336C31.8697 7.68642 31.6769 7.35336 31.4841 7.68642ZM66.7221 1.24726V1.02522C66.9631 1.80236 67.5415 1.4693 67.7826 1.35828C67.3969 1.24726 67.0595 1.13624 66.7221 1.24726ZM7.28514 20.5647C7.14052 20.4537 7.04411 20.0096 6.85129 20.4537C7.04411 20.6758 7.18873 20.5647 7.28514 20.5647C7.23693 22.008 8.58668 21.897 8.58668 22.6741C8.58668 23.2292 8.68309 23.6733 8.87591 23.6733C9.55078 23.8953 10.1774 24.1174 10.8523 23.7843C10.9005 23.7843 10.9487 23.5623 10.9969 23.4513C10.5631 22.4521 10.6113 22.7851 10.8041 22.3411C11.0451 21.897 11.0451 21.786 10.9005 20.8978C8.63488 20.1207 8.05642 19.8986 7.28514 20.5647ZM102.924 29.6684V29.7794C102.731 29.2243 103.165 28.8912 103.117 28.3361C102.779 28.0031 102.49 27.559 102.201 27.2259C101.719 27.1149 100.996 27.67 100.225 27.0039C100.08 26.8929 98.9231 26.8929 98.0554 26.8929C98.0072 26.8929 97.959 27.0039 97.9108 27.1149C97.959 27.448 97.959 27.781 98.0072 28.2251C97.0913 28.8912 96.8985 27.337 94.9703 27.337C93.7651 27.337 92.5118 27.559 91.3067 26.8929C90.439 26.8929 89.5713 26.8929 88.7518 27.1149C89.6677 27.337 90.3908 27.1149 90.6318 27.448C91.1138 28.0031 91.4513 27.8921 93.6687 28.0031C94.6328 28.0031 93.9579 28.5582 95.4523 28.4472C96.6574 28.3361 96.5128 29.4463 97.5733 29.5574C97.7662 29.5574 98.8267 29.8904 98.9231 29.1133C99.0677 27.67 99.4533 27.781 99.9354 28.1141C99.7426 29.0023 99.7908 28.7802 99.5979 29.1133C99.5497 29.2243 99.4533 29.2243 99.4533 29.5574C99.6462 29.5574 99.839 29.6684 100.08 29.6684C101.574 29.6684 102.153 31.2227 102.924 29.6684ZM47.7292 7.79744C47.7774 7.46438 47.681 7.24234 47.5846 7.24234C47.3436 7.13132 47.0544 7.0203 46.8133 7.13132C46.3795 7.35336 44.7405 6.79826 43.6318 7.13132C42.0892 7.5754 41.6554 7.13132 40.7395 7.68642C42.4267 8.46356 42.7159 7.79744 43.4872 8.46356C44.1138 8.90764 45.0297 8.46356 46.3313 8.57458C46.8615 8.57458 47.2954 8.35254 47.7292 7.79744ZM95.5969 12.4603C99.6944 12.7933 95.3077 12.3493 101.285 12.5713C102.731 12.6823 102.153 12.2382 103.021 12.0162C103.117 12.0162 103.117 12.0162 103.262 11.5721C103.117 11.5721 102.972 11.4611 102.876 11.4611C97.3323 11.5721 97.3805 11.2391 95.5969 12.4603ZM104.708 20.8978C105.045 22.119 105.527 21.4529 105.961 22.119C106.298 23.2292 106.057 23.0072 107.07 23.3402C107.311 22.7851 107.504 22.4521 107.745 22.008C107.745 21.786 107.648 20.8978 107.407 20.7868C106.491 20.4537 105.624 20.5647 104.708 20.8978ZM104.515 13.1264C104.37 13.1264 104.226 13.6815 104.274 14.1256C104.322 14.7917 104.322 14.6807 106.732 14.7917C106.781 14.7917 106.829 14.6807 106.925 14.5697C106.732 12.9044 107.022 13.1264 104.515 13.1264ZM103.213 14.1256C103.117 13.7925 103.021 13.4595 102.876 13.4595C102.201 13.3484 101.574 13.3484 100.948 13.6815C100.803 13.7925 100.755 14.0146 100.707 14.4586C100.658 15.0137 103.021 14.5697 103.021 14.5697C103.069 14.5697 103.165 14.3476 103.213 14.1256ZM24.2051 8.24152C23.1446 8.01948 22.1323 8.57458 21.12 8.57458C17.2154 8.57458 19.2882 9.90682 23.9641 8.57458C24.0605 8.57458 24.1087 8.35254 24.2051 8.24152ZM86.7754 31.0006C87.5467 31.3337 87.5949 31.0006 87.9323 31.2227C88.5108 31.5557 89.041 31.3337 89.5713 31.1116C89.6195 31.1116 89.6195 31.0006 89.6677 30.8896L86.7754 31.0006ZM36.9313 7.68642C36.2564 7.24234 36.16 7.68642 35.2923 7.46438C34.039 7.24234 33.9908 7.68642 33.3159 7.24234C33.0267 7.13132 32.7374 7.13132 32.4482 7.35336C32.4482 7.35336 32.4 7.46438 32.4 7.5754C32.5446 8.1305 32.4 8.01948 36.5939 7.90846C36.6903 7.90846 36.7867 7.79744 36.9313 7.68642ZM17.2636 28.2251C16.9262 28.1141 16.5887 27.8921 16.3959 28.8912C16.2995 29.3353 16.1549 29.0023 16.1549 29.8904C16.1549 30.2235 16.9262 30.2235 17.3118 30.1125C17.3118 28.6692 17.3118 29.2243 17.2636 28.2251ZM19.6256 13.5705C20.7826 13.7925 21.9877 13.9035 23.1446 13.4595C21.9395 13.2374 20.7826 13.2374 19.6256 13.5705ZM10.5149 14.1256C9.93642 13.4595 9.59898 12.7933 9.06873 13.2374C8.92411 13.3484 8.8277 13.6815 8.8277 14.0146C8.8277 14.4586 8.87591 14.4586 10.2257 14.3476C10.3221 14.3476 10.3703 14.2366 10.5149 14.1256ZM10.5149 18.6774C10.3221 18.4554 10.6595 18.4554 8.68309 18.2333C7.9118 18.1223 8.20104 19.0105 8.20104 19.0105C8.68309 19.1215 9.88822 19.0105 10.5149 18.6774ZM92.2226 21.3419C92.319 22.8962 92.9456 22.23 93.4759 22.008C93.5723 22.008 93.4759 21.4529 93.4277 21.3419C92.9938 21.2309 92.6082 21.2309 92.2226 21.3419ZM10.9969 14.2366C11.479 14.1256 12.0574 14.3476 11.72 12.7933C11.3344 12.7933 11.5754 12.5713 10.9969 14.2366ZM31.0503 7.68642C28.64 7.5754 28.64 7.90846 30.7128 8.01948C30.761 8.01948 30.8574 7.90846 31.0503 7.68642ZM16.5887 27.2259C17.119 27.448 17.119 27.448 17.4082 27.1149C17.2154 26.5598 16.9744 26.4488 16.6851 26.6708C16.6369 26.6708 16.6369 27.0039 16.5887 27.2259ZM93.9097 12.4603C93.5241 12.4603 93.1867 12.1272 92.8492 12.4603C93.1867 12.4603 93.5241 12.4603 93.9097 12.4603ZM52.0195 3.6897C52.0677 3.80072 51.9713 3.80072 52.8872 3.80072C52.8872 3.6897 53.0318 3.6897 52.0195 3.6897ZM77.4718 4.7999C77.761 5.02194 78.0985 4.91092 78.3877 4.91092C78.3395 4.7999 78.4359 4.7999 77.4718 4.7999ZM14.9498 15.9019C15.2872 16.1239 15.5764 16.235 15.9139 16.0129C15.9621 16.0129 15.9621 15.7909 16.0103 15.6799C16.0585 15.4578 15.5764 15.2358 15.0944 15.5688C15.0462 15.5688 14.998 15.6799 14.9498 15.9019ZM18.6615 27.2259C18.6133 26.5598 18.5651 26.4488 18.3723 26.3378C18.2759 26.3378 18.1795 26.3378 18.1313 26.6708C18.0349 27.1149 18.4205 27.67 18.6615 27.2259ZM109.673 24.4504C110.541 24.5615 110.396 24.6725 110.492 24.3394C110.203 24.1174 109.914 24.0064 109.673 24.4504ZM70.1446 3.6897C70.3856 3.80072 70.6267 4.35582 70.8195 3.6897C70.5785 3.6897 70.3374 3.6897 70.1446 3.6897ZM81.5692 6.13214C81.8103 6.02112 82.0031 6.35418 82.2441 5.9101C82.0513 5.9101 81.8585 5.79908 81.5692 6.13214ZM54.2369 4.2448C54.0441 3.46766 53.8995 4.2448 53.9477 4.35582C54.1405 4.46684 54.1405 4.35582 54.2369 4.2448ZM98.1036 22.119C98.0072 21.897 97.8626 21.786 97.718 22.119C97.8626 22.119 98.0072 22.119 98.1036 22.119ZM20.5898 11.3501C20.4933 11.017 20.3487 10.906 20.1559 11.2391C20.3487 11.3501 20.4933 11.3501 20.5898 11.3501ZM6.22463 18.6774C6.22463 18.5664 6.17642 18.2333 5.9836 18.2333C5.74257 18.1223 5.79078 18.6774 5.93539 18.6774C6.03181 18.6774 6.12822 18.6774 6.22463 18.6774ZM100.128 21.0088C100.273 21.1198 100.417 21.2309 100.562 21.0088C100.417 20.7868 100.273 20.7868 100.128 21.0088ZM25.0246 8.35254C24.7836 8.24152 24.8318 8.24152 24.7354 8.24152C24.8318 8.46356 24.88 8.57458 25.0246 8.35254ZM95.8862 21.4529C95.7897 21.4529 95.838 21.4529 95.8862 21.4529C95.838 21.4529 95.7897 21.4529 95.8862 21.4529ZM14.3713 11.4611C14.3713 11.5721 14.3231 11.5721 14.3231 11.6831C14.2749 12.6823 14.5159 12.1272 14.3713 11.4611ZM91.1621 29.4463C90.921 29.3353 91.0174 29.3353 90.921 29.4463C91.0174 29.4463 91.1138 29.4463 91.1621 29.4463ZM91.9333 29.4463C91.8369 29.4463 91.8851 29.4463 91.9333 29.4463C91.8851 29.4463 91.8369 29.4463 91.9333 29.4463ZM51.441 3.80072C51.3446 3.80072 51.3446 3.80072 51.441 3.80072V3.80072ZM22.0359 6.68724C21.9395 6.57622 21.9877 6.57622 21.9877 6.68724H22.0359ZM27.3385 7.79744C27.2903 7.79744 27.2903 7.79744 27.3385 7.79744V7.79744ZM82.3887 7.79744C82.4851 7.79744 82.4851 7.79744 82.3887 7.79744V7.79744ZM13.2626 14.1256V14.0146C13.1662 14.0146 13.1662 14.1256 13.2144 14.2366C13.2144 14.2366 13.2144 14.1256 13.2626 14.1256ZM6.70668 18.5664C6.61027 18.6774 6.61027 18.6774 6.70668 18.6774V18.5664ZM19.8185 20.2317C19.7221 20.2317 19.7221 20.3427 19.7703 20.4537C19.7703 20.4537 19.8185 20.4537 19.8667 20.4537C19.8667 20.3427 19.8667 20.3427 19.8185 20.2317ZM20.5415 20.2317V20.3427C20.638 20.4537 20.7344 20.2317 20.5898 20.1207C20.5898 20.2317 20.5898 20.2317 20.5415 20.2317ZM103.695 21.0088C103.792 20.8978 103.792 21.0088 103.695 21.0088V21.0088ZM95.1631 21.5639C95.1631 21.5639 95.1631 21.4529 95.1149 21.4529C95.0185 21.4529 95.0185 21.5639 95.0667 21.5639C95.1149 21.5639 95.1631 21.5639 95.1631 21.5639ZM96.6092 22.119C96.5128 22.008 96.5128 22.008 96.5128 22.119H96.6092ZM104.033 22.008C104.129 22.119 104.129 22.119 104.129 22.008H104.033ZM107.359 27.337C107.359 27.2259 107.359 27.1149 107.263 27.1149L107.214 27.2259C107.263 27.2259 107.311 27.2259 107.359 27.337ZM108.757 19.0105C108.709 19.2325 108.709 19.1215 108.805 19.1215L108.757 19.0105ZM14.7569 11.6831C14.7087 11.9052 14.7087 11.7942 14.7569 11.7942V11.6831Z" fill="#ECB942"/>
<path d="M23.5718 29.9542C23.7164 29.3715 23.7646 29.3715 26.9934 29.3715C27.4271 29.3715 28.5837 29.4686 28.5837 29.4686C29.8367 30.2455 31.4752 29.6628 32.1981 30.1484C32.1499 30.7311 31.8608 30.3426 31.7644 30.8282C31.8608 30.9253 31.909 31.0224 32.0053 31.0224C33.1619 30.9253 33.4993 30.634 33.7402 31.2167C33.5475 31.6051 33.3065 31.508 33.0656 31.508C32.1981 31.3138 31.2825 31.7022 30.415 31.508C29.403 31.2167 29.0175 32.0907 27.5717 32.0907C26.4633 32.0907 26.0778 32.0907 25.5477 32.7705C25.4513 33.0618 25.4031 33.7416 25.1139 33.6445C23.9091 33.2561 22.7044 34.033 22.4634 33.7416C22.367 33.1589 22.5598 32.6734 22.6562 32.0907C22.8007 31.7993 22.9935 31.4109 23.1863 31.1195C23.3309 30.8282 23.4272 30.2455 23.5718 29.9542C23.62 30.2455 23.5718 30.5369 23.7164 30.7311C23.861 30.7311 24.0055 30.9253 24.1501 30.7311C23.9573 30.4397 23.7646 30.1484 23.5718 29.9542ZM24.8248 30.7311C25.5959 30.634 25.7886 31.2167 26.7043 30.4397C26.7525 30.4397 26.7525 30.2455 26.7525 30.0513C24.6802 29.9542 24.9694 30.0513 24.8248 30.7311Z" fill="#ECB942"/>
<path d="M74.8957 29.1772C75.9559 28.7888 75.9077 29.3714 76.3415 29.2743C76.9198 29.0801 77.9318 29.7599 78.1727 29.6628C78.4619 29.4686 78.751 29.9541 79.0402 29.7599C79.3293 29.5657 79.8594 30.1484 80.2932 30.2455C80.5823 30.2455 80.8715 30.5368 81.1606 30.731C81.2088 30.8282 81.257 31.0224 81.3052 31.3137C80.4377 32.5762 79.4257 31.0224 77.98 31.4108C75.7632 31.9935 68.8718 30.9253 67.908 30.4397C67.908 30.2455 67.908 30.0512 67.9561 29.857C68.4863 29.5657 70.2693 29.4686 71.7151 29.9541C73.2572 30.5368 73.6909 30.4397 74.221 29.7599C74.1728 29.5657 74.2692 30.1484 74.462 30.2455C75.2812 30.3426 74.8475 30.0512 75.1367 30.4397C75.1367 30.4397 75.1849 30.4397 75.1849 30.3426C74.9921 30.0512 75.0403 30.2455 74.8957 29.1772Z" fill="#ECB942"/>
<path d="M16.825 5.38425C17.0177 5.09291 17.2587 5.19002 17.4996 5.19002C19.4273 5.38425 26.8488 4.21888 31.1861 4.12177C31.3789 4.12177 31.5716 4.12177 31.7644 4.41311C31.7162 4.51022 31.7162 4.51022 31.668 4.60734C28.2464 5.96694 28.0054 4.70445 27.138 5.48136C16.4876 6.25828 17.0659 6.25828 16.825 5.38425Z" fill="#ECB942"/>
<path d="M41.74 4.31634C41.6918 4.60783 41.6436 4.89931 41.5954 4.89931C41.4508 4.99647 41.2581 5.19079 41.1135 5.09363C40.2461 4.70499 39.3786 5.09363 38.5594 4.99647C37.7401 4.89931 36.9209 4.99647 36.1016 4.99647C35.5233 4.99647 35.0896 4.51066 33.8366 4.99647C33.7402 4.99647 33.3065 4.89931 33.3065 4.70499C33.3065 3.24758 33.8366 3.63622 39.0413 3.73338C40.5834 3.83054 41.0171 3.53906 41.74 4.31634Z" fill="#ECB942"/>
<path d="M56.3903 27.4292C57.3541 27.6234 58.3661 28.0119 59.3299 28.5946C59.4263 28.5946 59.4745 28.8859 59.5709 28.983C59.6191 28.8859 59.7155 28.8859 58.848 29.1772C59.1372 30.0513 59.5227 29.857 59.86 30.1484C60.1974 30.4397 60.5347 30.4397 60.8721 30.5368C60.9203 31.0224 60.8239 31.2166 60.7275 31.4109C60.4383 32.6734 61.3058 33.1589 57.9324 31.0224C57.6432 30.8282 57.3541 30.5368 57.0649 30.3426C56.9686 29.3715 57.0649 29.6628 56.6794 29.1772C56.6794 28.8859 56.5348 28.983 57.4987 28.7888C57.2095 28.0119 56.9204 28.109 56.4384 27.7205C56.4384 27.7205 56.4385 27.235 56.3903 27.4292Z" fill="#ECB942"/>
<path d="M109.979 7.42363C109.594 7.9092 107.666 8.20055 107.666 8.20055C107.521 8.49189 107.425 8.68612 107.329 8.88035C107.136 8.88035 107.04 8.39478 106.799 8.20055C105.064 8.10343 104.726 8.39478 103.666 7.42363C103.666 6.93806 103.714 6.84094 103.859 6.84094C104.052 6.84094 108.582 6.84094 108.582 6.84094C109.69 6.84094 109.883 7.32652 109.979 7.42363Z" fill="#ECB942"/>
<path d="M54.4143 28.3032C53.9324 28.4003 53.4505 28.4974 52.9204 28.5945C52.9686 29.5657 54.077 28.983 54.4625 29.7599C53.8842 30.3426 51.5711 30.0513 50.7518 29.5657C50.029 29.1772 50.0772 29.7599 49.7398 28.8859C49.3543 27.9147 50.9928 27.9147 51.5711 27.8176C52.5349 27.8176 53.4987 27.7205 54.4143 28.3032ZM51.041 28.6917C51.2338 29.1772 51.4747 28.983 51.6675 28.7888C51.4747 28.4003 51.2819 28.3032 51.041 28.6917Z" fill="#ECB942"/>
<path d="M111.81 18.6889C111.618 18.3976 111.425 18.0091 111.232 17.912C110.943 17.8149 110.798 18.786 110.509 18.5918C110.413 18.4947 110.413 18.4947 110.413 17.8149C110.027 17.7178 109.69 17.7178 109.401 18.3004C108.871 17.8149 108.63 17.8149 108.823 17.1351C110.606 16.8437 112.823 17.038 113.304 17.1351C113.353 17.3293 113.401 17.4264 113.401 17.6206C113.449 18.1062 112.774 17.912 113.208 19.0774C113.112 18.8831 113.304 19.2716 112.823 19.7572C112.437 19.66 112.003 19.4658 111.618 19.3687C111.762 18.9802 111.907 18.2033 111.81 18.6889Z" fill="#ECB942"/>
<path d="M53.4988 5.19054C53.1132 4.80189 53.1132 4.80189 53.0168 4.21893C53.4988 4.12177 60.2455 4.0246 61.2576 4.31609C59.9082 5.09338 60.6311 4.80189 59.5709 4.70473C56.4866 4.51041 55.7156 4.89905 54.4144 4.70473C54.0771 4.80189 53.7879 4.89905 53.4988 5.19054Z" fill="#ECB942"/>
<path d="M16.4395 29.0806C16.2949 28.109 15.7648 27.8175 20.343 28.3033C20.4394 28.5948 20.343 28.7891 20.2466 28.7891C19.572 29.0806 17.0178 29.3721 16.4395 29.0806Z" fill="#ECB942"/>
<path d="M44.246 30.4399C45.258 29.7598 45.4026 30.7314 45.6435 30.4399C46.2218 29.857 47.2339 30.3428 48.4387 30.7314C48.4868 30.7314 48.4868 30.9257 48.535 31.1201C48.3905 31.4115 45.2098 31.2172 44.3424 30.7314C44.3424 30.8286 44.2942 30.6343 44.246 30.4399Z" fill="#ECB942"/>
<path d="M16.1021 32.8681C16.343 32.771 16.5358 32.6738 16.7767 32.5766C16.7767 32.5766 17.1623 30.9249 17.4032 32.3823C17.7406 32.5766 18.0779 32.4795 18.3671 32.3823C19.1382 32.0908 20.7285 31.9937 21.1622 32.3823C19.4755 33.0624 17.7888 33.4511 16.1021 32.8681Z" fill="#ECB942"/>
<path d="M63.8599 0.722626C65.3057 1.50028 66.7514 1.50028 59.3782 1.50028C59.5709 1.11145 59.7155 1.30587 59.8601 1.30587C63.3298 1.20866 62.5106 1.50028 63.8599 0.722626Z" fill="#ECB942"/>
<path d="M62.5106 30.3425C62.4624 31.3137 62.2697 31.1194 60.8721 30.5368C59.5227 30.0512 59.4263 29.857 59.2817 29.4685C59.4263 28.8858 59.4263 29.3714 61.4986 29.6627C61.8359 29.7598 62.1733 29.9541 62.5106 30.3425Z" fill="#ECB942"/>
<path d="M42.2219 4.89916C42.4629 4.60768 42.7038 4.802 42.993 4.70484C43.1858 4.51052 43.4749 4.21903 43.6677 3.92755C45.8845 4.21903 45.8845 4.12187 45.8363 4.60768C45.8363 4.70484 45.6435 4.89916 45.5954 4.89916C44.2942 4.70484 44.2942 5.57929 43.3785 5.2878C43.0412 5.09348 42.6557 5.09348 42.2219 4.89916Z" fill="#ECB942"/>
<path d="M43.8605 30.7316C43.5713 31.5093 43.3786 30.6344 42.7039 30.8288C42.4629 30.926 42.1738 31.1204 41.9328 31.0232C41.4509 30.8288 40.969 30.926 40.4871 30.6344C39.8124 30.1484 41.981 30.0512 43.8123 30.3428C43.8123 30.5372 43.8123 30.6344 43.8605 30.7316Z" fill="#ECB942"/>
<path d="M57.8842 32.1879C59.1853 31.7021 59.3781 31.7993 59.9082 32.2851C59.9082 32.4794 59.9082 32.7709 59.86 32.9652C59.7636 33.6453 59.3299 33.3538 59.2817 33.2567C58.8962 32.4794 58.4625 32.4794 57.8842 32.1879Z" fill="#ECB942"/>
<path d="M55.9083 1.49997C56.1493 0.139071 56.3902 1.11115 58.6553 1.30556C57.6432 1.59718 56.5348 1.69439 55.9083 1.49997Z" fill="#ECB942"/>
<path d="M84.1968 7.42424C83.9076 8.00748 83.6184 7.03541 83.2329 7.42424C83.0401 7.61865 82.7991 7.32703 82.5582 7.52145C82.5582 7.52145 82.4136 7.13262 82.5582 7.03541C82.9437 6.84099 84.1968 6.45216 84.1968 7.42424Z" fill="#ECB942"/>
<path d="M27.0416 35.5871C27.3308 34.8098 28.391 35.7814 29.3066 34.907C29.403 34.8098 29.4512 35.4899 29.162 35.6842C28.7765 35.8786 28.391 35.4899 27.4753 35.8786C27.379 35.8786 27.1862 35.8786 27.0416 35.5871Z" fill="#ECB942"/>
<path d="M86.2208 7.22963C86.51 6.64666 87.2329 6.74383 87.6184 7.03531C87.6666 7.03531 87.763 7.32679 87.8112 7.52111C87.5702 7.81259 87.3292 7.61827 87.1365 7.71543C86.9437 7.81259 86.7509 7.42395 86.6064 7.32679C86.4618 7.13247 86.3172 7.13247 86.2208 7.22963Z" fill="#ECB942"/>
<path d="M12.5841 33.6449C12.295 34.1307 11.524 33.7421 11.0903 33.2563C11.0421 33.2563 10.9457 32.8676 11.0903 32.7705C11.4276 32.5762 11.8131 33.1591 12.1504 32.8676C12.295 33.062 12.5359 33.062 12.5841 33.6449Z" fill="#ECB942"/>
<path d="M68.7755 1.5001C69.5465 -0.44311 70.3658 1.20862 70.0766 1.40294C69.7875 1.69442 70.0284 1.59726 68.7755 1.5001Z" fill="#ECB942"/>
<path d="M95.8591 32.5769C95.57 32.8685 95.329 32.5769 95.0398 32.188C95.6182 31.7992 95.6663 31.7992 95.8591 32.5769Z" fill="#ECB942"/>
<path d="M33.4028 32.9652C32.8727 33.7425 32.9209 33.8396 32.6799 33.1595C32.6799 32.868 32.7281 32.5765 32.7281 32.1879C32.7281 31.8964 32.8727 31.7993 32.9209 31.8964C33.1137 32.1879 33.2583 32.5765 33.4028 32.9652Z" fill="#ECB942"/>
<path d="M52.824 35.9753C53.1614 35.6839 53.0168 35.4895 53.6915 36.7526C53.3542 36.9469 53.065 36.9469 52.7758 36.7526C52.7277 36.7526 52.6795 36.5583 52.6313 36.4611C52.6313 36.4611 52.5349 36.6555 52.824 35.9753Z" fill="#ECB942"/>
<path d="M94.4133 32.1879C94.3651 32.7709 94.3651 32.7709 94.2206 32.868C93.9796 32.868 93.7868 32.5766 93.6904 32.0908C93.9314 31.9936 94.1724 31.7993 94.4133 32.1879Z" fill="#ECB942"/>
<path d="M18.1262 30.5367C16.9214 30.6338 17.066 30.7308 17.0178 30.3426C16.9696 30.1484 17.2587 30.2455 18.1262 30.3426C18.1262 30.3426 18.1262 30.4396 18.1262 30.5367Z" fill="#ECB942"/>
<path d="M81.2089 7.13267C81.6426 6.64664 81.6908 6.64664 81.98 7.32709C81.5462 8.00754 81.1125 6.84105 81.2089 7.13267Z" fill="#ECB942"/>
<path d="M98.6542 7.03535C98.9433 6.64652 99.4252 6.93814 99.2325 7.13255C99.1361 7.22976 99.0397 7.52138 98.8951 7.52138C98.7987 7.52138 98.6542 7.42418 98.6542 7.03535Z" fill="#ECB942"/>
<path d="M8.63245 33.3533C8.8252 32.9646 9.06615 33.159 9.25891 33.3533C9.30709 34.5192 9.01796 34.1306 8.63245 33.3533Z" fill="#ECB942"/>
<path d="M47.3784 28.9827C46.3664 28.9827 46.5592 28.9827 46.4628 28.8857C46.5592 28.6917 46.3664 28.6917 47.3784 28.8857V28.9827Z" fill="#ECB942"/>
<path d="M26.9452 28.5945C26.5597 29.0801 26.4633 29.3715 26.2705 28.4003C26.8488 27.6234 26.897 28.8859 26.9452 28.5945Z" fill="#ECB942"/>
<path d="M32.5354 34.5187C32.68 34.13 32.8728 34.13 33.0174 34.2272C33.0656 34.2272 33.0656 34.4215 33.1138 34.5187C33.162 34.713 32.7764 34.713 32.68 34.713C32.6318 34.713 32.5836 34.5187 32.5354 34.5187Z" fill="#ECB942"/>
<path d="M13.6444 9.46326C13.4034 9.46326 13.066 9.65758 13.1624 9.17178C13.2588 8.78314 13.548 8.8803 13.6444 9.46326Z" fill="#ECB942"/>
<path d="M22.2224 28.4975C22.126 28.9833 21.7405 29.0805 21.7405 28.789C21.7405 28.6918 21.7405 28.5947 21.7887 28.5947C21.9333 28.3032 21.9333 28.3032 22.2224 28.4975Z" fill="#ECB942"/>
<path d="M53.7878 35.6843C53.8842 35.1011 54.1252 35.1983 54.1252 35.3927C54.1252 35.4899 54.1252 35.6843 54.077 35.7815C53.9806 35.8787 53.8842 35.8787 53.7878 35.6843Z" fill="#ECB942"/>
<path d="M98.9434 5.48117C98.7506 5.67521 98.606 5.67521 98.4132 5.48117C98.606 5.28712 98.7988 5.28712 98.9434 5.48117Z" fill="#ECB942"/>
<path d="M66.8478 1.5C66.4623 1.40335 66.5105 1.40335 66.5105 1.40335C66.896 1.40335 66.8478 1.40335 66.8478 1.5Z" fill="#ECB942"/>
<path d="M49.1614 31.2166C49.306 31.3137 49.2578 31.6049 49.1614 31.5079C49.0651 31.5079 49.0169 31.4108 49.065 31.2166C49.065 31.3137 49.1132 31.3137 49.1614 31.2166Z" fill="#ECB942"/>
<path d="M111.039 23.1565C111.088 22.9621 110.702 23.2536 110.461 22.5735C110.317 22.865 110.847 22.4763 111.039 23.1565Z" fill="#ECB942"/>
<path d="M94.4133 7.52062C94.3169 7.52062 94.2687 7.13235 94.4133 7.22942C94.4615 7.22942 94.5097 7.32648 94.5579 7.42355C94.5579 7.42355 94.4615 7.52062 94.4133 7.52062Z" fill="#ECB942"/>
<path d="M9.11438 6.35526C8.9698 6.54921 9.06619 6.64619 8.87341 6.35526C9.06619 6.25829 9.01799 6.25829 9.11438 6.35526Z" fill="#ECB942"/>
<path d="M99.5699 5.6756C99.9073 5.9668 99.3771 6.16094 99.4735 5.77267C99.5217 5.77267 99.5699 5.77267 99.5699 5.6756Z" fill="#ECB942"/>
<path d="M50.1253 4.21881C50.2217 4.31597 50.3181 4.41313 50.2699 4.51029C50.1253 4.99609 49.8362 4.51029 49.9326 4.31597C49.9808 4.31597 50.0772 4.21881 50.1253 4.21881Z" fill="#ECB942"/>
<path d="M41.5472 33.1591C41.5472 33.4506 41.4509 33.5477 41.3545 33.0619C41.3545 33.0619 41.4027 32.9648 41.4027 32.8676C41.4509 33.0619 41.4991 33.1591 41.5472 33.1591Z" fill="#ECB942"/>
<path d="M50.8 4.51064L50.7518 4.41329C50.8 4.41329 50.8 4.31595 50.8482 4.31595C50.8964 4.41329 50.8964 4.51064 50.8 4.51064Z" fill="#ECB942"/>
<path d="M2.27118 12.8619C2.31937 12.8619 2.31937 12.7649 2.36756 12.7649C2.51213 12.8619 2.41575 13.153 2.31937 12.959C2.27118 12.959 2.27118 12.959 2.27118 12.8619Z" fill="#ECB942"/>
<path d="M112.148 39.8599C112.243 39.8599 112.243 39.7626 112.243 39.9572L112.148 39.8599Z" fill="#ECB942"/>
<path d="M112.823 39.9568C112.774 39.9568 112.774 40.0539 112.726 39.9568C112.678 39.8598 112.678 39.8598 112.774 39.8598C112.823 39.8598 112.823 39.8598 112.823 39.9568Z" fill="#ECB942"/>
<path d="M55.2328 29.6628C55.2328 29.7594 55.2328 29.7594 55.1372 29.7594L55.2328 29.6628Z" fill="#ECB942"/>
<path d="M21.2105 28.4003C21.2105 28.4003 21.2105 28.4977 21.2587 28.4977C21.2105 28.4977 21.2105 28.595 21.1623 28.595C21.0659 28.4977 21.1141 28.4003 21.2105 28.4003Z" fill="#ECB942"/>
<path d="M33.7397 31.9931C33.644 31.9931 33.6919 31.9931 33.6919 31.8965L33.7397 31.9931Z" fill="#ECB942"/>
<path d="M29.9325 34.5187C29.837 34.4213 29.837 34.4213 29.9325 34.5187V34.5187Z" fill="#ECB942"/>
<path d="M41.2098 28.4002V28.4971C41.1135 28.594 41.1135 28.4971 41.0653 28.4002C41.1617 28.3033 41.1135 28.3033 41.2098 28.4002Z" fill="#ECB942"/>
<path d="M34.1251 36.1697C34.0296 36.0724 34.0296 36.0724 34.1251 36.1697V36.1697Z" fill="#ECB942"/>
<path d="M48.8713 26.652C48.7758 26.652 48.7281 26.652 48.7758 26.458H48.8236C48.8713 26.652 48.8236 26.749 48.8713 26.652Z" fill="#ECB942"/>
<path d="M14.5114 32.382C14.5114 32.5767 14.5591 32.4794 14.4636 32.4794L14.5114 32.382Z" fill="#ECB942"/>
<path d="M7.47583 33.1589C7.52319 33.2564 7.52319 33.3539 7.47583 33.1589V33.1589Z" fill="#ECB942"/>
<path d="M6.89697 33.0619C6.84961 33.256 6.84961 33.256 6.89697 33.0619V33.0619Z" fill="#ECB942"/>
<path d="M104.052 29.6633C104.052 29.5659 104.099 29.4686 104.099 29.4686C104.147 29.4686 104.147 29.5659 104.052 29.6633Z" fill="#ECB942"/>
<path d="M113.208 19.1746C113.255 19.0773 113.255 19.0773 113.208 19.1746V19.1746Z" fill="#ECB942"/>
<path d="M86.1725 7.13232C86.1247 7.32646 86.2203 7.13232 86.1725 7.13232V7.13232Z" fill="#ECB942"/>
<path d="M85.0641 7.42352C85.0641 7.22939 85.0162 7.22939 85.1119 7.32646L85.0641 7.42352Z" fill="#ECB942"/>
<path d="M69.0164 38.3062C69.0646 38.2091 69.0646 38.0147 69.1128 37.9176C69.2574 37.6261 69.3538 38.4034 69.161 38.4034C69.1128 38.5005 69.0646 38.4034 69.0164 38.3062Z" fill="#ECB942"/>
<path d="M37.7401 29.5657C38.8003 29.1773 38.7521 29.76 39.1858 29.6628C39.7641 29.4686 40.7761 30.1484 41.0171 30.0513C41.3062 29.8571 41.5954 30.3426 41.8845 30.1484C42.1737 29.9542 42.7038 30.5369 43.1375 30.634C43.4267 30.634 43.7158 30.9253 44.005 31.1196C44.0532 31.2167 44.1013 31.4109 44.1495 31.7022C43.2821 32.9647 42.2701 31.4109 40.8243 31.7994C38.6075 32.382 31.7161 31.3138 30.7523 30.8282C30.7523 30.634 30.7523 30.4398 30.8005 30.2455C31.3306 29.9542 33.1137 29.8571 34.5594 30.3426C36.1016 30.9253 36.5353 30.8282 37.0654 30.1484C37.0172 29.9542 37.1136 30.5369 37.3064 30.634C38.1256 30.7311 37.6919 30.4398 37.981 30.8282C37.981 30.8282 38.0292 30.8282 38.0292 30.7311C37.8365 30.4398 37.8846 30.634 37.7401 29.5657Z" fill="#ECB942"/>
<path d="M50.8964 32.3825C51.1373 30.245 51.3783 31.7996 53.6433 32.0911C52.6313 32.5769 51.5229 32.674 50.8964 32.3825Z" fill="#ECB942"/>
<path d="M59.619 31.2166C59.8118 30.9253 60.0527 31.0224 60.2937 31.0224C62.2214 31.2166 69.6429 30.0513 73.9802 29.9542C74.1729 29.9542 74.3657 29.9542 74.5585 30.2455C74.5103 30.3426 74.5103 30.3426 74.4621 30.4397C71.0405 31.7993 70.7995 30.5368 69.9321 31.3138C59.2335 32.0907 59.8118 32.0907 59.619 31.2166Z" fill="#ECB942"/>
</svg>
