<svg width="311" height="150" viewBox="0 0 311 150" fill="none" xmlns="http://www.w3.org/2000/svg">
<path d="M303.689 103.587C302.899 103.404 302.111 103.412 301.33 103.996C301.069 104.191 301.073 104.575 300.817 105.153C303.317 105.702 309.219 105.063 310.158 106.972C310.043 108.509 309.516 108.322 307.157 108.732C307.161 109.115 306.897 108.926 308.61 109.484C309.012 110.247 308.749 110.25 305.467 110.285C303.892 110.302 303.484 108.963 301.779 109.173C300.862 109.375 300.064 108.424 299.149 108.817C293.361 107.728 292.183 108.124 292.163 106.205C292.017 104.864 296.491 105.775 297.139 105.001C296.87 104.428 296.86 103.468 295.551 103.866C292.409 104.667 293.314 103.314 290.823 103.725C288.464 104.134 288.602 104.708 286.762 104.536C280.713 103.641 279.929 104.034 278.614 103.856C277.035 103.489 275.33 103.699 273.761 104.292C274.959 105.814 274.559 105.243 274.97 106.773C274.315 106.972 273.661 107.171 273.004 107.178C273.007 107.37 272.877 107.563 273.273 107.751C284.592 110.317 279.443 107.685 283.642 107.448C285.086 107.433 286.253 106.077 286.536 107.993C286.822 110.101 287.868 109.706 289.968 109.683C294.302 109.829 290.372 110.639 301.008 110.717C302.583 110.7 301.4 110.52 306.138 111.621C306.669 112.191 306.811 113.149 306.95 113.915C306.829 114.876 306.44 115.264 306.048 115.46C301.853 116.081 301.322 115.511 303.958 116.442C304.097 117.208 303.968 117.402 303.705 117.405C301.605 117.427 299.502 117.258 297.525 116.511C295.568 117.684 297.402 117.28 287.823 117.767C288.093 118.531 288.485 118.335 288.75 118.524C292.175 119.639 292.046 119.832 292.18 120.023C285.123 123.169 285.868 119.131 279.714 120.732C279.581 120.542 279.579 120.35 279.446 120.159C279.312 119.969 279.183 120.162 279.056 120.547C279.058 120.739 279.714 120.732 279.714 120.732C279.848 120.923 279.854 121.498 279.985 121.497C292.108 125.589 291.173 124.064 291.591 126.362C288.184 126.974 287.39 126.407 285.69 127.001C282.662 126.266 280.055 128.021 276.888 126.52C276.757 126.521 276.621 126.139 276.617 125.755C278.176 124.203 277.524 124.594 278.964 124.195C275.378 120.395 273.862 125.976 269.795 126.212C267.169 126.24 264.685 127.226 262.056 126.871C260.216 126.698 256.546 127.313 256.152 127.318C254.971 127.33 253.781 126.575 252.739 127.354C251.305 128.329 250.12 127.958 249.213 129.119C248.821 129.315 248.821 129.315 249.211 128.927C250.79 129.294 250.273 130.067 249.777 132.759L249.779 132.951C249.775 132.568 249.512 132.57 251.75 133.122C252.294 134.843 252.157 134.269 252.3 135.419C250.468 136.015 248.758 135.649 246.926 136.244C247.065 137.011 247.059 136.435 250.083 136.786C250.214 136.785 250.349 137.167 250.483 137.358C250.222 137.552 249.962 137.747 249.699 137.75C244.709 137.612 244.971 137.609 242.731 136.865C236.409 135.014 239.191 137.287 229.845 135.084C229.187 134.899 228.658 134.521 228.252 133.374C230.079 132.395 232.188 133.14 237.562 132.315C237.562 132.315 237.814 131.352 237.421 131.357C236.108 131.371 235.987 132.331 234.534 131.579C232.686 130.64 232.186 132.948 230.332 131.432C230.198 131.242 229.938 131.437 229.806 131.438C228.237 132.031 227.185 131.85 223.117 132.085C222.736 133.241 223.265 133.619 223.534 134.192C223.542 134.96 223.017 134.965 223.025 135.733C223.552 135.919 224.082 136.297 225.136 136.67C216.607 137.145 216.217 137.533 213.448 136.411C208.964 134.54 206.88 136.098 204.373 134.973C201.338 133.47 184.797 133.648 184.271 133.653C183.75 134.043 183.361 134.431 182.836 134.436C179.55 134.088 179.031 134.669 175.611 134.13C169.954 133.039 161.296 133.707 160.25 134.102C160.387 134.677 160.525 135.251 160.664 136.017C155.548 136.456 156.601 136.636 155.405 135.306C151.983 134.575 152.908 135.141 147.263 135.201C146.874 135.589 146.357 136.362 145.832 136.368C144.784 136.571 144.025 139.266 142.55 136.403C141.891 136.218 141.235 136.225 140.577 136.04C140.453 136.809 140.583 136.616 141.247 137.377C140.728 137.958 140.197 137.388 139.805 137.584C139.28 137.59 138.755 137.595 138.228 137.409C137.165 136.269 137.428 136.266 136.655 137.618C134.685 137.639 135.215 138.017 134.673 136.487C134.283 136.875 133.764 137.457 133.246 138.038C132.456 137.855 131.531 137.289 130.62 138.066C123.537 138.718 124.185 137.943 120.909 138.554C120.255 138.753 119.47 138.953 118.807 138.385C118.146 138.008 117.632 138.973 116.973 138.788C116.313 138.411 115.794 138.993 115.137 139C114.871 138.619 114.475 138.431 114.208 138.05C113.42 138.059 112.776 139.217 111.726 139.228C110.934 138.853 109.876 138.096 108.699 138.493L108.697 138.301L108.83 138.492C108.832 138.683 108.703 138.877 108.703 138.877C104.385 140.266 101.341 137.996 102.397 138.56C102.014 139.524 101.622 139.72 100.178 139.736C94.9268 139.792 94.7955 139.793 94.2663 139.415C92.9453 138.662 93.095 140.387 91.1156 139.449C88.4777 138.326 88.3649 140.054 87.1793 139.683C86.3896 139.5 84.804 138.557 84.0245 139.333C82.5949 140.692 81.2718 139.746 79.5611 139.381C77.6063 140.745 74.0515 139.824 71.826 140.423C71.4342 140.619 70.905 140.241 70.6362 139.668C70.6198 138.133 71.27 137.551 71.7848 136.585C71.5202 136.396 71.3828 135.822 71.1202 135.825C69.0136 135.272 69.026 136.423 68.4926 135.661C67.9613 135.091 67.8198 134.133 67.8095 133.174C67.8033 132.598 67.9326 132.405 68.4515 131.823C68.8515 132.395 69.2515 132.966 69.6536 133.73C70.4453 134.105 71.0956 133.522 71.475 132.175C71.0873 132.755 72.1149 130.633 73.6985 131.383C74.0944 131.571 74.3611 131.952 74.7508 131.564C74.88 131.371 75.0092 131.177 74.8718 130.603C72.5006 129.861 73.2923 130.236 71.7006 128.718C72.6133 128.132 75.8994 128.481 76.0307 128.48C76.2932 128.477 76.4286 128.859 76.6953 129.24C76.4389 129.819 76.3138 130.396 76.1887 130.973C77.1179 131.922 78.0409 132.296 78.8101 130.561C78.006 129.034 78.2727 129.415 78.1352 128.841C78.2542 127.688 78.9167 128.257 79.3044 127.677C79.2962 126.909 79.4172 125.949 79.4069 124.989C79.1423 124.8 78.8756 124.419 78.7443 124.42C75.5916 124.262 76.5126 124.444 75.606 125.606C75.2183 126.185 74.5619 126.192 74.4224 125.426C73.8829 124.089 73.0912 123.713 72.3035 123.722C73.2163 123.136 73.3496 123.327 73.6019 122.365C73.8542 121.402 72.6624 120.456 72.2685 120.46C68.4574 120.117 68.8553 120.496 67.9425 121.082C64.517 119.967 63.1919 118.83 60.0515 119.823C59.1449 120.984 59.67 120.979 57.8177 119.655C57.2926 119.661 56.7695 119.858 56.2444 119.864C55.4424 118.529 57.0177 118.512 57.672 118.313C57.8033 118.312 57.9305 117.927 58.0597 117.733C56.6095 117.173 56.6095 117.173 54.1214 117.775C54.5214 118.347 55.0506 118.725 54.9275 119.494C54.8045 120.263 54.1481 120.27 53.7542 120.274C50.5995 119.924 51.1266 120.11 52.6917 119.134C52.8127 118.173 52.025 118.182 52.146 117.221L52.1481 117.413C52.4086 117.218 52.8024 117.214 52.7962 116.638C52.6526 115.488 53.1757 115.291 53.4341 114.904C53.4218 113.753 53.5613 114.519 53.272 112.027C52.0782 110.889 39.0878 111.603 36.0767 112.403C33.0655 113.203 28.1979 112.296 26.1119 113.662C24.2719 113.489 22.311 114.278 20.4649 113.53C19.1459 112.969 12.1985 114.003 8.12271 113.47C7.33298 113.287 6.95148 114.443 6.02226 113.493C5.88893 113.303 5.88481 112.919 5.88276 112.727C4.55764 111.59 4.95765 112.161 29.6317 111.321C34.2141 110.12 42.0969 110.612 43.141 110.025C44.7081 109.24 47.0855 110.558 49.2967 108.615C48.628 107.471 49.4197 107.846 46.5234 107.11C46.5172 106.534 46.5111 105.959 46.5049 105.383C45.7111 104.816 44.1419 105.408 44.0291 107.137C43.9184 109.057 39.9657 107.756 38.9093 107.191C39.0447 107.574 38.7739 106.809 38.5113 106.812C33.2458 105.525 29.4573 107.293 24.2062 107.349C24.2062 107.349 4.51447 107.56 3.59347 107.378C3.72269 107.185 3.71858 106.801 3.84986 106.799C3.84986 106.799 18.5509 106.45 21.439 106.419C24.721 106.384 22.7436 105.637 25.3692 105.609C33.1125 105.334 32.4582 105.533 35.0817 105.313C36.9175 105.102 35.5944 104.156 40.4538 104.296C40.8476 104.292 41.1081 104.097 41.6332 104.092C41.4978 103.709 41.3645 103.519 41.2332 103.52C40.1789 103.148 38.2036 102.593 37.1574 102.988C35.1944 103.585 34.5298 102.824 33.615 103.218C30.3474 104.596 27.1721 102.327 25.3465 103.498C22.9835 103.524 20.4995 104.51 18.1283 103.768C17.076 103.587 16.0279 103.79 14.8464 103.803C6.57997 104.275 9.8537 103.473 8.93886 103.866C7.50303 104.649 5.91947 103.899 4.3503 104.491C1.96674 102.598 2.50213 103.551 1.81285 100.488C3.89685 98.9305 24.1301 100.249 28.3166 98.8608C31.0631 97.8718 29.8919 98.8439 34.7451 98.4081C35.0077 98.4053 35.1369 98.212 35.9122 97.0522C35.385 96.866 34.8579 96.6797 34.1974 96.3029C33.1204 93.8196 32.983 93.2454 32.4558 93.0591C26.7903 91.2007 26.6611 91.394 27.1656 89.4695C27.9574 89.8448 28.7471 90.0283 29.5389 90.4036C29.8015 90.4008 30.3163 89.4357 29.6558 89.059C29.3912 88.8699 28.8599 88.2998 27.5451 88.122C26.099 87.9456 26.343 86.2158 23.7154 86.052C2.04428 85.3246 3.76939 87.0334 2.82783 84.9324C3.99494 83.5765 10.1814 85.0456 17.7832 83.8126C17.894 81.8923 15.9351 82.8729 14.7309 80.7748C14.3289 80.0114 13.8017 79.8252 13.4017 79.2537C13.2684 79.0632 13.2643 78.6795 13.1309 78.489C14.1668 77.1345 15.2355 78.8502 16.2878 79.0309C17.9821 77.8613 17.0652 78.063 20.0887 78.4144C20.8825 78.9817 20.3738 80.5224 20.9051 81.0924C21.3051 81.6639 20.9216 82.6276 21.1923 83.3923C22.6467 84.3363 22.6467 84.3363 24.7368 83.3543C23.9081 79.525 24.8393 80.6665 27.59 80.0613C27.8526 80.0585 28.111 79.6719 28.2402 79.4786C28.2176 77.3678 28.4905 78.3244 26.8863 75.6548C26.0946 75.2795 25.9797 76.816 25.1941 77.0164C24.6711 77.2139 24.1274 75.4925 23.2106 75.6942C22.8208 76.0822 22.4352 76.854 21.7788 76.861C16.9216 76.9131 12.9997 78.4904 13.3544 74.8403C13.7113 71.382 18.0804 74.7896 21.5982 72.2571C23.1797 72.8159 24.8925 73.3733 26.5971 73.1631C27.3827 72.9628 27.237 71.6209 26.9621 70.4724C26.0288 69.139 24.9703 68.3827 23.6617 68.7806C23.5263 68.3982 23.3909 68.0158 23.2534 67.4416C21.2781 66.887 19.3089 66.9081 17.3439 67.313C17.0813 67.3158 16.9542 67.701 16.829 68.278C16.9583 68.0847 17.0895 68.0833 15.2537 68.2949L15.2558 68.4868C14.0434 65.6211 5.41815 69.3599 1.8387 66.1357C2.09303 65.3653 2.09097 65.1734 2.35147 64.9787C10.0886 64.1282 11.1553 65.6521 13.6352 64.2821C13.629 63.7065 13.6249 63.3227 13.4875 62.7484C14.3982 61.971 15.4546 62.5354 16.3756 62.7175C17.4258 62.7062 18.353 63.4639 19.153 64.6068C19.8094 64.5998 20.4658 64.5928 21.1242 64.7776C24.9354 65.1206 24.9004 61.8585 26.3589 63.1863C26.4922 63.3767 26.8778 62.605 26.8758 62.4131C26.8717 62.0293 26.6029 61.4564 26.3383 61.2674C26.207 61.2688 26.3383 61.2674 25.6819 61.2744C25.4153 60.8934 24.8758 59.5558 23.6943 59.5685C20.5456 59.7941 17.3826 58.6765 14.2402 59.4779C12.9295 59.6838 12.6525 58.3434 10.308 60.0957C7.39936 58.2078 4.2528 58.6253 0.841631 58.8538C0.447797 58.858 0.316519 58.8594 -0.616817 57.526C0.423127 56.5553 1.74618 57.5007 2.65896 56.9152C3.43018 55.3716 2.22607 53.2735 3.92857 52.8714C4.45162 52.6739 3.79729 52.8728 7.33768 52.4511C7.97968 51.1008 7.6904 48.6091 6.63812 48.4284C3.87512 47.8823 6.77351 48.8108 -2.82828 47.1865C-3.48672 47.0016 -3.76572 45.4693 -3.24267 45.2718C-2.06733 44.6835 -1.67144 44.8712 0.822835 44.8444C0.683334 44.0783 0.160278 44.2758 -0.106389 43.8948C-0.373057 43.5139 -0.377168 43.1301 -0.12078 42.5516C5.90772 41.5275 3.93444 41.1648 8.13534 41.1198C10.1045 41.0987 12.0634 40.1181 14.0264 39.5214C17.9503 38.1359 17.1832 40.0633 18.7503 39.2788C20.3175 38.4944 20.9985 40.7901 22.6846 38.8529L22.8179 39.0434C22.422 38.8557 22.2846 38.2814 22.02 38.0923C21.3615 37.9075 19.5318 38.6947 17.1565 37.5687C15.0437 36.4399 13.612 37.6067 12.9453 36.6543C13.5935 35.8797 14.3873 36.4469 15.0417 36.248C15.696 36.0491 16.2191 35.8516 16.8754 35.8445C17.2364 32.7701 14.7503 33.5644 14.2211 33.1862C12.1063 31.8655 10.933 32.6457 7.78438 32.8713C6.85105 31.538 7.51155 31.9147 4.4901 31.7552C3.43988 31.7664 3.94648 30.0338 4.33826 29.8377C6.94943 28.4663 5.91977 30.3965 7.07454 27.8893C8.49804 25.9549 21.7879 28.6912 24.5181 26.1671C25.1683 25.5844 25.5662 25.9639 32.0029 26.2788C34.6306 26.4426 34.6408 27.402 36.8705 27.1862C42.6406 26.5487 41.7278 27.1342 42.3657 25.4001C45.7542 23.0609 47.4814 24.9615 52.0556 22.9934C52.5786 22.7959 53.1037 22.7902 53.6268 22.5927C53.6186 21.8252 53.356 21.828 53.2247 21.8294C47.9633 20.9262 37.4776 22.5738 35.4961 21.4436C35.6232 21.0584 35.6191 20.6746 35.7504 20.6732C36.6652 20.2796 37.7093 19.6927 38.6303 19.8747C41.1307 20.4237 41.1266 20.0399 51.8873 19.5408C55.3005 19.5042 53.9713 17.9832 57.2594 18.5237C62.3875 19.2364 79.5684 17.517 83.9191 19.1976C84.5775 19.3825 85.3673 19.5659 86.0216 19.367C86.8072 19.1667 87.599 19.542 88.6513 19.7226C91.0019 18.546 91.9147 17.9605 92.9732 18.7168C93.5024 19.0949 94.0172 18.1299 95.3341 18.4996C100.727 19.4014 102.29 18.2332 103.079 18.4166C104.794 19.1659 106.361 18.3814 106.626 18.5705C108.084 19.8983 112.127 17.3601 116.876 19.4203C129.557 14.2947 103.192 16.6882 44.3859 17.8939C42.5481 17.9136 37.4364 18.736 34.9401 18.5709C32.4438 18.4057 23.123 18.5056 19.8514 19.5002C19.5929 19.8868 19.3324 20.0815 19.2032 20.2748C16.6945 18.9583 12.9019 20.3423 10.2681 19.6028C10.3973 19.4096 10.5245 19.0244 10.5245 19.0244C12.7583 19.1923 14.9776 18.0171 17.2094 17.9932C18.5221 17.9791 18.3765 16.6373 21.3979 16.7968C24.5527 17.1469 24.5424 16.1874 30.5833 16.3146C34.1298 16.4685 33.3442 16.6689 35.941 13.9543C37.5163 13.9374 37.1184 13.5578 38.0579 15.4669C43.3131 15.7944 117.339 13.658 117.339 13.658C119.309 13.6369 118.64 12.4926 121.791 12.4588C128.223 12.3899 140.695 12.2563 150.672 12.1494C151.591 12.1395 152.503 11.554 153.293 11.7375C154.214 11.9195 155.131 11.7178 155.917 11.5175C157.882 11.1126 157.892 12.072 159.992 12.0495C176.271 11.8751 175.75 12.2645 175.863 10.5361C175.069 9.96889 174.285 10.3611 173.498 10.3695C170.605 10.0167 172.854 11.5279 168.638 10.2297C168.507 10.2311 168.372 9.84873 168.109 9.85155C168.238 9.65825 168.236 9.46636 168.367 9.46495C176.105 8.61442 176.644 9.95202 181.37 9.90139C186.753 9.84372 186.751 9.65183 187.423 11.1799C190.053 11.5356 188.872 11.5482 190.19 12.1098C193.093 13.4221 192.693 12.8507 196.371 13.0032C198.996 12.975 198.609 13.5549 200.319 13.9204C201.109 14.1039 201.895 13.9035 202.684 14.087C206.377 15.5827 207.406 13.6526 213.853 14.9269C214.764 14.1495 215.808 13.5626 216.871 14.7027C216.735 14.3203 217.006 15.085 217.01 15.4688C217.306 18.5362 223.699 14.8214 226.085 16.9069C227.543 18.2346 229.104 16.8745 231.59 16.0803C232.77 15.8757 235.137 16.2342 234.632 18.1587C233.461 19.1308 232.794 18.1784 225.447 18.6409C225.851 19.5961 225.318 18.8342 234.907 19.3072C245.284 19.7718 245.407 19.0028 248.172 19.7408C248.831 19.9257 246.728 19.7563 256.837 19.648C269.179 19.7077 272.365 22.936 284.557 21.2701C285.843 18.7615 285.978 19.1439 288.079 19.1214C289.41 20.8343 289.41 20.8343 290.725 21.0121C292.304 21.379 297.158 20.9432 297.158 20.9432C299.516 20.5341 298.477 21.5048 307.664 21.2145C314.882 20.9452 313.571 21.1512 314.626 21.5237C314.632 22.0994 314.638 22.6751 314.376 22.6779C312.673 23.0799 304.142 23.3632 302.046 23.7695C301.783 23.7723 301.658 24.3494 301.529 24.5427C301.679 26.2683 302.597 26.2585 303.656 27.0148C287.25 27.5744 292.235 27.1371 291.862 29.0602C290.559 30.0338 288.844 29.2845 289.275 32.7343C289.671 32.9219 290.069 33.3015 290.465 33.4892C290.873 34.8282 289.427 34.6518 289.045 35.8073C289.968 36.1812 290.762 36.7485 291.431 37.8928C291.966 38.8466 293.017 38.8353 293.17 40.9447C293.425 40.1744 293.681 39.5959 293.806 39.0188C294.354 41.124 293.817 39.9782 296.071 42.0651C296.469 42.4447 296.738 43.0175 296.748 43.977C296.877 43.7837 297.271 43.7795 294.128 44.5808C293.739 44.9688 293.218 45.3582 293.232 46.7014C294.559 48.0306 293.903 48.0376 298.102 47.8007C298.364 47.7979 298.494 47.6046 298.883 47.2166C298.742 46.2586 298.602 45.4924 298.465 44.9181C298.465 44.9181 304.637 45.0439 305.429 45.4193C305.691 45.4165 305.96 45.9893 305.833 46.3745C305.58 47.3368 305.578 47.1449 302.565 47.7529C301.386 47.9574 301.515 47.7641 301.54 50.0668C300.894 51.0333 300.091 49.6985 299.312 50.4745C299.447 50.8569 299.583 51.2392 299.716 51.4297C301.175 52.7575 300.768 51.6104 301.181 53.3331C298.568 54.5126 296.574 52.231 296.467 54.5351C296.486 56.2621 296.486 56.2621 295.575 57.0395C293.314 54.377 294.106 54.7523 292.272 55.1558C291.77 57.2722 291.778 58.0398 290.463 57.8619C280.468 56.2418 283.869 55.0539 279.288 56.4464C279.034 57.2167 279.169 57.5991 279.567 57.9787L279.565 57.7868C278.558 61.8277 279.707 58.7448 282.89 61.7813C283.953 62.9214 284.738 62.721 290.133 63.8147C290.66 64.001 291.717 64.5654 294.213 64.7306C303.273 64.8254 303.138 64.443 303.932 65.0103C303.946 66.3535 296.451 65.2823 292.783 66.0893C292.269 67.0543 292.673 68.0096 292.42 68.9718C292.166 69.7422 291.914 70.7045 291.659 71.4748C292.585 72.0407 292.33 72.811 292.363 75.8812C292.634 76.646 292.903 77.2188 293.173 77.9836C292.017 80.2989 292.408 80.1028 294.638 79.887C295.294 79.88 295.949 79.6811 296.474 79.6754C300.025 80.2131 303.434 79.7928 306.982 80.1386C308.166 80.3178 308.035 80.3192 307.92 81.8557C310.432 83.556 316.33 82.5333 319.887 83.6467C318.576 83.8526 317.794 84.4367 317.136 84.2519C316.082 83.8793 315.169 84.4648 314.527 85.8151C312.426 85.8376 311.63 85.0785 309.665 85.4834C309.403 85.4862 309.14 85.489 308.876 85.2999C306.89 83.7859 302.962 84.7875 301.643 84.2259C299.928 83.4767 298.228 84.0706 296.519 83.897C295.336 83.7178 294.029 84.3075 292.856 85.0877C292.595 85.2824 292.468 85.6676 292.212 86.2461C294.72 87.5626 294.849 87.3693 293.161 89.1146C293.73 93.1386 293.851 92.1778 302.782 92.4659C303.175 92.4617 303.436 92.267 303.707 93.0317C303.709 93.2236 303.58 93.4169 303.448 93.4183C296.503 94.6442 297.924 92.518 293.094 95.0646C292.569 95.0702 291.902 94.1178 291.252 94.7005C290.731 95.0899 290.204 94.9036 289.681 95.1011C289.683 95.293 289.689 95.8687 289.82 95.8673C293.65 97.9373 293.375 96.7887 295.369 99.0703C294.848 99.4597 294.325 99.6572 293.804 100.047C294.602 100.998 295.262 101.374 296.181 101.365C301.822 100.92 301.574 102.266 303.405 101.671C303.668 101.668 303.935 102.049 303.939 102.433C304.46 102.044 303.432 104.166 303.689 103.587ZM81.7326 23.4431C81.8659 23.6336 81.9993 23.8241 82.1305 23.8226C82.9182 23.8142 82.7787 23.0481 83.0392 22.8534C82.7828 23.4318 82.2515 22.8618 81.7326 23.4431ZM58.6926 78.7685C58.4218 78.0038 58.9593 79.1495 59.2218 79.1466C59.4844 79.1438 59.6136 78.9505 59.4782 78.5682C59.3428 78.1858 58.8218 78.5752 58.6926 78.7685ZM266.536 79.4204C267.326 79.6039 268.112 79.4036 268.764 79.0127C265.87 78.468 267.714 79.024 266.017 80.0017C266.28 79.9989 266.151 80.1922 266.536 79.4204ZM177.578 11.2854L177.573 10.9016C178.244 12.2378 179.813 11.6453 180.468 11.4463C179.415 11.2657 178.494 11.0837 177.578 11.2854ZM16.0696 46.4083C15.6737 46.2206 15.4029 45.4559 14.886 46.2291C15.4152 46.6072 15.807 46.4111 16.0696 46.4083C15.965 48.9043 19.6387 48.673 19.6531 50.0162C19.6634 50.9757 19.9342 51.7404 20.4593 51.7348C22.3013 52.0989 24.012 52.4644 25.8438 51.869C25.975 51.8676 26.1022 51.4824 26.2314 51.2891C25.0314 49.5748 25.1689 50.149 25.6857 49.3758C26.3339 48.6013 26.3319 48.4094 25.9216 46.8785C19.7371 45.6013 18.1577 45.2344 16.0696 46.4083ZM276.693 59.3528L276.696 59.5447C276.16 58.5909 277.335 58.0026 277.194 57.0445C276.269 56.4787 275.473 55.7196 274.679 55.1524C273.364 54.9745 271.405 55.9551 269.293 54.8262C268.897 54.6386 265.746 54.6723 263.383 54.6976C263.252 54.6991 263.122 54.8923 262.993 55.0856C263.131 55.6599 263.137 56.2356 263.276 57.0017C260.794 58.1798 260.241 55.499 254.989 55.5552C251.707 55.5904 248.298 56.0107 245.004 54.8945C242.641 54.9199 240.278 54.9452 238.05 55.3529C240.549 55.7099 242.514 55.305 243.176 55.8737C244.5 56.8191 245.416 56.6173 251.457 56.7445C254.083 56.7164 252.255 57.6955 256.323 57.46C259.603 57.233 259.229 59.1561 262.12 59.3171C262.645 59.3114 265.539 59.8562 265.787 58.5101C266.154 56.0113 267.207 56.192 268.525 56.7536C268.017 58.2943 268.144 57.9091 267.625 58.4904C267.496 58.6837 267.233 58.6865 267.239 59.2622C267.765 59.2566 268.292 59.4428 268.948 59.4358C273.018 59.3922 274.622 62.0618 276.693 59.3528ZM127.461 125.05C126.644 122.372 125.623 125.07 123.775 124.13C122.85 123.564 121.931 123.574 121.145 123.774C116.429 124.784 99.9949 122.658 96.5981 124.229C95.031 125.014 88.2107 125.662 96.2166 125.385C106.323 125.085 119.59 125.71 127.461 125.05ZM175.534 77.9005C177.12 78.8431 182.104 78.4059 205.078 78.1598C205.472 78.1555 205.999 78.3418 206.384 77.57C196.138 77.1041 187.228 78.7348 186.153 76.4434C186.278 75.8663 186.272 75.2906 186.397 74.7136C185.205 73.7668 185.864 73.9516 184.295 74.5442C183.903 74.7403 183.374 74.3621 183.117 74.9406C183.123 75.5163 183.128 75.9001 183.134 76.4757C182.744 76.8637 182.486 77.2503 182.092 77.2545C179.339 77.6679 177.362 76.9214 175.534 77.9005ZM125.975 23.161C126.1 22.5839 125.834 22.203 125.571 22.2058C124.913 22.0209 124.123 21.8375 123.469 22.0364C122.291 22.4328 117.818 21.5212 114.804 22.1292C110.612 22.9418 109.422 22.1869 106.938 23.1731C111.547 24.4671 112.322 23.3073 114.435 24.4361C116.15 25.1854 118.636 24.3911 122.183 24.545C123.627 24.5295 124.804 24.1331 125.975 23.161ZM256.421 29.8238C267.585 30.2799 255.631 29.6403 271.913 29.8497C275.854 29.9994 274.27 29.2487 276.629 28.8396C276.892 28.8368 276.892 28.8368 277.277 28.065C276.883 28.0692 276.488 27.8816 276.225 27.8844C261.13 28.238 261.255 27.6609 256.421 29.8238ZM285.083 70.3938C284.166 70.5955 283.112 70.223 282.199 70.8085C281.941 71.1951 281.816 71.7722 281.557 72.1588C280.119 72.7499 280.509 72.3619 280.257 73.3242C282.253 75.7977 282.484 72.9165 283.937 73.6686C283.945 74.4361 283.293 74.827 283.699 75.9741C286.856 76.516 286.462 76.5202 286.831 74.2133C288.538 74.195 287.356 74.2077 289.857 74.7566C290.119 74.7538 290.501 73.5983 289.838 73.0296C287.871 73.2426 288.925 73.6151 285.083 70.3938ZM41.1525 71.4719C43.4006 72.9831 45.4929 72.193 47.7266 72.361C48.1143 71.7811 48.6353 71.3917 49.023 70.8118C50.7316 70.9854 50.2024 70.6073 51.4045 72.5135C52.3255 72.6955 52.3255 72.6955 52.8444 72.1143C52.8403 71.7305 52.8382 71.5386 52.7029 71.1562C52.5531 69.4306 54.4074 70.946 55.4412 69.3997C53.991 68.8395 52.8115 69.044 47.8209 68.9056C45.3266 68.9323 44.8262 71.2406 42.0673 71.0782C41.934 70.8878 41.6755 71.2743 41.1525 71.4719ZM281.388 44.1415C282.33 46.2425 283.63 45.0771 284.824 46.2157C285.764 48.1248 285.103 47.7481 287.866 48.2942C288.512 47.3277 289.031 46.7464 289.679 45.9718C289.675 45.588 289.396 44.0557 288.738 43.8709C286.237 43.3219 283.876 43.5391 281.388 44.1415ZM280.719 30.7149C280.325 30.7191 279.942 31.6828 280.081 32.4489C280.225 33.5989 280.223 33.407 286.789 33.5286C286.92 33.5271 287.049 33.3339 287.31 33.1391C286.754 30.2664 287.546 30.6418 280.719 30.7149ZM280.575 90.7847C283.599 91.1361 286.353 90.9147 289.11 90.8852C289.504 90.881 289.765 90.6863 290.156 90.4902C290.275 89.3374 290.009 88.9564 288.825 88.7772C281.078 88.6683 281.867 88.8518 280.575 90.7847ZM277.193 32.4799C276.925 31.907 276.656 31.3342 276.262 31.3384C274.422 31.1662 272.716 31.1845 271.015 31.7784C270.623 31.9745 270.496 32.3597 270.373 33.1287C270.252 34.0895 276.676 33.2531 276.676 33.2531C276.808 33.2517 277.066 32.8651 277.193 32.4799ZM61.9199 24.6149C59.0277 24.2621 56.2811 25.2511 53.5243 25.2806C42.8908 25.3945 48.5604 27.6367 61.2697 25.1976C61.5322 25.1948 61.6594 24.8096 61.9199 24.6149ZM60.1939 71.8436C60.196 72.0355 60.198 72.2274 60.0688 72.4207C60.4626 72.4165 60.7272 72.6055 61.1211 72.6013C75.8242 72.4438 74.776 72.6469 75.0304 71.8766C75.0304 71.8766 60.719 71.838 60.1939 71.8436ZM293.956 114.246C296.062 114.8 296.188 114.223 297.111 114.596C298.692 115.155 300.132 114.756 301.572 114.357C301.703 114.355 301.701 114.163 301.83 113.97C299.326 113.037 296.821 112.105 294.196 112.133C293.691 114.057 293.816 113.48 293.956 114.246ZM96.567 23.2842C94.7209 22.5363 94.4665 23.3067 92.0994 22.9482C88.6821 22.601 88.559 23.37 86.7129 22.6221C85.9232 22.4386 85.1355 22.4471 84.352 22.8393C84.352 22.8393 84.2228 23.0326 84.2248 23.2245C84.6289 24.1797 84.233 23.992 95.6522 23.6778C95.9147 23.675 96.1752 23.4803 96.567 23.2842ZM94.5285 127.13C96.3705 127.494 107.535 127.95 107.919 126.987C105.42 126.63 98.2002 126.707 94.5285 127.13ZM281.493 115.148C278.865 114.984 279.917 115.165 277.804 114.036C277.144 113.659 276.367 114.627 273.331 113.124C272.67 112.747 271.749 112.565 271.101 113.34C271.243 114.298 271.639 114.486 272.032 114.481C273.872 114.654 276.235 114.628 277.29 115.001C279.136 115.749 279.136 115.749 281.493 115.148ZM262.214 68.144C267.082 69.0514 268.261 68.8468 269.301 67.8761C269.034 67.4952 268.899 67.1128 268.636 67.1156C266.792 66.5596 264.957 66.7712 262.992 67.1761C262.598 67.1803 262.337 67.375 262.214 68.144ZM211.296 131.636C212.613 132.006 219.725 134.041 221.154 132.682C216.806 131.194 218.91 131.555 211.296 131.636ZM53.1769 78.6357C53.1748 78.4438 53.1707 78.06 53.1707 78.06C52.6394 77.49 51.981 77.3051 51.4559 77.3107C47.257 77.5476 47.7677 76.1988 45.1607 77.9539C45.1607 77.9539 45.0315 78.1472 45.0356 78.531C47.8006 79.269 50.42 78.6652 53.1769 78.6357ZM43.3859 59.3575C42.4649 59.1755 41.5419 58.8015 41.0353 60.5342C40.7809 61.3045 40.3809 60.7331 40.3974 62.2682C40.4036 62.8439 42.504 62.8214 43.5522 62.6182C43.5254 60.1237 43.5357 61.0831 43.3859 59.3575ZM128.333 71.6893C126.885 71.321 119.659 70.8227 118.485 71.6029C118.885 72.1744 125.058 72.3002 128.333 71.6893ZM49.5472 33.9592C52.702 34.3092 55.986 34.466 59.1284 33.6646C55.8424 33.316 52.6917 33.3498 49.5472 33.9592ZM251.056 68.2635C242.91 67.775 242.91 67.775 242.129 68.3591C244.235 68.9123 245.811 68.8954 251.056 68.2635ZM263.347 112.655C263.483 113.038 263.487 113.421 263.489 113.613C265.6 114.55 267.682 112.801 268.74 113.557C268.871 113.556 268.999 113.17 269.13 113.169C268.997 112.979 268.859 112.404 268.859 112.404C266.629 112.62 266.361 112.047 263.347 112.655ZM204.958 128.25C206.01 128.431 207.062 128.611 208.111 128.408C209.29 128.203 210.351 129.152 211.53 128.947C212.447 128.745 212.449 128.937 212.182 128.556C209.678 127.624 207.442 127.264 204.958 128.25ZM41.2262 66.0976C41.2303 66.4813 41.1011 66.6746 41.1031 66.8665L41.2385 67.2489C43.5933 66.456 45.6999 67.0092 47.1398 66.6099C47.2711 66.6085 47.3921 65.6477 46.9962 65.46C45.0188 64.7135 47.6567 65.8367 41.2262 66.0976ZM156.221 125.701C161.08 125.841 159.242 125.861 163.439 125.432C160.941 125.075 158.58 125.292 156.221 125.701ZM24.746 35.1845C23.1583 34.05 22.227 32.9085 20.7912 33.6916C20.3994 33.8877 20.143 34.4661 20.1492 35.0418C20.1574 35.8094 20.2887 35.808 23.9624 35.5767C24.225 35.5739 24.3542 35.3806 24.746 35.1845ZM175.962 130.096C174.385 129.921 171.624 129.567 169.915 129.393C169.39 129.399 168.104 131.907 175.962 130.096ZM279.507 101.351C280.959 102.103 280.303 102.11 284.508 102.449C285.033 102.444 285.156 101.675 285.152 101.291C284.231 101.109 284.489 100.722 280.684 100.955C280.553 100.956 280.161 101.152 279.507 101.351ZM125.127 127.762C118.563 127.832 119.348 127.632 119.354 128.207C122.505 128.174 123.964 129.501 125.127 127.762ZM24.8302 43.0519C24.301 42.6738 25.22 42.6639 19.8335 42.3378C17.731 42.1684 18.5351 43.6951 18.5351 43.6951C19.8499 43.8729 23.1298 43.6459 24.8302 43.0519ZM139.928 124.533C139.261 123.58 139.399 124.154 133.493 124.41C134.548 124.782 139.017 125.31 139.928 124.533ZM94.466 84.5264C92.4947 84.3556 90.5215 83.9929 88.5605 84.7816C90.5338 85.1443 92.503 85.1232 94.466 84.5264ZM247.396 45.2734C247.687 47.957 249.381 46.7874 250.821 46.3881C251.084 46.3853 250.811 45.4287 250.678 45.2382C249.494 45.059 248.444 45.0702 247.396 45.2734ZM266.008 103.607C263.107 102.487 261.298 105.193 262.346 104.99C263.528 104.977 264.709 104.964 266.008 103.607ZM48.8535 104.014C48.0556 103.063 47.2699 103.264 46.6094 102.887C45.0444 103.863 45.6987 103.664 43.9942 103.874C45.5716 104.049 47.1592 105.184 48.8535 104.014ZM26.0608 35.3623C27.3715 35.1563 28.951 35.5232 28.0032 32.8466C26.953 32.8579 27.6053 32.4671 26.0608 35.3623ZM80.5511 23.4557C73.9851 23.3342 73.9913 23.9098 79.6383 24.0413C79.7696 24.0399 80.0301 23.8452 80.5511 23.4557ZM165.953 78.1951C166.486 78.957 167.005 78.3757 167.53 78.3701C168.189 78.555 168.974 78.3546 169.631 78.3476C170.024 78.3434 169.891 78.1529 170.15 77.7663C167.255 77.2216 167.124 77.223 165.953 78.1951ZM65.1558 69.2956C67.0019 70.0435 67.0019 70.0435 68.9628 69.2548C68.8295 69.0643 68.6961 68.8738 68.4336 68.8766C65.0204 68.9132 65.5455 68.9076 65.1558 69.2956ZM41.5295 57.6502C42.9777 58.0185 42.9777 58.0185 43.7592 57.4344C43.2238 56.4806 42.5654 56.2957 41.7818 56.6879C41.6505 56.6894 41.6567 57.265 41.5295 57.6502ZM117.775 127.841C116.458 127.471 115.406 127.29 114.101 128.072C115.418 128.442 116.47 128.622 117.775 127.841ZM251.826 29.873C250.776 29.8842 249.851 29.3184 248.938 29.9039C249.857 29.8941 250.776 29.8842 251.826 29.873ZM168.132 122.311C168.005 122.697 167.74 122.507 171.285 122.469C171.281 122.086 171.545 122.275 168.132 122.311ZM137.583 15.9359C137.716 16.1264 137.454 16.1292 139.948 16.1025C139.946 15.9106 140.34 15.9064 137.583 15.9359ZM206.918 17.1122C207.71 17.4876 208.627 17.2858 209.415 17.2774C209.281 17.0869 209.544 17.0841 206.918 17.1122ZM36.8564 38.1253C37.7795 38.4992 38.5692 38.6827 39.484 38.2891C39.6153 38.2877 39.6112 37.9039 39.7404 37.7106C39.8676 37.3254 38.5507 36.9557 37.2441 37.5454C37.1128 37.5468 36.9836 37.7401 36.8564 38.1253ZM47.1745 57.5897C47.0309 56.4398 46.8976 56.2493 46.3704 56.0631C46.1078 56.0659 45.8453 56.0687 45.7202 56.6458C45.4658 57.4161 46.5263 58.3643 47.1745 57.5897ZM290.392 100.275C291.324 101.417 293.168 101.973 292.885 100.056C292.093 99.6811 291.305 99.6896 290.392 100.275ZM248.823 104.943C250.271 105.311 250.271 105.311 250.656 104.539C249.206 103.979 248.939 103.598 248.683 104.176C248.683 104.176 248.819 104.559 248.823 104.943ZM54.0638 112.403C54.07 112.978 53.8074 112.981 54.9951 113.544C55.5222 113.73 56.1786 113.723 56.2996 112.762C56.1642 112.38 56.5581 112.376 54.0638 112.403ZM134.581 127.852C135.5 127.843 136.287 127.834 137.206 127.824C136.416 127.641 135.629 127.649 134.841 127.658C134.71 127.659 134.71 127.659 134.581 127.852ZM219.407 128.863C221.522 130.183 221.259 130.186 221.649 129.798C220.98 128.654 220.98 128.654 219.407 128.863ZM180.33 72.0918C181.117 72.0834 181.778 72.4601 182.559 71.876C181.768 71.5007 181.111 71.5077 180.33 72.0918ZM294.976 50.1371C297.341 50.3037 296.949 50.4998 297.205 49.9213C296.414 49.546 295.624 49.3625 294.976 50.1371ZM186.943 15.4071C187.602 15.592 188.269 16.5444 188.781 15.3874C188.125 15.3944 187.469 15.4015 186.943 15.4071ZM141.536 127.586C140.878 127.401 139.69 126.838 139.175 127.803C139.971 128.562 140.623 128.172 141.536 127.586ZM112.655 127.895C112.651 127.512 112.916 127.701 111.078 127.72C111.213 128.103 110.949 127.914 112.655 127.895ZM218.102 19.2953C218.756 19.0964 219.287 19.6665 219.935 18.8919C219.41 18.8975 218.883 18.7112 218.102 19.2953ZM81.9279 127.457C82.453 127.451 83.2448 127.827 83.5012 127.248C82.974 127.062 82.4468 126.876 81.9279 127.457ZM149.018 78.3765C149.016 78.1846 149.147 78.1832 147.441 78.2015C147.443 78.3934 147.311 78.3948 149.018 78.3765ZM130.739 124.631C130.078 124.254 129.555 124.452 129.163 124.648C129.69 124.834 130.088 125.214 130.739 124.631ZM233.462 68.2601C233.464 68.452 233.333 68.4534 234.908 68.4365C235.038 68.2432 235.169 68.2418 233.462 68.2601ZM76.0518 69.1789C75.1267 68.613 75.1267 68.613 74.3452 69.1971C74.8765 69.7672 75.5349 69.952 76.0518 69.1789ZM143.632 16.8307C143.093 15.4931 142.713 16.8405 142.846 17.031C143.374 17.2173 143.372 17.0254 143.632 16.8307ZM263.426 46.445C263.159 46.064 262.763 45.8764 262.376 46.4563C262.77 46.452 263.163 46.4478 263.426 46.445ZM261.029 80.0552C261.821 80.4305 261.821 80.4305 262.208 79.8506C261.812 79.663 261.414 79.2834 261.029 80.0552ZM52.1316 30.0933C51.8629 29.5204 51.467 29.3328 50.9481 29.9141C51.4752 30.1003 51.8691 30.0961 52.1316 30.0933ZM13.1465 43.1771C13.1445 42.9852 13.007 42.411 12.4819 42.4166C11.8235 42.2317 11.965 43.1898 12.3588 43.1855C12.6214 43.1827 12.884 43.1799 13.1465 43.1771ZM88.1294 69.0495C89.315 69.4206 88.9212 69.4248 89.5734 69.034C89.0422 68.4639 89.436 68.4597 88.1294 69.0495ZM81.5634 68.9279C80.907 68.9349 80.6445 68.9377 80.6465 69.1296C80.6486 69.3215 80.6507 69.5134 80.7819 69.512C81.0507 70.0849 81.0507 70.0849 81.5634 68.9279ZM268.919 44.467C269.315 44.6547 269.711 44.8424 270.1 44.4544C269.703 44.0748 269.309 44.079 268.919 44.467ZM132.741 127.68C132.082 127.495 132.345 127.493 132.216 127.686C132.347 127.684 132.609 127.682 132.741 127.68ZM212.012 124.912C211.745 124.531 211.483 124.534 211.093 124.922C211.362 125.495 211.756 125.49 212.012 124.912ZM167.377 125.39C166.852 125.396 166.852 125.396 166.854 125.588C167.511 125.581 167.38 125.582 167.377 125.39ZM290.569 92.2129C290.437 92.2143 290.171 91.8334 290.046 92.4104C290.573 92.5967 290.573 92.5967 290.569 92.2129ZM40.6646 87.2138C41.1939 87.592 41.0626 87.5934 41.4503 87.0135C41.1877 87.0163 41.319 87.0149 40.6646 87.2138ZM98.5376 84.6747C99.0669 85.0528 98.9356 85.0542 99.194 84.6677C99.0607 84.4772 99.1899 84.2839 98.5376 84.6747ZM155.647 72.1643C155.91 72.1615 155.779 72.1629 155.647 72.1643C155.779 72.1629 155.91 72.1615 155.647 72.1643ZM152.89 72.1939C153.153 72.1911 153.022 72.1925 152.89 72.1939C153.022 72.1925 153.153 72.1911 152.89 72.1939ZM88.4248 72.1169C88.1582 71.7359 87.8956 71.7387 87.6372 72.1253C88.031 72.1211 88.1623 72.1197 88.4248 72.1169ZM57.0145 69.1909C57.0165 69.3828 56.8832 69.1923 57.5396 69.1853C57.5396 69.1853 57.5396 69.1853 57.0145 69.1909ZM64.1537 24.7829C63.4952 24.598 63.6265 24.5966 63.364 24.5994C63.6306 24.9804 63.764 25.1709 64.1537 24.7829ZM257.375 45.3584C257.112 45.3612 257.243 45.3598 257.375 45.3584C257.243 45.3598 257.112 45.3612 257.375 45.3584ZM35.1988 30.4666C35.2009 30.6585 35.0696 30.6599 35.0717 30.8518C34.9589 32.5802 35.605 31.6137 35.1988 30.4666ZM244.658 59.3122C243.999 59.1274 244.262 59.1246 244.001 59.3193C244.264 59.3164 244.526 59.3136 244.658 59.3122ZM246.758 59.2897C246.495 59.2925 246.627 59.2911 246.758 59.2897C246.627 59.2911 246.495 59.2925 246.758 59.2897ZM136.01 16.1447C135.747 16.1475 135.747 16.1475 136.01 16.1447V16.1447ZM55.9836 21.9917C55.719 21.8027 55.8503 21.8013 55.8523 21.9932L55.9836 21.9917ZM70.4447 23.7559C70.3135 23.7573 70.3135 23.7573 70.4447 23.7559V23.7559ZM220.364 22.1498C220.627 22.147 220.627 22.147 220.364 22.1498V22.1498ZM32.2288 35.1043L32.2267 34.9124C31.9642 34.9152 31.9662 35.1071 32.0996 35.2976C32.0996 35.2976 32.0975 35.1057 32.2288 35.1043ZM14.4572 42.9712C14.1967 43.1659 14.1967 43.1659 14.4593 43.163L14.4572 42.9712ZM50.1957 45.4669C49.9331 45.4698 49.9352 45.6616 50.0685 45.8521C50.0685 45.8521 50.1998 45.8507 50.331 45.8493C50.329 45.6574 50.329 45.6574 50.1957 45.4669ZM52.1648 45.4458L52.1669 45.6377C52.4315 45.8268 52.6899 45.4402 52.294 45.2526C52.2961 45.4444 52.2961 45.4444 52.1648 45.4458ZM278.634 44.363C278.894 44.1683 278.896 44.3601 278.634 44.363V44.363ZM255.408 45.5713C255.408 45.5713 255.406 45.3795 255.274 45.3809C255.012 45.3837 255.014 45.5756 255.145 45.5742C255.276 45.5728 255.408 45.5713 255.408 45.5713ZM259.356 46.4886C259.092 46.2995 259.092 46.2995 259.094 46.4914L259.356 46.4886ZM279.571 46.0801C279.836 46.2692 279.836 46.2692 279.834 46.0773L279.571 46.0801ZM288.728 55.1938C288.726 55.0019 288.724 54.81 288.461 54.8128L288.332 55.0061C288.463 55.0047 288.595 55.0033 288.728 55.1938ZM78.8086 69.1493C78.544 68.9602 78.6753 68.9588 78.4148 69.1535C78.6794 69.3426 78.5481 69.344 78.8086 69.1493ZM54.8156 72.285C55.0782 72.2822 55.0761 72.0903 54.8136 72.0932C54.8136 72.0932 54.6823 72.0946 54.551 72.096C54.6844 72.2864 54.6844 72.2864 54.8156 72.285ZM149.475 72.0386C149.477 72.2304 149.477 72.2304 149.74 72.2276L149.475 72.0386ZM186.366 71.8352C186.366 71.8352 186.364 71.6433 186.233 71.6448C185.97 71.6476 185.973 71.8395 186.106 72.0299C186.237 72.0285 186.368 72.0271 186.366 71.8352ZM286.234 79.7851C285.97 79.5961 285.97 79.5961 285.972 79.7879L286.234 79.7851ZM96.4351 84.5053C96.5726 85.0796 97.0915 84.4983 96.6977 84.5025C96.5664 84.5039 96.5664 84.5039 96.4351 84.5053ZM290.378 86.6495C290.776 87.0291 290.77 86.4534 290.507 86.4563L290.378 86.6495ZM136.319 94.0574C136.057 94.0602 136.057 94.0602 136.19 94.2507C136.19 94.2507 136.321 94.2493 136.319 94.0574ZM38.4065 97.0255C38.146 97.2202 38.1439 97.0283 38.4085 97.2174L38.4065 97.0255ZM258.439 95.6277C258.574 96.0101 258.443 96.0115 258.703 95.8168C258.699 95.433 258.832 95.6235 258.439 95.6277ZM267.441 102.632C267.439 102.44 267.439 102.44 267.177 102.443L267.441 102.632ZM271.125 103.36C270.863 103.363 270.865 103.555 270.998 103.745C270.998 103.745 271.13 103.744 271.261 103.743C271.259 103.551 271.125 103.36 271.125 103.36ZM58.8594 106.594C58.8615 106.786 58.8615 106.786 58.9927 106.784L58.8594 106.594ZM284.816 118.95C284.82 119.334 284.686 119.144 285.08 119.139L284.816 118.95ZM79.5382 124.988C79.7946 124.409 79.3987 124.222 79.4048 124.797C79.2756 124.991 79.4069 124.989 79.5382 124.988ZM208.205 124.953C207.94 124.764 207.94 124.764 207.944 125.147C208.207 125.145 208.076 125.146 208.205 124.953ZM245.935 129.538C246.196 129.343 246.198 129.535 245.935 129.538V129.538ZM209.721 131.653C209.725 132.037 209.592 131.847 209.986 131.842L209.721 131.653ZM96.7461 138.045C96.8795 138.236 96.8795 138.236 96.8774 138.044L96.7461 138.045ZM239.886 128.643C239.753 128.453 239.753 128.453 239.755 128.645L239.886 128.643ZM282.035 80.022C282.163 79.6368 282.165 79.8287 282.031 79.6383L282.035 80.022ZM292.381 40.7613C292.254 41.1465 292.252 40.9546 292.514 40.9518L292.381 40.7613ZM36.2532 30.8391C36.126 31.2243 36.124 31.0324 36.2552 31.031L36.2532 30.8391Z" fill="#ECB942"/>
<path d="M21.2907 129.45C21.6722 128.295 21.8035 128.293 30.5991 128.199C31.7806 128.186 34.9333 128.345 34.9333 128.345C38.363 129.843 42.8141 128.644 44.7935 129.582C44.6746 130.735 43.8787 129.976 43.6264 130.938C43.891 131.127 44.0244 131.318 44.2869 131.315C47.4355 131.089 48.3483 130.504 49.017 131.648C48.5002 132.421 47.8417 132.236 47.1853 132.243C44.8182 131.885 42.3321 132.679 39.965 132.321C37.202 131.775 36.1703 133.513 32.232 133.555C29.2126 133.587 28.1624 133.599 26.7327 134.957C26.4763 135.536 26.3594 136.88 25.5697 136.697C22.2795 135.965 19.014 137.535 18.3515 136.966C18.0766 135.818 18.5914 134.853 18.8416 133.699C19.2293 133.119 19.7462 132.345 20.2651 131.764C20.6528 131.184 20.903 130.03 21.2907 129.45C21.4281 130.025 21.303 130.602 21.701 130.981C22.0948 130.977 22.4927 131.356 22.8825 130.968C22.3512 130.398 21.8199 129.828 21.2907 129.45ZM24.7203 130.949C26.8187 130.734 27.3562 131.88 29.834 130.318C29.9653 130.317 29.9612 129.933 29.9571 129.549C24.3101 129.418 25.0998 129.601 24.7203 130.949Z" fill="#ECB942"/>
<path d="M276.473 136.887C279.352 136.089 279.234 137.242 280.413 137.037C281.984 136.637 284.755 137.95 285.41 137.751C286.193 137.359 286.991 138.31 287.775 137.918C288.558 137.526 290.015 138.662 291.198 138.841C291.986 138.832 292.78 139.4 293.572 139.775C293.705 139.965 293.84 140.348 293.978 140.922C291.641 143.442 288.852 140.401 284.922 141.211C278.895 142.427 260.1 140.517 257.464 139.586C257.46 139.202 257.456 138.818 257.583 138.433C259.021 137.842 263.876 137.598 267.825 138.515C272.038 139.622 273.217 139.417 274.647 138.059C274.512 137.676 274.787 138.825 275.314 139.011C277.547 139.179 276.36 138.616 277.156 139.375C277.156 139.375 277.287 139.374 277.285 139.182C276.754 138.612 277.02 138.993 276.473 136.887Z" fill="#ECB942"/>
<path d="M41.7078 13.1249C42.2267 12.5436 42.8852 12.7285 43.5416 12.7215C48.7968 13.049 68.9889 10.5297 80.8019 10.2113C81.327 10.2056 81.8521 10.2 82.3834 10.77C82.2542 10.9633 82.2542 10.9633 82.1249 11.1566C72.833 13.9429 72.1499 11.4554 69.8033 13.0158C40.8073 14.8618 42.3827 14.8449 41.7078 13.1249Z" fill="#ECB942"/>
<path d="M109.556 10.2868C109.431 10.8638 109.306 11.4409 109.174 11.4423C108.783 11.6384 108.262 12.0278 107.866 11.8402C105.494 11.0979 103.14 11.8908 100.906 11.7228C98.6721 11.5548 96.4425 11.7706 94.2107 11.7945C92.6354 11.8114 91.4436 10.8646 88.0407 11.8606C87.7781 11.8634 86.5946 11.6842 86.5904 11.3004C86.5596 8.4221 88.0119 9.17419 102.192 9.21418C106.395 9.36106 107.57 8.77274 109.556 10.2868Z" fill="#ECB942"/>
<path d="M294.333 137.272C296.962 137.628 299.727 138.366 302.365 139.489C302.628 139.486 302.765 140.06 303.03 140.249C303.159 140.056 303.422 140.053 301.065 140.654C301.871 142.373 302.917 141.978 303.842 142.544C304.767 143.109 305.686 143.1 306.607 143.282C306.749 144.24 306.49 144.626 306.232 145.013C305.471 147.516 307.844 148.45 298.609 144.327C297.818 143.952 297.024 143.384 296.232 143.009C295.949 141.093 296.218 141.666 295.157 140.718C295.151 140.142 294.759 140.338 297.381 139.926C296.577 138.399 295.791 138.6 294.47 137.846C294.339 137.848 294.46 136.887 294.333 137.272Z" fill="#ECB942"/>
<path d="M295.511 14.4363C294.471 15.407 289.226 16.039 289.226 16.039C288.838 16.6188 288.58 17.0054 288.322 17.392C287.796 17.3976 287.524 16.441 286.863 16.0643C282.135 15.923 281.222 16.5085 278.314 14.6206C278.303 13.6611 278.433 13.4678 278.826 13.4636C279.351 13.458 291.692 13.3258 291.692 13.3258C294.711 13.2934 295.246 14.2473 295.511 14.4363Z" fill="#ECB942"/>
<path d="M308.243 87.6096C306.932 87.8155 305.621 88.0215 304.179 88.2288C304.331 90.1463 307.338 88.9626 308.405 90.4865C306.842 91.6547 300.534 91.1466 298.292 90.211C296.315 89.4646 296.458 90.6145 295.521 88.8973C294.45 86.9897 298.914 86.9419 300.487 86.7331C303.11 86.5131 305.736 86.485 308.243 87.6096ZM299.193 88.4742C299.728 89.428 300.38 89.0372 300.901 88.6478C300.237 87.8873 299.71 87.701 299.193 88.4742Z" fill="#ECB942"/>
<path d="M300.738 36.6418C300.207 36.0718 299.673 35.3099 299.146 35.1236C298.357 34.9401 297.983 36.8633 297.191 36.4879C296.927 36.2988 296.927 36.2988 296.912 34.9556C295.86 34.775 294.941 34.7848 294.166 35.9446C292.712 35.0006 292.055 35.0077 292.566 33.6588C297.417 33.0311 303.46 33.3502 304.775 33.528C304.91 33.9104 305.044 34.1009 305.048 34.4846C305.189 35.4427 303.347 35.0786 304.553 37.3686C304.287 36.9876 304.82 37.7496 303.518 38.7231C302.465 38.5424 301.28 38.1713 300.227 37.9907C300.613 37.2189 300.99 35.6796 300.738 36.6418Z" fill="#ECB942"/>
<path d="M141.606 11.6712C140.548 10.9149 140.548 10.9149 140.273 9.76635C141.584 9.5604 159.96 9.17161 162.723 9.71774C159.064 11.2922 161.027 10.6955 158.137 10.5345C149.731 10.2408 147.639 11.0308 144.09 10.685C143.173 10.8867 142.388 11.0871 141.606 11.6712Z" fill="#ECB942"/>
<path d="M22.3529 118.308C21.9385 116.393 20.4883 115.833 32.97 116.659C33.2387 117.232 32.9803 117.618 32.7177 117.621C30.7547 118.218 23.9344 118.867 22.3529 118.308Z" fill="#ECB942"/>
<path d="M263.831 133.377C266.573 132.004 266.988 133.919 267.638 133.336C269.201 132.168 271.968 133.098 275.258 133.83C275.389 133.829 275.394 134.212 275.529 134.595C275.141 135.175 266.473 134.884 264.1 133.95C263.968 133.951 263.964 133.567 263.831 133.377Z" fill="#ECB942"/>
<path d="M21.3829 125.803C22.0372 125.604 22.5603 125.407 23.2146 125.208C23.2146 125.208 24.2299 121.934 24.9171 124.806C25.8402 125.179 26.7571 124.978 27.5427 124.777C29.637 124.179 33.9671 123.941 35.1568 124.696C30.7077 126.087 25.9899 126.905 21.3829 125.803Z" fill="#ECB942"/>
<path d="M169.736 2.54181C173.691 4.03473 177.629 3.99254 157.544 4.20772C158.061 3.43454 158.459 3.8141 158.853 3.80988C168.303 3.51673 166.077 4.1163 169.736 2.54181Z" fill="#ECB942"/>
<path d="M310.137 129.618C310.026 131.539 309.497 131.16 305.678 130.05C301.992 129.13 301.725 128.749 301.323 127.985C301.704 126.83 301.715 127.789 307.366 128.305C308.285 128.295 309.208 128.669 310.137 129.618Z" fill="#ECB942"/>
<path d="M110.881 11.4245C111.531 10.8418 112.192 11.2186 112.977 11.0182C113.498 10.6288 114.28 10.0447 114.799 9.46342C120.844 9.97439 120.842 9.7825 120.721 10.7434C120.723 10.9352 120.202 11.3247 120.07 11.3261C116.522 10.9803 116.54 12.7073 114.04 12.1583C113.117 11.7844 112.067 11.7956 110.881 11.4245Z" fill="#ECB942"/>
<path d="M262.656 133.965C261.884 135.508 261.341 133.787 259.507 134.19C258.853 134.389 258.069 134.782 257.411 134.597C256.094 134.227 254.783 134.433 253.464 133.871C251.616 132.932 257.521 132.676 262.516 133.199C262.649 133.389 262.651 133.581 262.656 133.965Z" fill="#ECB942"/>
<path d="M148.092 4.30859C148.72 1.61511 149.396 3.52697 155.571 3.84464C152.82 4.44985 149.803 4.67409 148.092 4.30859Z" fill="#ECB942"/>
<path d="M225.278 15.1886C224.502 16.3483 223.694 14.4379 222.652 15.2167C222.131 15.6061 221.468 15.0375 220.816 15.4283C220.816 15.4283 220.414 14.6649 220.806 14.4688C221.852 14.0738 225.257 13.2697 225.278 15.1886Z" fill="#ECB942"/>
<path d="M51.3719 130.855C52.1431 129.311 55.0517 131.199 57.5275 129.446C57.788 129.251 57.9337 130.593 57.1501 130.985C56.104 131.38 55.0456 130.624 52.5595 131.418C52.297 131.421 51.7719 131.427 51.3719 130.855Z" fill="#ECB942"/>
<path d="M230.787 14.7456C231.562 13.5858 233.534 13.7566 234.59 14.321C234.721 14.3196 234.99 14.8925 235.125 15.2748C234.475 15.8575 233.815 15.4808 233.292 15.6783C232.769 15.8758 232.235 15.1139 231.839 14.9262C231.441 14.5467 231.048 14.5509 230.787 14.7456Z" fill="#ECB942"/>
<path d="M22.1676 88.7557C21.3902 89.7235 19.2816 88.9785 18.0898 88.0317C17.9585 88.0331 17.6877 87.2684 18.0795 87.0723C18.9943 86.6786 20.0569 87.8187 20.9697 87.2332C21.3676 87.6128 22.024 87.6057 22.1676 88.7557Z" fill="#ECB942"/>
<path d="M183.143 3.93471C185.202 0.0744157 187.469 3.31263 186.686 3.70484C185.904 4.28895 186.558 4.09003 183.143 3.93471Z" fill="#ECB942"/>
<path d="M15.9866 136.8C15.2051 137.384 14.5424 136.815 13.7465 136.056C15.1824 135.273 15.445 135.27 15.9866 136.8Z" fill="#ECB942"/>
<path d="M304.478 140.618C306.445 140.405 306.577 140.404 307.379 141.739C306.333 142.134 306.333 142.134 304.478 140.618Z" fill="#ECB942"/>
<path d="M68.645 125.488C67.2174 127.039 67.3507 127.229 66.6799 125.893C66.6738 125.318 66.7989 124.74 66.7906 123.973C66.7845 123.397 67.1763 123.201 67.3096 123.392C67.8429 124.154 68.2429 124.725 68.645 125.488Z" fill="#ECB942"/>
<path d="M304.204 102.814C305.117 102.228 304.719 101.849 306.584 104.324C305.669 104.718 304.881 104.726 304.089 104.351C303.958 104.352 303.823 103.97 303.689 103.779C303.689 103.779 303.431 104.166 304.204 102.814Z" fill="#ECB942"/>
<path d="M12.0403 136.075C11.9213 137.228 11.9213 137.228 11.5294 137.424C10.8729 137.431 10.3415 136.861 10.0686 135.904C10.7231 135.705 11.3755 135.314 12.0403 136.075Z" fill="#ECB942"/>
<path d="M26.9791 121.137C23.6986 121.365 24.0945 121.552 23.955 120.786C23.8196 120.403 24.6095 120.587 26.975 120.754C26.975 120.754 26.9771 120.945 26.9791 121.137Z" fill="#ECB942"/>
<path d="M217.132 14.7C218.303 13.7278 218.435 13.7264 219.237 15.0613C218.07 16.4174 216.863 14.1271 217.132 14.7Z" fill="#ECB942"/>
<path d="M264.653 13.9992C265.432 13.2232 266.751 13.7848 266.23 14.1742C265.969 14.3689 265.713 14.9474 265.319 14.9516C265.057 14.9544 264.661 14.7667 264.653 13.9992Z" fill="#ECB942"/>
<path d="M19.9826 68.6283C20.4996 67.855 21.1602 68.2318 21.6896 68.61C21.8456 70.9118 21.0495 70.1525 19.9826 68.6283Z" fill="#ECB942"/>
<path d="M272.202 130.408C269.445 130.438 269.97 130.432 269.705 130.243C269.964 129.857 269.439 129.862 272.2 130.216C272.331 130.215 272.331 130.215 272.202 130.408Z" fill="#ECB942"/>
<path d="M294.331 137.08C293.422 138.05 293.947 138.044 291.176 136.73C292.489 136.716 293.402 136.13 294.331 137.08Z" fill="#ECB942"/>
<path d="M50.9616 117.042C49.9215 118.013 49.665 118.591 49.1192 116.678C50.5471 115.127 50.8365 117.619 50.9616 117.042Z" fill="#ECB942"/>
<path d="M66.3149 128.585C66.7007 127.812 67.2262 127.807 67.6223 127.994C67.7537 127.993 67.7578 128.377 67.8912 128.568C68.0267 128.95 66.9758 128.962 66.7131 128.964C66.5817 128.966 66.4462 128.583 66.3149 128.585Z" fill="#ECB942"/>
<path d="M33.1306 21.2779C32.4738 21.2849 31.5584 21.6788 31.8109 20.7159C32.0654 19.9451 32.8556 20.1287 33.1306 21.2779Z" fill="#ECB942"/>
<path d="M38.0939 116.988C37.8417 117.95 36.7935 118.153 36.7873 117.578C36.7853 117.386 36.7832 117.194 36.9145 117.192C37.3022 116.612 37.3022 116.612 38.0939 116.988Z" fill="#ECB942"/>
<path d="M306.69 102.02C306.94 100.866 307.599 101.05 307.603 101.434C307.605 101.626 307.609 102.01 307.48 102.203C307.351 102.397 306.959 102.593 306.69 102.02Z" fill="#ECB942"/>
<path d="M295.269 126.515C294.743 126.521 294.218 126.527 293.692 126.532C293.553 125.766 293.947 125.761 294.078 125.76C295.525 125.936 295.01 126.902 295.269 126.515Z" fill="#ECB942"/>
<path d="M265.408 10.9205C264.887 11.3101 264.493 11.3144 263.963 10.936C264.485 10.5463 265.01 10.5407 265.408 10.9205Z" fill="#ECB942"/>
<path d="M68.4019 139.501C67.2176 139.322 67.351 139.512 67.3469 139.128C68.5291 139.115 68.2664 139.118 68.4019 139.501Z" fill="#ECB942"/>
<path d="M177.893 3.98972C176.84 3.80897 176.971 3.80756 176.971 3.80756C178.022 3.7963 177.891 3.79771 177.893 3.98972Z" fill="#ECB942"/>
<path d="M277.107 134.77C277.503 134.958 277.378 135.535 277.113 135.346C276.85 135.349 276.717 135.158 276.844 134.773C276.975 134.771 277.107 134.77 277.107 134.77Z" fill="#ECB942"/>
<path d="M148.464 137.108C148.456 136.34 148.325 136.341 148.85 136.336L148.854 136.72C148.725 136.913 148.596 137.107 148.464 137.108Z" fill="#ECB942"/>
<path d="M307.678 132.907C307.675 132.715 307.673 132.523 307.805 132.522C308.065 132.327 308.197 132.326 308.462 132.515C308.728 132.896 308.213 133.862 307.678 132.907Z" fill="#ECB942"/>
<path d="M310.056 109.852C310.317 109.657 310.186 109.659 310.715 110.037C310.459 110.616 310.323 110.233 310.056 109.852Z" fill="#ECB942"/>
<path d="M298.732 45.4914C298.859 45.1062 297.815 45.6931 297.144 44.3569C296.757 44.9368 298.193 44.1538 298.732 45.4914Z" fill="#ECB942"/>
<path d="M253.111 15.0827C252.848 15.0855 252.708 14.3189 253.104 14.5067C253.236 14.5053 253.369 14.6959 253.503 14.8865C253.503 14.8865 253.242 15.0813 253.111 15.0827Z" fill="#ECB942"/>
<path d="M20.7243 15.2688C20.3343 15.657 20.5991 15.8462 20.0675 15.2758C20.5909 15.0782 20.4595 15.0796 20.7243 15.2688Z" fill="#ECB942"/>
<path d="M267.118 11.2859C268.044 11.8521 266.603 12.2516 266.858 11.4807C266.989 11.4793 267.12 11.4779 267.118 11.2859Z" fill="#ECB942"/>
<path d="M132.397 9.8505C132.661 10.0397 132.926 10.2289 132.797 10.4223C132.413 11.3866 131.615 10.435 131.873 10.0481C132.004 10.0467 132.265 9.8519 132.397 9.8505Z" fill="#ECB942"/>
<path d="M256.537 138.829C256.543 139.405 256.283 139.6 256.01 138.642C256.01 138.642 256.139 138.449 256.137 138.257C256.27 138.448 256.404 138.638 256.537 138.829Z" fill="#ECB942"/>
<path d="M134.24 10.4068L134.107 10.2162C134.238 10.2148 134.236 10.0228 134.368 10.0214C134.501 10.212 134.503 10.404 134.24 10.4068Z" fill="#ECB942"/>
<path d="M2.22015 28.3253C2.35151 28.3239 2.34945 28.1319 2.48081 28.1305C2.87695 28.3183 2.6204 28.8971 2.35357 28.5159C2.22221 28.5173 2.22221 28.5173 2.22015 28.3253Z" fill="#ECB942"/>
<path d="M302.105 78.464C302.369 78.4612 302.367 78.2692 302.371 78.6532L302.105 78.464Z" fill="#ECB942"/>
<path d="M303.945 78.6363C303.814 78.6377 303.816 78.8297 303.683 78.6391C303.549 78.4485 303.549 78.4485 303.812 78.4457C303.943 78.4443 303.943 78.4443 303.945 78.6363Z" fill="#ECB942"/>
<path d="M310.504 90.2723C310.506 90.4643 310.506 90.4643 310.243 90.4672L310.504 90.2723Z" fill="#ECB942"/>
<path d="M38.9127 107.575C38.1349 108.544 38.3955 108.349 37.9953 107.777C38.2559 107.582 37.9932 107.585 38.9127 107.575Z" fill="#ECB942"/>
<path d="M35.2045 116.827C35.2045 116.827 35.2066 117.019 35.3383 117.017C35.2066 117.019 35.2086 117.211 35.0768 117.212C34.943 117.022 35.0727 116.828 35.2045 116.827Z" fill="#ECB942"/>
<path d="M69.5441 123.56C69.2803 123.563 69.4122 123.561 69.4102 123.369L69.5441 123.56Z" fill="#ECB942"/>
<path d="M59.228 128.658C58.9605 128.472 58.9605 128.472 59.228 128.658V128.658Z" fill="#ECB942"/>
<path d="M297.375 127.066C297.241 126.878 297.109 126.88 297.375 127.066V127.066Z" fill="#ECB942"/>
<path d="M255.384 129.245L255.386 129.437C255.125 129.632 255.123 129.44 254.99 129.249C255.251 129.055 255.119 129.056 255.384 129.245Z" fill="#ECB942"/>
<path d="M235.79 138.475C235.524 138.286 235.524 138.286 235.788 138.283L235.79 138.475Z" fill="#ECB942"/>
<path d="M242.625 139.362C242.753 138.976 242.621 138.978 242.887 139.167C242.891 139.551 243.023 139.549 242.625 139.362Z" fill="#ECB942"/>
<path d="M302.899 140.251C303.03 140.249 303.032 140.441 303.164 140.44C302.769 140.444 303.028 140.057 302.899 140.251Z" fill="#ECB942"/>
<path d="M274.774 137.674C274.901 137.288 274.901 137.288 274.774 137.674V137.674Z" fill="#ECB942"/>
<path d="M67.719 137.013C67.8553 137.396 67.8553 137.396 67.5909 137.399L67.719 137.013Z" fill="#ECB942"/>
<path d="M70.5505 131.799C70.4174 131.611 70.4174 131.611 70.5505 131.799V131.799Z" fill="#ECB942"/>
<path d="M295.136 126.516C295.404 126.703 295.404 126.703 295.136 126.516V126.516Z" fill="#ECB942"/>
<path d="M276.221 125.568C275.958 125.57 275.826 125.572 275.953 125.186L276.085 125.185C276.221 125.568 276.225 125.952 276.221 125.568Z" fill="#ECB942"/>
<path d="M17.1735 124.888C17.1777 125.272 17.3087 125.079 17.0425 125.082L17.1735 124.888Z" fill="#ECB942"/>
<path d="M16.8278 68.2783C16.961 68.4689 16.963 68.6609 16.8278 68.2783V68.2783Z" fill="#ECB942"/>
<path d="M15.2503 68.1032C15.1233 68.4886 15.1233 68.4886 15.2503 68.1032V68.1032Z" fill="#ECB942"/>
<path d="M279.835 58.552C279.833 58.36 279.963 58.1666 279.963 58.1666C280.095 58.1651 280.097 58.3572 279.835 58.552Z" fill="#ECB942"/>
<path d="M304.555 37.5586C304.684 37.3677 304.684 37.3677 304.555 37.5586V37.5586Z" fill="#ECB942"/>
<path d="M230.654 14.5553C230.525 14.9407 230.787 14.5538 230.654 14.5553V14.5553Z" fill="#ECB942"/>
<path d="M227.641 15.1632C227.636 14.7792 227.504 14.7806 227.771 14.9698L227.641 15.1632Z" fill="#ECB942"/>
<path d="M184.579 76.6521C184.708 76.4588 184.704 76.075 184.833 75.8817C185.221 75.3018 185.5 76.8341 184.975 76.8398C184.845 77.0331 184.712 76.8426 184.579 76.6521Z" fill="#ECB942"/>
</svg>
