<svg width="43" height="51" viewBox="0 0 43 51" fill="none" xmlns="http://www.w3.org/2000/svg">
<path d="M42.0128 11.0187C41.4389 11.401 40.6124 11.9856 39.6941 12.6602C37.2376 14.1219 34.9418 15.7634 32.7838 17.6523C32.4394 17.9671 32.095 18.3044 31.7736 18.6192L31.7507 18.6417C30.3043 19.7661 27.9397 23.5438 26.654 25.6576C26.4933 25.9274 26.3097 26.1973 26.149 26.4896C26.149 26.4896 27.1821 22.5094 25.9423 17.3825C25.9194 17.315 25.9194 17.2475 25.8964 17.1801C25.8735 17.1351 25.8735 17.0676 25.8505 17.0227C25.8046 16.8428 25.7587 16.6629 25.6898 16.483C25.6209 16.2581 25.5521 16.0557 25.4832 15.8534C25.4143 15.6735 25.3684 15.4711 25.2995 15.2912C25.2766 15.2012 25.2306 15.1113 25.2077 15.0438C24.519 13.1774 23.5088 11.2436 22.0395 9.30971C20.4784 7.21844 18.6418 5.30706 16.6903 3.48563C16.2771 3.08087 15.8868 2.74357 15.5424 2.45124C15.5424 2.45124 15.5195 2.45124 15.5195 2.42875C15.1522 2.11394 14.8308 1.8441 14.5553 1.64172C13.4074 0.607326 13.1778 0.000183105 13.1778 0.000183105C12.7645 0.85468 12.4891 1.57426 12.2595 2.13643C12.1447 2.38378 12.0529 2.6986 11.961 3.0359C11.8922 3.23828 11.8692 3.35071 11.8692 3.35071C11.7314 3.82293 11.5937 4.3851 11.456 5.03722C9.64229 12.7727 14.9226 20.0809 22.8201 20.5981C22.338 17.8772 20.5013 15.7859 19.4453 13.3573C19.4453 13.3573 23.1415 15.2912 24.0828 20.778C24.1975 21.475 24.2894 22.2171 24.3582 23.0266V23.0042C24.3812 23.0941 24.3812 23.2065 24.3812 23.2965C24.3812 23.3864 24.4042 23.4989 24.4042 23.5888C24.4042 24.7581 24.4042 26.0399 24.4501 26.3547C24.4501 26.737 24.4271 27.1417 24.4042 27.5465C24.3123 29.4354 24.1746 31.3917 24.0598 33.7978C21.213 28.8507 17.6086 25.3653 13.2696 23.0491C13.2696 23.0491 4.77523 18.3494 0 19.2489C0 19.2489 0.73465 35.5743 14.5553 33.438C16.0016 33.3256 17.4479 32.9883 18.7106 32.3586C17.9071 31.684 17.1725 31.0319 16.3919 30.4473C14.2338 28.9182 11.961 27.6364 9.48158 26.6695C9.82595 26.5346 10.1703 26.3997 10.4917 26.2872C11.7774 26.737 13.086 27.1417 14.3716 27.6364C18.1596 29.1206 20.7539 32.0888 23.1415 35.0571C24.2435 36.4288 23.2104 38.1602 22.6594 39.8467C22.2461 39.6444 21.9018 39.352 21.6033 38.9922C21.1212 38.6999 20.7998 38.2052 20.4784 37.7555C20.157 37.3057 19.8356 36.8785 19.606 36.4063C19.5601 36.3613 19.5371 36.2938 19.4912 36.2489C19.2387 35.8891 18.9172 35.4393 18.2974 35.237C17.5168 34.9896 16.7363 35.4618 16.1853 35.7542C15.1751 36.2713 14.1879 36.9235 14.0043 37.733C13.8436 38.3851 14.4864 39.0372 14.142 39.6668C13.8206 40.2515 12.8564 40.2965 11.961 40.3864C10.7443 40.4989 9.61933 40.8586 8.74693 41.3758C7.7827 41.938 7.20876 42.6576 7.09397 43.4671C6.95622 44.2542 7.09397 45.0412 6.61185 45.7833C6.24453 46.3679 5.64762 46.8851 4.8441 47.2899C4.29311 47.5597 3.76508 47.7621 3.48959 48.1444C7.82862 49.9658 13.1548 51.0452 18.9172 51.0452C27.228 51.0452 34.6434 48.7965 39.4875 45.311C39.4645 45.2885 39.4415 45.2885 39.4186 45.2885C38.3625 44.7938 37.4442 44.1642 36.7555 43.4896C36.1127 42.8375 35.7453 42.1404 35.378 41.4208C34.9648 40.5438 34.276 39.5319 32.3935 39.6219C30.9701 39.6893 30.0977 40.319 29.0416 40.7912C28.1233 41.1959 27.1132 41.2859 26.0112 41.0835C25.2995 40.9486 24.6567 40.7462 24.0598 40.4989C24.5649 38.5425 25.047 36.5862 25.4832 34.6073C26.6311 29.6377 30.8324 23.8811 34.5515 22.4645C32.5771 25.1404 30.0747 27.2542 29.0416 30.4248C36.4341 30.0425 41.3241 26.0848 42.5638 20.3057V20.2833C42.5868 20.1483 42.6327 20.0134 42.6556 19.8785C42.6556 19.856 42.6556 19.8335 42.6786 19.811C42.7015 19.6986 42.7015 19.6086 42.7245 19.4962C42.7475 19.3838 42.7704 19.2713 42.7704 19.1589C43.528 13.9195 42.0128 11.0187 42.0128 11.0187Z" fill="#97BC59"/>
</svg>
